<?xml version="1.0" ?><!DOCTYPE svg  PUBLIC '-//W3C//DTD SVG 1.1//EN'  'http://www.w3.org/Graphics/SVG/1.1/DTD/svg11.dtd'><svg enable-background="new 0 0 66 66" id="Layer_1" version="1.1" viewBox="0 0 66 66" xml:space="preserve" xmlns="http://www.w3.org/2000/svg" xmlns:xlink="http://www.w3.org/1999/xlink"><g><g><g><g><g><g><path d="M1.04,29.999c-0.253-1.444,0.716-2.822,2.158-3.074c0.191-0.033,10.829,0.005,11.023,0.005        c0.253,0.001,0.457,0.206,0.456,0.458c-0.001,0.253-0.205,0.456-0.457,0.456H14.22c-0.064,0-10.802-0.03-10.865-0.019        c-0.944,0.164-1.58,1.068-1.414,2.015c0.166,0.946,1.078,1.582,2.015,1.414c1.946-0.34,3.688-0.591,6.031-0.869        c0.231-0.037,0.477,0.147,0.507,0.4c0.03,0.25-0.149,0.478-0.4,0.507c-2.325,0.277-4.052,0.525-5.963,0.859        C2.679,32.409,1.295,31.447,1.04,29.999z"/></g></g><g><g><path d="M60.67,34.556c-0.061,0-0.122-0.012-0.181-0.038c-6.279-2.718-9.845-1.072-16.546-0.741        c-3.402,0.16-6.751,0.17-9.96,0.027c-0.252-0.011-0.448-0.224-0.436-0.477c0.011-0.251,0.197-0.471,0.477-0.436        c3.179,0.14,6.503,0.131,9.875-0.027c1.738-0.087,3.246-0.261,4.704-0.43c4.14-0.476,7.406-0.853,12.248,1.244        c0.232,0.101,0.339,0.37,0.238,0.601C61.015,34.454,60.847,34.556,60.67,34.556z"/></g></g><g><g><path d="M29.917,41.676c-0.79,0-1.628-0.021-2.603-0.067c-0.252-0.012-0.447-0.225-0.435-0.478        c0.012-0.252,0.238-0.461,0.478-0.435c1.118,0.051,2.055,0.07,2.937,0.063c0.002,0,0.004,0,0.004,0        c0.251,0,0.455,0.202,0.457,0.453c0.003,0.253-0.201,0.459-0.453,0.462C30.175,41.675,30.047,41.676,29.917,41.676z"/></g></g><g><g><path d="M24.079,32.956c-0.016,0-0.031-0.001-0.047-0.003c-0.749-0.076-1.42-0.117-2.046-0.125        c-0.253-0.004-0.455-0.211-0.451-0.464c0.003-0.253,0.175-0.448,0.464-0.451c0.653,0.009,1.349,0.051,2.126,0.13        c0.251,0.025,0.434,0.249,0.408,0.501C24.51,32.779,24.31,32.956,24.079,32.956z"/></g></g><g><g><path d="M18.141,40.512c-0.035,0-0.07-0.004-0.105-0.012c-2.637-0.624-4.177-1.973-4.227-3.7        c-0.052-1.837,1.665-3.69,4.083-4.41c0.244-0.071,0.498,0.067,0.569,0.308c0.071,0.242-0.066,0.497-0.308,0.569        c-2.028,0.602-3.47,2.077-3.43,3.506c0.037,1.281,1.32,2.316,3.523,2.836c0.246,0.058,0.398,0.305,0.339,0.55        C18.537,40.37,18.348,40.512,18.141,40.512z"/></g></g><g><g><path d="M24.235,41.399c-0.013,0-0.025-0.001-0.038-0.002c-1.07-0.087-1.673-0.167-2.308-0.251l-0.611-0.079        c-0.25-0.031-0.428-0.26-0.397-0.511c0.03-0.251,0.265-0.432,0.511-0.397l0.617,0.08c0.623,0.082,1.213,0.161,2.263,0.247        c0.251,0.021,0.439,0.241,0.418,0.493C24.67,41.217,24.47,41.399,24.235,41.399z"/></g></g><g><g><path d="M30.116,33.568c-0.014,0-0.029-0.001-0.043-0.002l-2.122-0.192c-0.251-0.023-0.437-0.246-0.414-0.498        c0.023-0.251,0.253-0.428,0.498-0.414l2.122,0.192c0.251,0.023,0.437,0.246,0.414,0.498        C30.55,33.39,30.35,33.568,30.116,33.568z"/></g></g><g><g><path d="M33.382,41.592c-0.243,0-0.445-0.19-0.456-0.435c-0.013-0.253,0.182-0.467,0.434-0.479        c1.882-0.09,6.057-0.446,7.478-0.861c0.317-0.092,0.875-0.283,1.037-0.571c0.212-0.534,0.249-1.039,0.097-1.584        c-0.172-0.528-0.63-1.174-1.252-1.755c-0.701-0.66-1.605-1.293-2.688-1.881c-0.222-0.121-0.304-0.398-0.183-0.621        c0.121-0.222,0.4-0.303,0.621-0.183c5.556,3.026,4.902,6.13,3.71,7.002c-0.291,0.19-0.659,0.348-1.085,0.472        c-1.592,0.466-5.954,0.813-7.688,0.896C33.396,41.592,33.389,41.592,33.382,41.592z"/></g></g><g><g><path d="M32.542,45.951c-0.023-0.252,0.163-0.474,0.414-0.498c1.801-0.165,3.676-0.416,5.571-0.745        c2.059-0.349,6.082-0.849,7.157-3.953c0.521-1.424,0.499-3.119-0.053-4.429c-0.409-0.981-1.066-1.849-2.007-2.657l0.27-0.375        l0.323-0.323l0.028,0.028c1.027,0.879,1.765,1.859,2.231,2.974c0.647,1.537,0.674,3.44,0.071,5.09        c-0.325,0.939-1.013,1.874-1.838,2.495c-2.455,1.887-8.506,2.516-11.668,2.807C32.761,46.382,32.564,46.186,32.542,45.951z"/></g></g><g><g><path d="M30.555,26.424c-0.006,0-0.013,0-0.021,0c-0.833-0.038-1.668-0.074-2.511-0.121c-0.253-0.013-0.446-0.23-0.432-0.482        c0.038-0.671,0.825-0.405,2.984-0.313c0.252,0.012,0.448,0.225,0.437,0.477C31.001,26.232,30.799,26.424,30.555,26.424z"/></g></g><g><g><path d="M24.691,46.637c0,0-1.824-0.044-3.744-0.209c-0.244-0.02-0.469-0.235-0.459-0.48c0.012-0.27,0.257-0.48,0.532-0.432        c1.115,0.095,2.3,0.163,3.531,0.2c0.063-0.001,0.159,0.001,0.252,0.012c0.251,0.03,0.429,0.258,0.398,0.509        C25.169,46.499,24.927,46.671,24.691,46.637z"/></g></g><g><g><path d="M18.622,46.199c-3.774-0.409-7.195-1.604-9.373-4.73c-1.984-2.888-1.954-6.911,0.075-10.25        c1.805-2.92,5.106-5,9.056-5.711c0.245-0.039,0.486,0.121,0.532,0.369c0.045,0.249-0.121,0.487-0.369,0.532        c-3.696,0.666-6.772,2.593-8.439,5.289c-1.84,3.029-1.882,6.662-0.103,9.252c2.012,2.889,5.235,3.965,8.719,4.342        c0.251,0.027,0.432,0.253,0.406,0.504C19.1,46.042,18.878,46.226,18.622,46.199z"/></g></g><g><g><path d="M24.545,26.094c-0.006,0-0.013,0-0.02,0c-0.921-0.042-1.758-0.052-2.569-0.037c-0.255,0.002-0.461-0.197-0.466-0.448        c-0.005-0.253,0.196-0.461,0.449-0.466c0.827-0.017,1.686-0.005,2.627,0.037c0.252,0.012,0.448,0.225,0.437,0.478        C24.99,25.902,24.788,26.094,24.545,26.094z"/></g></g><g><g><path d="M26.932,46.669c-0.251,0-0.456-0.203-0.457-0.454c-0.002-0.253,0.201-0.459,0.454-0.461        c3.809-0.028,4.272-0.363,4.32,0.288c0.018,0.252-0.172,0.471-0.424,0.489c-1.168,0.083-2.404,0.127-3.889,0.139        C26.935,46.669,26.933,46.669,26.932,46.669z"/></g></g><g><g><path d="M34.489,26.479c-0.119,0-0.238,0-0.357,0c-0.253-0.001-0.457-0.205-0.456-0.458c0.001-0.253,0.205-0.456,0.457-0.456        h0.001c0.12,0,0.24,0,0.359,0c12.28,0,18.435-1.415,22.643-5.189c0.24-0.214,0.469-0.425,0.69-0.654        c0.424-0.434,1.076,0.2,0.659,0.634c-0.237,0.247-0.483,0.474-0.74,0.702C53.348,25,47.025,26.479,34.489,26.479z"/></g></g><g><g><path d="M60.943,36.03c-1.134-0.658-1.28-3.648-1.454-4.651c-1.653-9.686-2-10.357-1.708-11.764        c0.426-2.065,2.489-2.977,4.181-1.556c3.551,3.039,3.288,14.548,2.66,16.261C64.043,35.866,62.423,36.894,60.943,36.03z         M58.676,19.802c-0.246,1.188,0.102,1.972,1.714,11.422c0.016,0.095,0.038,0.268,0.064,0.491        c0.253,2.121,0.572,3.307,0.949,3.525c0.958,0.56,2.018-0.319,2.36-1.236c0.275-0.749,0.284-1.605,0.292-2.434        C64.16,16.661,59.261,16.986,58.676,19.802z"/></g></g><g><g><path d="M30.51,48.166c-0.355-0.449-0.097-1.069-0.173-2.056c-0.008-0.102-0.032-0.295-0.065-0.573        c-0.791-6.524-0.849-13.124-0.172-19.617c-0.003-1.349,0.682-2.821,1.989-2.934c3.01-0.279,2.771,5.335,2.535,8.332        c-0.33,4.135-0.56,7.152-0.729,9.368c-0.457,5.986-0.475,6.22-0.814,6.857C32.452,48.73,31.057,48.86,30.51,48.166z         M31.012,25.967c-0.673,6.472-0.616,13.004,0.167,19.46c0.059,0.482,0.108,0.855,0.089,1.36        c-0.021,0.524-0.231,0.858,0.246,0.884c0.273,0,0.585-0.23,0.759-0.558c0.248-0.468,0.283-0.923,0.709-6.497        c0.169-2.216,0.399-5.234,0.73-9.37C34.476,21.536,31.012,23.268,31.012,25.967z"/></g></g><g><g><path d="M25.321,48.578c-1.419-0.156-0.979-1.303-1.018-2.286c-0.007-0.028-0.012-0.056-0.012-0.086        c-0.006-0.121-0.037-0.37-0.08-0.737c-0.286-2.389-1.156-9.659-0.156-19.575c0.303-3.333,2.551-3.391,3.54-2.3        c2.071,2.281,0.733,10.921,0.196,17.596c-0.098,1.282-0.402,5.059-0.402,5.059c-0.048,0.414-0.127,0.876-0.356,1.297        C26.705,48.189,26.007,48.653,25.321,48.578z M25.197,46.063c0.009,0.032,0.014,0.066,0.015,0.1        c0.026,0.548,0.01,0.707-0.021,0.969c-0.06,0.487-0.029,0.507,0.228,0.536c0.341,0.019,0.654-0.252,0.805-0.549        c0.16-0.297,0.218-0.652,0.256-0.962c-0.001,0,0.302-3.761,0.399-5.04c0.481-5.961,2.162-17.347-0.758-17.22        c-0.806,0.07-1.074,1.172-1.157,2.083c-0.99,9.822-0.129,17.016,0.154,19.381C25.156,45.678,25.183,45.914,25.197,46.063z"/></g></g><g><g><path d="M18.235,47.024c0.112-0.967-0.166-2.093-0.256-3.087c-0.371-3.71-0.499-7.141-0.414-11.12        c0.176-6.704,0.372-9.652,2.43-9.832c3.654-0.3,2.756,7.444,1.924,16.609c-0.178,1.959-0.367,4.043-0.541,6.222        C21.02,49.475,17.974,49.212,18.235,47.024z M20.073,23.897c-1.024,0.091-1.403,1.616-1.594,8.943        c-0.084,3.939,0.043,7.335,0.409,11.012c0.029,0.315,0.075,0.629,0.121,0.946c0.043,0.299,0.087,0.599,0.117,0.901        c0.076,0.716,0.055,1.116,0.017,1.435c-0.057,0.457-0.058,0.521,0.279,0.539c0.279,0,0.589-0.227,0.754-0.551        c0.186-0.349,0.24-0.778,0.272-1.191l0.021-0.211c0.172-2.156,0.361-4.243,0.539-6.205        C21.794,30.852,22.471,23.73,20.073,23.897z"/></g></g><g><g><path d="M31.965,23.309l-0.013-2.647c-0.002-0.598,0.913-0.619,0.915-0.005l0.013,2.649        C32.882,23.913,31.967,23.919,31.965,23.309z"/></g></g><g><g><path d="M25.48,23.239c0.09-0.602,0.044-1.227-0.134-1.806c-0.075-0.242,0.061-0.498,0.302-0.572        c0.819-0.252,0.862,1.685,0.736,2.514C26.295,23.973,25.39,23.837,25.48,23.239z"/></g></g><g><g><path d="M19.916,23.687c-0.691,0-0.421-1.124-0.381-1.847c0.033-0.617,0.947-0.544,0.913,0.05        C20.396,22.841,20.543,23.687,19.916,23.687z"/></g></g></g><g><g><path d="M33.594,21.193l-2.513-0.073c-0.586-0.019-0.606-0.9,0.027-0.915l2.442,0.071       C33.62,20.835,33.611,20.632,33.594,21.193z"/></g></g><g><g><path d="M24.278,21.429c-0.064-0.687,0.95-0.546,2.472-0.684c0.228-0.013,0.474,0.163,0.497,0.414       c0.064,0.687-0.95,0.546-2.472,0.684C24.5,21.862,24.3,21.665,24.278,21.429z"/></g></g><g><g><path d="M18.485,22.067c-0.142-0.666,0.863-0.652,2.149-0.926c0.601-0.114,0.775,0.77,0.191,0.895       C19.529,22.312,18.629,22.732,18.485,22.067z"/></g></g></g><g><g><path d="M36.519,33.398l-1.284-1.284c-0.089-0.089-0.089-0.234,0-0.323c0.089-0.089,0.234-0.089,0.323,0l1.284,1.284      c0.089,0.089,0.089,0.234,0,0.323C36.754,33.486,36.609,33.488,36.519,33.398z"/></g></g><g><g><path d="M38.409,33.462l-1.574-1.574c-0.213-0.213,0.109-0.538,0.323-0.323l1.574,1.574c0.089,0.089,0.089,0.234,0,0.323      C38.643,33.551,38.499,33.552,38.409,33.462z"/></g></g><g><g><path d="M40.583,33.544c-0.154,0-1.771-1.677-1.88-1.786c-0.089-0.089-0.089-0.234,0-0.323c0.089-0.089,0.234-0.089,0.323,0      l1.719,1.719c0.089,0.089,0.089,0.234,0,0.323C40.7,33.522,40.642,33.544,40.583,33.544z"/></g></g><g><g><path d="M42.637,33.626c-0.155,0-1.879-1.785-1.989-1.894c-0.089-0.089-0.089-0.234,0-0.323c0.089-0.089,0.234-0.089,0.323,0      l1.827,1.827c0.089,0.089,0.089,0.234,0,0.323C42.754,33.604,42.696,33.626,42.637,33.626z"/></g></g><g><g><path d="M44.474,32.947c-0.059,0-0.117-0.022-0.162-0.067l-1.355-1.355c-0.089-0.089-0.089-0.234,0-0.323      c0.089-0.089,0.234-0.089,0.323,0l1.355,1.355c0.089,0.089,0.089,0.234,0,0.323C44.591,32.924,44.533,32.947,44.474,32.947z"/></g></g><g><g><path d="M47.117,32.944c-0.154,0-1.69-1.596-1.799-1.705c-0.089-0.089-0.089-0.234,0-0.323c0.089-0.089,0.234-0.089,0.323,0      l1.638,1.637c0.089,0.089,0.089,0.234,0,0.323C47.234,32.922,47.176,32.944,47.117,32.944z"/></g></g><g><g><path d="M49.772,33.022l-2.198-2.198c-0.089-0.089-0.089-0.234,0-0.323c0.089-0.089,0.234-0.089,0.323,0l2.198,2.198      C50.31,32.913,49.985,33.234,49.772,33.022z"/></g></g><g><g><path d="M51.917,32.779l-2.423-2.423c-0.089-0.089-0.089-0.234,0-0.323c0.089-0.089,0.234-0.089,0.323,0l2.423,2.423      c0.089,0.089,0.089,0.234,0,0.323C52.152,32.868,52.007,32.869,51.917,32.779z"/></g></g><g><g><path d="M53.989,32.05l-2.082-2.082c-0.089-0.089-0.089-0.234,0-0.323c0.089-0.089,0.234-0.089,0.323,0l2.082,2.082      c0.089,0.089,0.089,0.234,0,0.323C54.224,32.138,54.079,32.139,53.989,32.05z"/></g></g><g><g><path d="M57.682,32.863l-3.413-3.413c-0.089-0.089-0.089-0.234,0-0.323c0.089-0.089,0.234-0.089,0.323,0l3.413,3.413      c0.089,0.089,0.089,0.234,0,0.323C57.917,32.951,57.772,32.952,57.682,32.863z"/></g></g><g><g><path d="M58.915,31.813l-2.727-2.727c-0.213-0.213,0.109-0.538,0.323-0.323l2.727,2.727c0.089,0.089,0.089,0.234,0,0.323      C59.149,31.902,59.005,31.903,58.915,31.813z"/></g></g><g><g><path d="M59.307,29.854c-0.155,0-1.765-1.67-1.874-1.78c-0.089-0.089-0.089-0.234,0-0.323c0.089-0.089,0.234-0.089,0.323,0      l1.713,1.713c0.089,0.089,0.089,0.234,0,0.323C59.424,29.831,59.366,29.854,59.307,29.854z"/></g></g><g><g><path d="M35.293,32.977l2.237-2.237c0.089-0.089,0.234-0.089,0.323,0c0.089,0.089,0.089,0.234,0,0.323L35.617,33.3      C35.403,33.515,35.081,33.19,35.293,32.977z"/></g></g><g><g><path d="M37.982,33.477c-0.059,0-0.117-0.022-0.162-0.067c-0.089-0.089-0.089-0.234,0-0.323l2.099-2.099      c0.089-0.089,0.234-0.089,0.323,0c0.089,0.089,0.089,0.234,0,0.323C40.132,31.42,38.136,33.477,37.982,33.477z"/></g></g><g><g><path d="M40.851,33.262l2.068-2.068c0.089-0.089,0.234-0.089,0.323,0c0.089,0.089,0.089,0.234,0,0.323l-2.068,2.068      C40.96,33.8,40.639,33.475,40.851,33.262z"/></g></g><g><g><path d="M43.729,33.475c-0.089-0.089-0.089-0.234,0-0.323l2.509-2.508c0.09-0.09,0.235-0.088,0.323,0      c0.089,0.089,0.089,0.234,0,0.323l-2.509,2.508C43.964,33.564,43.819,33.566,43.729,33.475z"/></g></g><g><g><path d="M45.486,33.042l2.982-2.981c0.089-0.089,0.234-0.089,0.323,0c0.089,0.089,0.089,0.234,0,0.323l-2.982,2.981      C45.595,33.58,45.273,33.255,45.486,33.042z"/></g></g><g><g><path d="M47.749,32.955l2.917-2.917c0.089-0.089,0.234-0.089,0.323,0c0.089,0.089,0.089,0.234,0,0.323l-2.917,2.917      C47.858,33.492,47.536,33.167,47.749,32.955z"/></g></g><g><g><path d="M49.946,32.713l3.158-3.158c0.089-0.089,0.234-0.089,0.323,0c0.089,0.089,0.089,0.234,0,0.323l-3.158,3.158      C50.055,33.25,49.732,32.927,49.946,32.713z"/></g></g><g><g><path d="M52.779,32.494l3.534-3.534c0.213-0.213,0.538,0.109,0.323,0.323l-3.534,3.534      C52.888,33.031,52.567,32.706,52.779,32.494z"/></g></g><g><g><path d="M55.107,32.537l3.576-3.576c0.213-0.213,0.538,0.109,0.323,0.323l-3.576,3.576      C55.218,33.074,54.892,32.753,55.107,32.537z"/></g></g><g><g><path d="M57.576,29.259c-0.202,0-0.306-0.246-0.162-0.39l1.37-1.37c0.09-0.09,0.235-0.088,0.323,0      c0.089,0.089,0.089,0.234,0,0.323C59,27.93,57.728,29.259,57.576,29.259z"/></g></g><g><g><path d="M41.751,35.423c-0.153,0-1.557-1.462-1.666-1.571c-0.089-0.089-0.089-0.234,0-0.323c0.088-0.088,0.233-0.09,0.323,0      l1.504,1.504c0.089,0.089,0.089,0.234,0,0.323C41.868,35.401,41.81,35.423,41.751,35.423z"/></g></g><g><g><path d="M43.12,35.083l-1.289-1.289c-0.213-0.213,0.109-0.538,0.323-0.323l1.289,1.289c0.089,0.089,0.089,0.234,0,0.323      C43.355,35.171,43.21,35.172,43.12,35.083z"/></g></g><g><g><path d="M44.653,35.1c-0.059,0-0.117-0.022-0.162-0.067L43.4,33.941c-0.213-0.213,0.109-0.538,0.323-0.323l1.092,1.093      c0.089,0.089,0.089,0.234,0,0.323C44.77,35.078,44.711,35.1,44.653,35.1z"/></g></g><g><g><path d="M41.002,35.332c-0.089-0.089-0.089-0.234,0-0.323l1.62-1.619c0.09-0.089,0.235-0.089,0.323,0      c0.089,0.089,0.089,0.234,0,0.323l-1.62,1.619C41.237,35.42,41.093,35.422,41.002,35.332z"/></g></g><g><g><path d="M43.163,34.683l0.749-0.75c0.088-0.088,0.233-0.09,0.323,0c0.089,0.089,0.089,0.234,0,0.323l-0.749,0.75      C43.274,35.219,42.949,34.898,43.163,34.683z"/></g></g><g><g><path d="M34.256,32.259c-0.089-0.089-0.089-0.234,0-0.323l1.979-1.979c0.089-0.089,0.234-0.089,0.323,0      c0.089,0.089,0.089,0.234,0,0.323l-1.979,1.979C34.491,32.347,34.346,32.349,34.256,32.259z"/></g></g><g><g><path d="M34.317,29.676l1.695-1.695c0.089-0.089,0.234-0.089,0.323,0c0.089,0.089,0.089,0.234,0,0.323l-1.695,1.695      C34.426,30.214,34.104,29.889,34.317,29.676z"/></g></g><g><g><path d="M34.754,28.204c-0.059,0-0.117-0.022-0.162-0.067c-0.089-0.089-0.089-0.234,0-0.323l1.056-1.056      c0.089-0.089,0.234-0.089,0.323,0c0.089,0.089,0.089,0.234,0,0.323l-1.056,1.056C34.871,28.181,34.813,28.204,34.754,28.204z"/></g></g><g><g><path d="M36.064,27.805c-0.059,0-0.117-0.022-0.162-0.067l-1.189-1.189c-0.089-0.089-0.089-0.234,0-0.323      c0.089-0.089,0.234-0.089,0.323,0l1.189,1.189c0.089,0.089,0.089,0.234,0,0.323C36.181,27.783,36.123,27.805,36.064,27.805z"/></g></g><g><g><path d="M35.801,29.772l-1.301-1.3c-0.089-0.089-0.089-0.234,0-0.323c0.089-0.088,0.234-0.09,0.323,0l1.301,1.3      c0.089,0.089,0.089,0.234,0,0.323C36.034,29.863,35.889,29.861,35.801,29.772z"/></g></g><g><g><path d="M35.417,31.344l-0.825-0.826c-0.213-0.213,0.109-0.538,0.323-0.323l0.825,0.825c0.089,0.089,0.089,0.234,0,0.323      C35.652,31.432,35.507,31.434,35.417,31.344z"/></g></g><g><g><path d="M59.578,21.071l-1.181-1.181c-0.213-0.213,0.109-0.538,0.323-0.323l1.181,1.181c0.089,0.089,0.089,0.234,0,0.323      C59.812,21.16,59.668,21.161,59.578,21.071z"/></g></g><g><g><path d="M60.02,19.89l-1.064-1.064c-0.213-0.213,0.109-0.538,0.323-0.323l1.064,1.064C60.558,19.781,60.233,20.103,60.02,19.89z      "/></g></g><g><g><path d="M61.111,19.272l-0.978-0.978c-0.089-0.089-0.089-0.234,0-0.323c0.089-0.089,0.234-0.089,0.323,0l0.978,0.978      c0.089,0.089,0.089,0.234,0,0.323C61.345,19.361,61.201,19.362,61.111,19.272z"/></g></g><g><g><path d="M60.043,23.02l-1.675-1.675c-0.213-0.213,0.109-0.538,0.323-0.323l1.675,1.675C60.583,22.913,60.253,23.23,60.043,23.02      z"/></g></g><g><g><path d="M60.064,24.636l-1.471-1.471c-0.089-0.089-0.089-0.234,0-0.323c0.089-0.089,0.234-0.089,0.323,0l1.471,1.471      c0.089,0.089,0.089,0.234,0,0.323C60.298,24.725,60.154,24.726,60.064,24.636z"/></g></g><g><g><path d="M60.473,26.839l-1.293-1.294c-0.213-0.213,0.109-0.538,0.323-0.323l1.293,1.294c0.089,0.089,0.089,0.234,0,0.323      C60.708,26.927,60.563,26.929,60.473,26.839z"/></g></g><g><g><path d="M60.691,28.875l-1.091-1.09c-0.089-0.089-0.089-0.234,0-0.323c0.088-0.088,0.233-0.09,0.323,0l1.091,1.09      c0.089,0.089,0.089,0.234,0,0.323C60.924,28.966,60.779,28.964,60.691,28.875z"/></g></g><g><g><path d="M60.726,30.507l-0.761-0.761c-0.089-0.089-0.089-0.234,0-0.323c0.089-0.089,0.234-0.089,0.323,0l0.761,0.761      c0.089,0.089,0.089,0.234,0,0.323C60.96,30.596,60.816,30.597,60.726,30.507z"/></g></g><g><g><path d="M61.256,32.772L60.3,31.817c-0.089-0.089-0.089-0.234,0-0.323c0.089-0.089,0.234-0.089,0.323,0l0.955,0.955      c0.089,0.089,0.089,0.234,0,0.323C61.49,32.861,61.345,32.862,61.256,32.772z"/></g></g><g><g><path d="M61.741,34.825l-1.16-1.16c-0.089-0.089-0.089-0.234,0-0.323c0.089-0.089,0.234-0.089,0.323,0l1.161,1.161      c0.089,0.089,0.089,0.234,0,0.323C61.975,34.914,61.83,34.915,61.741,34.825z"/></g></g><g><g><path d="M61.029,35.121c-0.089-0.089-0.089-0.234,0-0.323l1.011-1.011c0.089-0.089,0.234-0.089,0.323,0      c0.089,0.089,0.089,0.234,0,0.323l-1.011,1.011C61.263,35.21,61.118,35.211,61.029,35.121z"/></g></g><g><g><path d="M60.636,32.81l0.912-0.912c0.089-0.089,0.234-0.089,0.323,0c0.089,0.089,0.089,0.234,0,0.323l-0.912,0.912      C60.746,33.347,60.423,33.023,60.636,32.81z"/></g></g><g><g><path d="M60.294,31.324c-0.059,0-0.117-0.022-0.162-0.067c-0.089-0.089-0.089-0.234,0-0.323l1.613-1.613      c0.089-0.089,0.234-0.089,0.323,0c0.089,0.089,0.089,0.234,0,0.323l-1.613,1.613C60.411,31.302,60.353,31.324,60.294,31.324z"/></g></g><g><g><path d="M59.6,28.61l1.881-1.881c0.089-0.089,0.234-0.089,0.323,0c0.089,0.089,0.089,0.234,0,0.323l-1.881,1.881      C59.709,29.148,59.388,28.823,59.6,28.61z"/></g></g><g><g><path d="M59.734,26.732c-0.059,0-0.117-0.022-0.162-0.067c-0.089-0.089-0.089-0.234,0-0.323l1.708-1.708      c0.213-0.213,0.538,0.109,0.323,0.323l-1.708,1.708C59.851,26.71,59.793,26.732,59.734,26.732z"/></g></g><g><g><path d="M58.872,24.537c-0.089-0.089-0.089-0.234,0-0.323l1.416-1.415c0.213-0.213,0.538,0.109,0.323,0.323l-1.416,1.415      C59.107,24.625,58.962,24.628,58.872,24.537z"/></g></g><g><g><path d="M58.901,22.073c-0.089-0.089-0.089-0.234,0-0.323l1.884-1.884c0.089-0.089,0.234-0.089,0.323,0      c0.089,0.089,0.089,0.234,0,0.323l-1.884,1.884C59.135,22.162,58.99,22.163,58.901,22.073z"/></g></g><g><g><path d="M59.377,19.258l1.252-1.252c0.088-0.088,0.233-0.09,0.323,0c0.089,0.089,0.089,0.234,0,0.323L59.7,19.582      C59.487,19.794,59.162,19.473,59.377,19.258z"/></g></g><g><g><path d="M34.581,42.5l-1.102-1.102c-0.089-0.089-0.089-0.234,0-0.323c0.089-0.089,0.234-0.089,0.323,0l1.102,1.102      C35.12,42.393,34.791,42.71,34.581,42.5z"/></g></g><g><g><path d="M35.78,42.484l-1.125-1.125c-0.089-0.089-0.089-0.234,0-0.323c0.089-0.089,0.234-0.089,0.323,0l1.125,1.125      c0.089,0.089,0.089,0.234,0,0.323C36.015,42.573,35.87,42.574,35.78,42.484z"/></g></g><g><g><path d="M34.453,43.859l-1.088-1.088c-0.089-0.089-0.089-0.234,0-0.323c0.089-0.089,0.234-0.089,0.323,0l1.088,1.088      c0.089,0.089,0.089,0.234,0,0.323C34.687,43.948,34.543,43.949,34.453,43.859z"/></g></g><g><g><path d="M34.185,44.923l-1.008-1.007c-0.214-0.214,0.11-0.537,0.323-0.323l1.008,1.007c0.089,0.089,0.089,0.234,0,0.323      C34.418,45.013,34.273,45.011,34.185,44.923z"/></g></g><g><g><path d="M33.503,45.504c-0.058,0-0.117-0.022-0.162-0.067c-0.089-0.089-0.089-0.234,0-0.323l1.709-1.71      c0.214-0.214,0.536,0.111,0.323,0.323C35.265,43.836,33.658,45.504,33.503,45.504z"/></g></g><g><g><path d="M33.926,42.911c-0.089-0.089-0.089-0.234,0-0.323l0.974-0.974c0.089-0.089,0.234-0.089,0.323,0      c0.089,0.089,0.089,0.234,0,0.323l-0.974,0.974C34.16,43,34.016,43.001,33.926,42.911z"/></g></g><g><g><path d="M35.211,42.33l0.691-0.69c0.21-0.212,0.539,0.108,0.323,0.323l-0.69,0.69C35.32,42.868,34.999,42.543,35.211,42.33z"/></g></g></g><g><g><path d="M11.404,40.892c-0.074,0-0.146-0.036-0.191-0.103c-1.215-1.841-1.603-4.139-1.063-6.305     c0.529-2.125,1.911-3.933,3.79-4.959c0.11-0.058,0.249-0.021,0.311,0.091c0.06,0.111,0.02,0.25-0.091,0.311     c-1.768,0.964-3.068,2.666-3.565,4.668c-0.508,2.042-0.144,4.208,1.001,5.943c0.07,0.105,0.04,0.247-0.065,0.317     C11.492,40.88,11.448,40.892,11.404,40.892z"/></g></g></g></svg>