<?xml version="1.0" ?><!DOCTYPE svg  PUBLIC '-//W3C//DTD SVG 1.1//EN'  'http://www.w3.org/Graphics/SVG/1.1/DTD/svg11.dtd'><svg enable-background="new 0 0 67 67" height="67px" id="Layer_1" version="1.1" viewBox="0 0 67 67" width="67px" xml:space="preserve" xmlns="http://www.w3.org/2000/svg" xmlns:xlink="http://www.w3.org/1999/xlink"><g><g><g><path d="M14.186,16.476c0-2.619-2.131-4.75-4.75-4.75s-4.75,2.131-4.75,4.75s2.131,4.75,4.75,4.75S14.186,19.095,14.186,16.476z      M13.186,16.476c0,2.067-1.682,3.75-3.75,3.75s-3.75-1.683-3.75-3.75s1.682-3.75,3.75-3.75S13.186,14.408,13.186,16.476z"/></g><g><path d="M14.581,34.095c0-1.352-1.099-2.451-2.45-2.451s-2.45,1.1-2.45,2.451c0,1.351,1.099,2.45,2.45,2.45     S14.581,35.445,14.581,34.095z M13.581,34.095c0,0.8-0.65,1.45-1.45,1.45s-1.45-0.65-1.45-1.45s0.65-1.451,1.45-1.451     S13.581,33.295,13.581,34.095z"/></g><g><path d="M8.843,43.47c0.135-0.051,0.25-0.11,0.375-0.166c-0.235,0.84-0.531,1.561-0.949,2.16     c-1.033,1.482-4.454,4.864-5.686,6.042c-1.095,1.048-1.133,2.792-0.086,3.889c0.524,0.547,1.23,0.849,1.987,0.849     c0.711,0,1.386-0.271,1.901-0.763c0.808-0.773,4.908-4.737,6.396-6.872c1.429-2.053,1.978-4.417,2.375-6.88     c1.146,0.903,2.4,2.15,2.95,3.585c0.28,0.731-0.401,3.951-0.691,5.325c-0.181,0.86-0.347,1.647-0.476,2.376     c-0.264,1.493,0.737,2.922,2.229,3.187c1.532,0.266,2.927-0.757,3.187-2.229c0.119-0.673,0.272-1.397,0.429-2.14     c0.684-3.234,1.318-6.236,0.459-8.484c-0.793-2.07-2.774-4.473-4.227-6.088c0.717-0.368,1.063-0.916,1.068-1.335     c0.005-0.365-0.247-0.655-0.598-0.688c-1.539-0.145-2.504-0.654-3.008-1.012c1.002-0.688,3.273-2.246,5.553-3.806     c0.185,0.006,0.363,0.02,0.554,0.02c0.625,0,1.241-0.033,1.831-0.099c1.232-0.137,2.125-1.251,1.988-2.484     c-0.014-0.126-0.05-0.243-0.084-0.361c0.706-0.479,1.271-0.86,1.596-1.074c0.431-0.283,0.566-0.629,0.604-0.87     c0.085-0.542-0.247-0.976-0.285-1.023l-0.193-0.233c-0.148-0.237-0.502-0.578-1.045-0.578c-0.283,0-0.58,0.093-0.881,0.276     c-0.281,0.171-1.512,0.895-3.047,1.794c-0.342,0.029-0.687,0.058-1.047,0.058c-3.506,0-7.182-1.338-9.686-2.482     c-0.729-0.921-1.846-1.467-3.013-1.467c-1.126,0.02-2.104,0.463-2.828,1.251c-2.121,1.418-4.759,3.618-5.412,6.118     c-0.32,1.226-0.137,2.57,0.354,4.048c-1.263,1.364-1.752,3.969-0.344,6.938c1.048,2.211,3.215,3.639,5.519,3.639c0,0,0,0,0,0     C7.348,43.887,8.1,43.747,8.843,43.47z M21.315,26.811c-1.259,0.737-2.555,1.495-3.633,2.125c-1.285-0.233-2.54-0.571-3.82-1.057     c-0.17-0.063-0.361-0.031-0.5,0.086c-0.139,0.117-0.203,0.3-0.168,0.479c0.019,0.098,0.05,0.212,0.072,0.314     c-0.079-0.007-0.156-0.021-0.238-0.021c-0.806,0-1.591,0.38-2.334,1.131c-1.319,1.33-2.3,1.847-3.091,2.041     c-0.411-1.305-0.691-2.521-0.859-3.538c-0.03-0.185-0.16-0.336-0.337-0.394c-0.177-0.061-0.372-0.013-0.505,0.117     c-0.802,0.782-1.285,1.474-1.437,2.053c-0.338,1.295,1.028,4.021,2.456,6.702c0.16,0.3,0.193,0.638,0.096,0.957     s-0.313,0.581-0.607,0.738C5.81,38.863,5.033,38.619,4.72,38.03c-1.862-3.493-3.241-6.338-2.672-8.516     c0.608-2.331,3.425-4.491,5.05-5.572c0.036-0.023,0.068-0.052,0.097-0.084c0.541-0.607,1.277-0.95,2.073-0.965     c0.961,0,1.795,0.425,2.342,1.166c0.05,0.067,0.116,0.122,0.193,0.157C14.236,25.339,17.797,26.648,21.315,26.811z M5.712,31.96     c-0.237-0.671-0.363-1.237-0.278-1.561c0.04-0.153,0.159-0.437,0.508-0.872c0.155,0.762,0.379,1.609,0.649,2.489     c-0.288-0.005-0.568-0.027-0.844-0.055C5.735,31.961,5.724,31.961,5.712,31.96z M14.428,29.141     c0.657,0.221,1.313,0.393,1.971,0.545c-0.323,0.188-0.603,0.353-0.803,0.469C15.35,29.853,14.948,29.442,14.428,29.141z      M23.54,29.387c0.653-0.445,1.278-0.872,1.852-1.263c-0.011,0.617-0.458,1.151-1.087,1.222     C24.059,29.373,23.797,29.376,23.54,29.387z M18.871,36.168c-0.24,0.202-0.689,0.432-1.403,0.48     c-0.362,0.025-0.748,0.03-1.135,0.036c-1.266,0.018-2.575,0.036-3.327,0.71c-0.655,0.588-1.067,1.349-1.466,2.085     c-0.669,1.235-1.302,2.403-3.046,3.053c-0.631,0.235-1.265,0.354-1.885,0.354c-1.92,0.001-3.732-1.203-4.616-3.066     c-1.06-2.236-0.889-4.229-0.147-5.408c0.519,1.267,1.21,2.623,1.992,4.089c0.562,1.056,1.973,1.495,3.043,0.927     c0.531-0.282,0.919-0.755,1.094-1.329c0.175-0.575,0.116-1.185-0.167-1.715c-0.422-0.792-1.143-2.147-1.685-3.396     c0.184,0.016,0.367,0.035,0.559,0.035c1.134,0,2.582-0.291,4.723-2.451c0.549-0.554,1.095-0.834,1.624-0.834     c1.148,0,1.997,1.325,2.005,1.339c0.143,0.229,0.444,0.307,0.678,0.169c0.41-0.239,10.042-5.865,10.921-6.4     c0.177-0.107,0.294-0.13,0.361-0.13c0.127,0,0.192,0.099,0.192,0.1c0.016,0.03,0.036,0.06,0.058,0.086l0.214,0.258     c0.023,0.032,0.087,0.151,0.072,0.238c-0.013,0.074-0.098,0.144-0.166,0.188c-1.907,1.26-11.884,8.111-11.985,8.181     c-0.116,0.079-0.192,0.204-0.212,0.343s0.021,0.279,0.11,0.388C15.323,34.552,16.373,35.79,18.871,36.168z M10.412,42.592     c0.984-0.773,1.523-1.744,2.007-2.637c0.375-0.691,0.729-1.344,1.255-1.816c0.472-0.424,1.641-0.44,2.673-0.455     c0.406-0.005,0.81-0.012,1.189-0.037c0.154-0.011,0.292-0.035,0.431-0.058c1.417,1.549,3.55,4.05,4.342,6.116     c0.753,1.972,0.149,4.835-0.492,7.865c-0.171,0.808-0.327,1.545-0.447,2.228c-0.166,0.937-1.056,1.583-2.028,1.419     c-0.95-0.169-1.586-1.078-1.419-2.028c0.127-0.718,0.291-1.494,0.458-2.287c0.556-2.629,1.015-5.015,0.659-5.945     c-0.747-1.95-2.565-3.542-3.96-4.534c-0.086-0.062-0.188-0.093-0.29-0.093c-0.066,0-0.133,0.013-0.196,0.04     c-0.16,0.067-0.273,0.214-0.299,0.386c-0.395,2.638-0.87,5.179-2.333,7.282c-1.464,2.1-5.78,6.254-6.267,6.721     c-0.676,0.645-1.828,0.621-2.475-0.055c-0.667-0.697-0.642-1.808,0.055-2.475c1.251-1.197,4.735-4.644,5.814-6.192     C9.734,45.109,10.119,43.946,10.412,42.592z"/></g></g><g><path d="M66.307,18.539c-0.73-0.959-2.191-1.165-3.154-0.43c-0.042,0.032-4.331,3.277-6.359,4.371    c-0.064,0.034-0.268,0.114-0.762,0.114c-0.935,0-2.339-0.285-3.598-0.73c-0.752-0.55-1.634-0.855-2.555-0.886l-0.156-0.002    c-1.039,0-2.047,0.358-2.865,1.014c-2.319-0.346-3.716-0.752-3.964-0.929c-0.283-0.213-0.982-1.563-1.691-3.888l0.674-0.357    c0.611,0.226,1.311,0.162,1.87-0.168c1.04-0.615,1.386-1.963,0.771-3.005c-0.592-0.998-2-1.362-3.003-0.768    c-0.572,0.338-0.951,0.907-1.047,1.558l-0.045,0.03c-0.456-0.888-1.496-1.425-2.498-1.197c-1.209,0.272-1.973,1.479-1.702,2.688    c0.06,0.267,0.15,0.645,0.266,1.092c-0.505,0.361-0.708,0.953-0.55,1.438c-0.935,1.704-2.644,6.756-0.408,19.023    c1.658,9.097,1.222,11.816-2.333,14.549c-0.219,0.168-0.26,0.482-0.092,0.701c0.099,0.128,0.247,0.195,0.397,0.195    c0.106,0,0.213-0.034,0.304-0.104c4.153-3.193,4.319-6.677,2.707-15.521C34.4,25.735,35.896,20.832,36.715,19.17    c0.092,0.02,0.188,0.032,0.288,0.032c0.038,0,0.077-0.011,0.115-0.014c0.908,2.771,1.939,4.617,3.072,5.469    c0.847,0.639,2.442,1.172,4.744,1.588l-1.834,8.171c-1.02,2.578-2.729,7.185-2.729,9.063c0,1.932,2.016,7.698,3.217,10.964    c0.397,1.077,1.435,1.801,2.581,1.801c0.327,0,0.646-0.057,0.95-0.169c0.689-0.254,1.239-0.761,1.547-1.428    s0.338-1.414,0.084-2.104c-1.462-3.978-2.833-8.304-2.878-9.025c0.015-0.328,0.298-1.432,1.036-3.555    c0.165,0.021,0.338,0.035,0.529,0.041c0.025,0,0.05-0.001,0.075-0.001l0.829,4.545c0.024,0.132,0.058,0.262,0.1,0.383l3.176,9.439    c0.377,1.12,1.425,1.873,2.606,1.873c0.296,0,0.591-0.049,0.876-0.145c1.436-0.483,2.212-2.045,1.73-3.482L53.721,43.4    l-1.505-8.254l1.854-8.227c2.046,0.336,3.662,0.164,4.857-0.478c2.396-1.292,6.904-4.717,6.948-4.75    C66.863,20.942,67.057,19.528,66.307,18.539z M41.217,15.137c0.137-0.09,0.221-0.241,0.226-0.405    c0.011-0.415,0.227-0.786,0.58-0.994c0.555-0.328,1.31-0.131,1.634,0.415c0.335,0.567,0.147,1.301-0.419,1.636    c-0.348,0.204-0.793,0.214-1.153,0.029c-0.146-0.076-0.319-0.075-0.463,0.003l-0.693,0.367l-0.193-0.734L41.217,15.137z     M65.27,20.896c-0.044,0.034-4.526,3.431-6.816,4.665c-1.072,0.577-2.619,0.691-4.67,0.291c-0.266-0.051-0.524,0.117-0.583,0.381    l-1.982,8.792c-0.015,0.066-0.016,0.134-0.004,0.2l1.542,8.424l3.125,9.285c0.307,0.914-0.188,1.909-1.101,2.217    c-0.911,0.302-1.917-0.209-2.216-1.1l-3.177-9.443c-0.027-0.078-0.048-0.159-0.063-0.24l-0.91-4.991    c-0.043-0.239-0.252-0.41-0.491-0.41c-0.016,0-0.033,0.001-0.049,0.002c-0.001,0.001-0.102,0.011-0.103,0.011    c-0.111,0.012-0.245,0.047-0.375,0.023c-0.23-0.007-0.467-0.039-0.706-0.095c-0.245-0.056-0.5,0.081-0.584,0.32    c-0.446,1.261-1.198,3.488-1.233,4.294c0.064,1.11,1.791,6.245,2.938,9.366c0.162,0.438,0.143,0.914-0.053,1.338    c-0.196,0.425-0.545,0.747-0.985,0.909c-0.867,0.322-1.92-0.157-2.246-1.039c-1.976-5.37-3.156-9.34-3.156-10.618    c0-1.251,0.969-4.42,2.682-8.769l1.973-8.758c0.03-0.135,0.004-0.275-0.073-0.39c-0.077-0.114-0.197-0.191-0.333-0.214    c-2.389-0.396-4.058-0.911-4.827-1.49c-1.004-0.755-1.991-2.614-2.852-5.367l-0.386-1.322c-0.16-0.596-0.281-1.103-0.356-1.434    c-0.15-0.672,0.274-1.342,0.947-1.494c0.66-0.152,1.345,0.289,1.491,0.944c0.001,0.006,0.04,0.166,0.042,0.172l0.458,1.748    c0.197,0.671,1.225,4.055,2.168,4.763c0.62,0.441,2.884,0.893,4.634,1.145c0.148,0.017,0.294-0.023,0.403-0.121    c0.664-0.591,1.51-0.915,2.382-0.915l0.123,0.002c0.74,0.023,1.448,0.276,2.048,0.73c0.04,0.03,0.085,0.055,0.133,0.072    c1.375,0.494,2.948,0.813,4.005,0.813c0.537,0,0.94-0.076,1.235-0.233c2.105-1.135,6.455-4.428,6.494-4.458    c0.532-0.406,1.345-0.292,1.75,0.24C65.927,19.693,65.82,20.479,65.27,20.896z"/><path d="M51.276,20.258c2.619,0,4.75-2.131,4.75-4.751c0-2.619-2.131-4.75-4.75-4.75s-4.75,2.131-4.75,4.75    C46.526,18.127,48.657,20.258,51.276,20.258z M51.276,11.757c2.068,0,3.75,1.683,3.75,3.75c0,2.068-1.682,3.751-3.75,3.751    s-3.75-1.683-3.75-3.751C47.526,13.439,49.208,11.757,51.276,11.757z"/></g></g></svg>