<?xml version="1.0" encoding="utf-8"?>
<!-- Generator: Adobe Illustrator 24.0.1, SVG Export Plug-In . SVG Version: 6.00 Build 0)  -->
<svg version="1.1" id="Layer_1" xmlns="http://www.w3.org/2000/svg" xmlns:xlink="http://www.w3.org/1999/xlink" x="0px" y="0px"
	 viewBox="0 0 185.44 166.22" style="enable-background:new 0 0 185.44 166.22;" xml:space="preserve">
<g>
	<g>
		<g>
			<path d="M5.05,116.37c-0.2,0.09-0.41,0.13-0.62,0.13c-0.17,0-0.34-0.03-0.5-0.08c-0.39,1-0.77,2-1.16,2.99
				c-0.31,0.8,0.33,1.72,1.1,1.93c0.89,0.24,1.62-0.3,1.93-1.1c0.41-1.06,0.82-2.13,1.23-3.19c-0.19-0.43-0.38-0.86-0.57-1.3
				L5.05,116.37z"/>
			<path d="M5.05,116.37l1.42-0.61c-0.29-0.66-0.59-1.33-0.88-1.99c-0.01-0.03-0.02-0.07-0.04-0.1c-0.14-0.25-0.2-0.54-0.17-0.86
				l-0.06,0.03c-0.46,1.19-0.92,2.39-1.38,3.58c0.16,0.05,0.33,0.08,0.5,0.08C4.63,116.49,4.84,116.45,5.05,116.37z"/>
			<path d="M5.4,112.79l-0.03,0.01c-0.04,0.32,0.03,0.61,0.17,0.86C5.43,113.37,5.38,113.08,5.4,112.79z"/>
			<g>
				<path d="M46.46,52.38c0.55-0.67,0.46-1.66-0.21-2.21c-0.67-0.55-1.66-0.46-2.21,0.21c-0.98,1.18-2.44,1.87-4.1,1.93
					c-1.93,0.07-3.91-0.7-5.17-2.02c-0.6-0.63-1.6-0.65-2.22-0.05c-0.63,0.6-0.65,1.6-0.05,2.22c1.81,1.89,4.48,2.99,7.19,2.99
					c0.12,0,0.24,0,0.36-0.01C42.62,55.35,44.9,54.26,46.46,52.38z"/>
				<path d="M27.62,33.94c-3.42-0.07-3.35,5.95,0.24,5.84C30.44,39.7,31.38,34.02,27.62,33.94z"/>
				<path d="M51.5,39.78c2.58-0.08,3.52-5.76-0.24-5.84C47.85,33.87,47.91,39.89,51.5,39.78z"/>
				<path d="M71.02,78.93c-3.07-3.86-7.62-6.85-13.23-8.71c-0.19-0.48-0.61-0.86-1.14-0.97l-6.48-1.36
					c-0.18-0.04-0.36-0.04-0.54-0.01l-3.05-2.89c-0.11-0.11-0.24-0.19-0.38-0.26c8.21-2.34,15.35-9.01,18.98-18.11
					c6.69-0.01,8.93-4.66,9.47-6.16c1.23-3.38,0.46-7.02-1.84-8.66c-0.54-0.39-1.63-0.96-3.17-0.82C70,26.38,69.6,18.76,64.66,11.9
					c-4.39-6.1-11.23-9.92-20.31-11.38c-10.4-1.66-20,0.99-27.03,7.46C11.28,13.55,8,21.19,8.53,28.44
					c-0.01,0.85-0.01,1.68,0.02,2.49c-1.67-0.07-2.8,0.59-3.47,1.16c-2.23,1.93-2.63,6.01-0.94,9.49c1.73,3.57,4.99,5.43,8.89,5.14
					c4.04,9.83,10.43,15.87,19.05,18.02c-0.12,0.07-0.24,0.14-0.34,0.24l-3.05,2.89c-0.18-0.02-0.36-0.03-0.54,0.01l-6.48,1.36
					c-0.52,0.11-0.94,0.47-1.13,0.94c-7.72,2.74-13.62,7.97-17.15,15.26c-4.36,9-4.52,20.53-0.4,30.08
					c0.18,0.43,0.54,0.73,0.95,0.87c0.46-1.19,0.92-2.39,1.38-3.58l-0.03,0.01c-3.15-8.44-2.83-18.26,0.93-26.01
					c2.97-6.12,7.8-10.61,14.1-13.18l-0.14,3.72c-4.84,2.33-8.58,6.04-10.94,10.92c-3.35,6.9-3.65,15.66-0.87,23.23l-0.4,0.17
					l-0.05,0.02l-0.03,0.01l-2.48,1.07c-0.02,0.29,0.03,0.58,0.14,0.87c0.01,0.03,0.02,0.07,0.04,0.1c0.29,0.66,0.59,1.33,0.88,1.99
					c0.19,0.43,0.38,0.86,0.57,1.3c0.67,1.51,1.34,3.02,2,4.52c0.35,0.78,1.47,0.96,2.15,0.56c0.8-0.47,0.91-1.37,0.56-2.15
					c-0.62-1.4-1.24-2.8-1.86-4.2c1.16,0.45,2.32,0.9,3.48,1.34c0.8,0.31,1.72-0.33,1.93-1.1c0.24-0.89-0.3-1.63-1.1-1.93
					c-0.82-0.32-1.65-0.64-2.47-0.95c0.24-0.42,0.29-0.93,0.09-1.41c-3.04-7.06-2.95-15.52,0.22-22.07c1.79-3.7,4.51-6.62,7.98-8.65
					l-1.25,32.6c-0.03,0.8,0.55,1.5,1.34,1.61l2.22,0.33c1.14,15.73,4.37,44.57,4.55,45.87c0.05,0.37,0.23,0.7,0.49,0.94
					c-1.84,0.27-3.68,0.53-5.52,0.8c-0.85,0.12-1.3,1.19-1.1,1.93c0.25,0.9,1.09,1.22,1.93,1.1c3.38-0.49,6.76-0.98,10.13-1.47
					c0.9-0.13,1.24-1.18,1.1-1.93c-0.01-0.04-0.01-0.07-0.02-0.11l0.92-0.02c0.85-0.02,1.53-0.71,1.54-1.56
					c0-0.2,0.18-19.52-0.4-36.96h6.42c-0.52,15.86-0.41,36.73-0.41,36.95c0.01,0.85,0.69,1.55,1.54,1.56l0.92,0.02
					c-0.01,0.04-0.01,0.07-0.02,0.11c-0.14,0.76,0.2,1.8,1.1,1.93c3.38,0.49,6.76,0.98,10.13,1.47c0.85,0.12,1.69-0.2,1.93-1.1
					c0.21-0.75-0.25-1.81-1.1-1.93c-1.84-0.27-3.68-0.53-5.52-0.8c0.26-0.24,0.44-0.57,0.49-0.94c0.18-1.3,3.41-30.15,4.55-45.87
					l2.2-0.33c0.79-0.12,1.37-0.81,1.34-1.61l-0.09-2.43c8.88-2.23,15.29-9.43,15.95-18.34C75.76,87.88,74.21,82.94,71.02,78.93z
					 M58.28,80.87c4.4,2.31,7.88,6.06,7.5,11.24c-0.3,4.01-2.91,7.38-6.72,9.04L58.28,80.87z M48.04,70.71
					c-0.24,1.15-0.69,2.83-1.49,4.49c-0.34,0.71-0.71,1.35-1.11,1.92l-2.7-5.22c0.06-0.09,0.13-0.19,0.19-0.29l2.7-3.19L48.04,70.71
					z M39.16,80.59C39.16,80.59,39.16,80.59,39.16,80.59C39.16,80.59,39.16,80.59,39.16,80.59c-1.47,0-2.79-0.39-3.95-1.15L38.03,74
					c0.36,0.14,0.75,0.23,1.17,0.23c0.01,0,0.02,0,0.03,0c0.37,0,0.73-0.07,1.08-0.2l2.8,5.41C41.94,80.2,40.63,80.59,39.16,80.59z
					 M19.45,10.3c6.31-5.81,14.97-8.18,24.4-6.67c8.23,1.32,14.37,4.72,18.25,10.11c2.71,3.76,4.26,8.6,4.47,13.63
					c0.08,1.9-0.02,3.83-0.34,5.74c-0.12,0.71-0.3,1.58-0.53,2.51c-0.28,1.15-0.63,2.39-1.04,3.57h-1.23
					c-0.1-1.68-0.03-3.34,0.04-4.95c0.09-1.91,0.17-3.89-0.03-5.89c-0.09-0.85-0.85-1.47-1.69-1.4c-0.07,0.01-6.85,0.56-11.79,0.92
					c-0.24-1.42-0.84-3.86-3.31-4.02c-2.87-0.19-3.7,2.49-4.1,3.78c-0.05,0.17-0.12,0.38-0.18,0.56c-3.71-0.02-7.01-0.28-10.2-0.53
					c-6.15-0.48-11.47-0.9-16.87,0.71c-0.12,0.04-0.23,0.09-0.34,0.15c-0.4,0.23-0.69,0.63-0.77,1.1c-0.29,1.74-0.16,3.39-0.03,5.14
					c0,0.01,0,0.02,0,0.03c0.11,1.37,0.22,2.78,0.11,4.28l-1.26,0c-0.39-1.15-0.68-2.27-0.88-3.4c-0.39-2.12-0.5-4.25-0.48-6.63
					c0-0.2,0-0.4,0-0.6c0-0.05,0-0.09,0-0.14C11.19,22.05,14.17,15.16,19.45,10.3z M15.5,44.46c-0.24-0.62-0.83-1.01-1.47-1.01
					c-0.1,0-0.2,0.01-0.29,0.03c-4.3,0.82-6.17-2-6.78-3.25c-1.14-2.36-0.83-4.88,0.17-5.75c0.39-0.34,0.95-0.46,1.62-0.36
					c0.26,2.34,0.77,4.63,1.71,7.07c0.23,0.6,0.81,1,1.46,1.01l3.76,0.01c0,0,0,0,0,0c0.77,0,1.43-0.56,1.55-1.32
					c0.39-2.39,0.22-4.51,0.07-6.38c-0.1-1.23-0.18-2.34-0.12-3.39c4.54-1.12,9.29-0.74,14.74-0.32c3.26,0.26,6.96,0.55,11.03,0.55
					c1.74,0,2.28-1.74,2.6-2.77c0.45-1.45,0.64-1.59,0.88-1.57c0.25,0.27,0.42,1.36,0.48,1.78c0.11,0.73,0.37,2.45,1.99,2.34
					c3.63-0.26,8.89-0.68,11.51-0.89c0.04,1.27-0.02,2.55-0.08,3.89c-0.1,2.18-0.2,4.44,0.1,6.86c0.1,0.79,0.77,1.38,1.56,1.38h3.77
					c0.65,0,1.23-0.4,1.47-1.01c0.95-2.45,1.63-5.19,1.98-7.05c0.62-0.22,1.26-0.28,1.77,0.09c0.97,0.69,1.52,2.81,0.71,5.03
					c-0.49,1.35-2.2,4.45-7.47,4.05c-0.7-0.05-1.36,0.37-1.6,1.03c-3.88,10.78-13.08,18.03-22.89,18.03
					C28.22,62.51,20.07,56.44,15.5,44.46z M39.75,65.65c1.51,0,3.01-0.15,4.48-0.44l-2.38,2.81c-1.75-0.26-3.86-0.23-5.41-0.04
					l-2.37-2.81C35.87,65.49,37.76,65.65,39.75,65.65z M32.69,68.42l2.89,3.42c0.01,0.01,0.01,0.01,0.02,0.02l-2.72,5.25
					c-0.4-0.57-0.77-1.21-1.11-1.92c-0.79-1.66-1.24-3.34-1.49-4.49L32.69,68.42z M22.13,112.34l-0.15-0.02l0.06-1.65l0.15-3.84
					l1.05-27.37l0.13-3.39l0-0.12l0.15-3.88l1.96-0.41l0.17-0.04c0.03,0.23,0.1,0.46,0.23,0.67l5.73,8.96
					c0.29,0.45,0.79,0.72,1.32,0.72c0.02,0,0.05,0,0.07,0c0.11,0,0.21-0.02,0.31-0.05c1.22,0.84,2.63,1.45,4.27,1.68v22.45v3.14
					v5.43l-12.29-1.84L22.13,112.34z M51.74,128.58c-0.93,9.89-2.08,20.6-2.77,26.91c-0.19,1.75-0.35,3.16-0.46,4.12l-0.3-0.01
					l-3.1-0.06c0-0.13,0-0.28,0-0.42c-0.02-5.79-0.02-23.3,0.47-36.49c0.02-0.43-0.14-0.84-0.44-1.15c-0.3-0.31-0.7-0.48-1.13-0.48
					h-9.67c-0.43,0-0.84,0.17-1.13,0.48c-0.3,0.31-0.45,0.72-0.44,1.15c0.53,14.59,0.5,31,0.47,36.52c0,0.14,0,0.27,0,0.4l-3.1,0.06
					l-0.3,0.01c-0.11-0.96-0.27-2.38-0.46-4.13c-0.7-6.31-1.84-17.02-2.77-26.9c-0.43-4.52-0.81-8.87-1.08-12.55l13.4,2
					c0.08,0.01,0.16,0.02,0.23,0.02c0,0,0,0,0,0c0,0,0,0,0,0c0.08,0,0.15-0.01,0.23-0.02l13.43-2.01
					C52.55,119.7,52.17,124.05,51.74,128.58z M56.21,112.34l-3.17,0.47l-12.31,1.84v-5.43v-3.14V83.63
					c1.64-0.24,3.05-0.84,4.27-1.68c0.1,0.03,0.21,0.04,0.31,0.05c0.02,0,0.05,0,0.07,0c0.53,0,1.03-0.27,1.32-0.72l5.73-8.96
					c0.13-0.21,0.21-0.44,0.23-0.67l1.01,0.21l1.12,0.23l0.28,7.4l0.86,22.58l0.18,4.72l0.16,4.16c-0.01,0.25-0.03,0.51-0.04,0.77
					c0.02,0,0.05,0.01,0.07,0.01l0.02,0.59L56.21,112.34z M72.26,92.6c-0.55,7.31-5.7,13.27-12.94,15.35l-0.13-3.47
					c5.47-1.89,9.31-6.51,9.73-12.13c0.38-5.13-2.36-11.43-10.77-15.06l-0.14-3.66c4.47,1.67,8.08,4.15,10.55,7.25
					C71.26,84.28,72.57,88.44,72.26,92.6z"/>
			</g>
		</g>
		<polygon points="39.55,72.36 41.97,82.01 36.35,82.01 38.78,72.36 		"/>
	</g>
	<g>
		<path d="M183.21,52.53c-1.03,0.65-2.06,1.29-3.09,1.94c0.35-1.53,0.7-3.06,1.06-4.6c0.43-1.89-2.46-2.69-2.9-0.8
			c-0.36,1.57-0.72,3.15-1.09,4.72c-0.63-1.01-1.26-2.01-1.89-3.02c-1.03-1.64-3.63-0.13-2.6,1.52c0.75,1.2,1.51,2.41,2.26,3.61
			l-0.02,0c-0.83-0.07-1.56,0.54-1.63,1.37c-0.59,6.67-3.97,10.44-6.7,12.42c-1.77,1.29-3.81,2.21-5.97,2.75
			c-0.02-0.46-0.25-0.88-0.63-1.16c-1.76-1.25-5.86-1.56-9.91-1.78c-0.49-0.03-0.91-0.05-1.22-0.07c-0.45-0.04-0.88,0.13-1.19,0.45
			c-0.01,0.01-0.01,0.01-0.02,0.02l-0.62-0.1l0.3-2.58c0.05-0.44-0.1-0.88-0.4-1.21c-0.31-0.32-0.74-0.49-1.18-0.47
			c-0.23,0.01-5.21,0.36-8.06,4.28c-1.08-0.03-2.19-0.04-3.29-0.03c-0.91,0.01-1.8,0.03-2.66,0.05c-2.85-3.94-7.86-4.3-8.08-4.31
			c-0.44-0.03-0.88,0.14-1.18,0.47c-0.31,0.32-0.45,0.76-0.4,1.21l0.3,2.58l-0.62,0.1c-0.01-0.01-0.01-0.01-0.02-0.02
			c-0.31-0.32-0.75-0.49-1.19-0.45c-0.31,0.02-0.73,0.05-1.22,0.07c-4.05,0.22-8.15,0.53-9.91,1.78c-0.39,0.28-0.62,0.72-0.63,1.18
			c-5.2,2.81-9.5,9.22-9.44,12.73c0.01,0.74,0.19,1.39,0.51,1.96c-0.67,2.23-0.93,4.57-0.76,6.9c0.65,8.72,6.89,15.76,15.57,17.98
			l0.04,6.87c0,0.65,0.42,1.22,1.04,1.42l3.26,1.06c0.97,15.9,2.86,38.95,3.02,40.12c0.05,0.38,0.24,0.71,0.51,0.94
			c-1.94,0.28-3.87,0.56-5.81,0.84c-0.81,0.12-1.25,1.13-1.05,1.85c0.24,0.86,1.04,1.17,1.85,1.05c3.32-0.48,6.65-0.97,9.97-1.45
			c0.88-0.13,1.15-1.12,1.05-1.85c-0.01-0.06-0.02-0.12-0.03-0.18l0.96-0.02c0.81-0.02,1.47-0.68,1.47-1.49
			c0-0.21,0.12-20.77-0.4-36.38h8.32c-0.58,17.17-0.4,36.19-0.4,36.38c0.01,0.81,0.66,1.47,1.47,1.49l0.96,0.02
			c-0.01,0.06-0.02,0.12-0.03,0.18c-0.1,0.73,0.17,1.72,1.05,1.85c3.32,0.48,6.65,0.97,9.97,1.45c0.81,0.12,1.61-0.19,1.85-1.05
			c0.2-0.71-0.24-1.73-1.05-1.85c-1.94-0.28-3.87-0.56-5.81-0.84c0.27-0.23,0.45-0.56,0.51-0.94c0.16-1.18,2.05-24.23,3.02-40.11
			l3.28-1.07c0.62-0.2,1.03-0.77,1.04-1.42l0.2-36.89c0.42,0.02,0.84,0.03,1.27,0.03c5.71,0,11.31-1.78,15.76-5.01
			c6.02-4.37,9.72-11.11,10.41-18.97c0.03-0.4-0.09-0.79-0.35-1.1c-0.03-0.03-0.06-0.06-0.09-0.09c0.93-0.58,1.87-1.17,2.8-1.75
			C186.37,54.1,184.86,51.49,183.21,52.53z M157.19,73.29c-0.52,0.66-1.36,1.03-2.22,1.15c-0.27,0.04-0.54,0.05-0.81,0.04
			c-0.74-0.03-1.52-0.25-2.19-0.7c-0.09-0.06-0.17-0.12-0.25-0.19c-0.29-0.23-0.55-0.52-0.77-0.86c-0.04-0.07-0.09-0.13-0.13-0.2
			c0.14,0.01,0.29,0.02,0.44,0.03c0.59,0.04,1.27,0.08,1.97,0.15c0.58,0.05,1.18,0.11,1.75,0.19c0.09,0.01,0.18,0.02,0.26,0.03
			C155.96,73.03,156.64,73.15,157.19,73.29z M135.84,113.04c-0.39,0-0.79,0-1.2,0c-0.35,0-0.68-0.01-1.02-0.01l1.03-2.9h0.15
			L135.84,113.04z M125.51,89.73c-0.82-0.1-1.57,0.49-1.67,1.31c-0.09,0.77,0.41,1.46,1.15,1.64c-0.19,0.04-0.37,0.07-0.55,0.06
			c-0.97-0.05-2.05-0.86-3.03-2.68c-1.02-1.88-1.94-4.83-2.54-9.13c-0.01-0.1-0.03-0.2-0.04-0.31c-0.16-1.2-0.3-2.51-0.41-3.92
			c0.24-0.12,0.48-0.26,0.71-0.41c0.61-0.41,1.17-0.92,1.64-1.54c0.4-0.52,0.73-1.13,0.97-1.81l1-0.16l0.49-0.08
			c0.14,0.3,0.32,0.64,0.54,1c0.3,0.48,0.68,0.99,1.16,1.51c1.4,1.49,3.95,3.25,8.3,3.58v3.29v1.04c-2.5-0.03-5.08-0.25-7.66-0.65
			c-0.82-0.13-1.59,0.43-1.72,1.25c-0.13,0.82,0.43,1.59,1.25,1.72c1.3,0.2,2.78,0.39,4.37,0.52c-0.37,1.59-0.91,2.95-1.53,4.01
			C127.13,89.91,126.32,89.83,125.51,89.73z M114.52,83.02l0.1,19.02c-3.49-1.7-5.86-4.91-6.14-8.7
			C108.14,88.77,110.85,85.33,114.52,83.02z M131.84,86.1c0.45,0.02,0.92,0.03,1.38,0.04v4.02c-0.91,0.01-1.81,0-2.72-0.04
			C131.07,88.94,131.52,87.59,131.84,86.1z M144.13,68.92l-0.15,1.28l0,0.01c-0.1,0.15-0.17,0.32-0.21,0.51
			c-0.01,0.02-0.27,1.16-1.36,2.36c-0.78,0.85-1.99,1.74-3.83,2.27c0.24-0.89,0.52-1.75,0.83-2.45c0.11-0.25,0.23-0.49,0.35-0.7l0,0
			c0.54-0.95,1.28-1.66,2.06-2.18C142.6,69.48,143.43,69.14,144.13,68.92z M134.47,72.8c0.6,0,1.18,0,1.75,0
			c-0.34,0.97-0.62,2.02-0.86,3.02c-0.21,0.01-0.42,0.01-0.64,0.01c-0.22,0-0.43-0.01-0.64-0.01c-0.24-1-0.52-2.05-0.86-3.01
			C133.64,72.81,134.05,72.81,134.47,72.8z M127.75,70.09c0.74,0.51,1.43,1.19,1.94,2.1l0,0c0.13,0.22,0.25,0.48,0.37,0.75
			c0.3,0.7,0.57,1.53,0.81,2.41c-1.77-0.51-2.95-1.35-3.74-2.17c-1.13-1.19-1.43-2.36-1.46-2.47c-0.03-0.13-0.08-0.25-0.14-0.37
			c-0.02-0.04-0.04-0.08-0.07-0.12l-0.15-1.29C126.06,69.15,126.93,69.52,127.75,70.09z M113.15,73.1c0.41-0.07,0.85-0.14,1.31-0.2
			c1.43-0.18,3.02-0.29,4.16-0.36c-0.24,0.43-0.56,0.78-0.9,1.06c-0.01,0.01-0.03,0.02-0.04,0.03c-0.07,0.05-0.14,0.11-0.21,0.15
			c-0.48,0.32-1.01,0.52-1.55,0.62c-0.22,0.04-0.44,0.07-0.65,0.08c-0.26,0.01-0.54-0.01-0.81-0.04c-0.78-0.11-1.55-0.44-2.07-0.99
			c-0.05-0.05-0.1-0.1-0.14-0.15C112.53,73.22,112.83,73.16,113.15,73.1z M109.58,74.71c0.04,0.07,0.09,0.13,0.14,0.2
			c0.61,0.88,1.48,1.57,2.51,2.02c0.63,0.27,1.33,0.45,2.07,0.53c-0.87,1.39-1.95,2.85-3.12,4.2c-1.12,0.88-2.05,1.83-2.82,2.81
			c-1.04,0.87-2.09,1.56-3.09,1.96c-0.78,0.31-1.47,0.41-2.08,0.32c-0.22-0.03-0.42-0.09-0.61-0.18c-0.6-0.27-0.87-0.69-0.88-1.41
			c-0.03-1.83,1.6-4.63,3.78-7.01C106.73,76.77,108.17,75.54,109.58,74.71z M102.11,93.82c-0.12-1.63,0.01-3.26,0.38-4.84
			c1.1,0.26,2.32,0.13,3.63-0.39c-0.57,1.69-0.75,3.39-0.64,4.98c0.4,5.37,4,9.82,9.16,11.76l0.02,3.57
			C107.64,106.79,102.64,100.97,102.11,93.82z M118.82,118.16l-1.1-0.36l-0.03-5.21l-0.05-9.52l-0.09-16.65
			c0.27,1.03,0.57,1.94,0.88,2.75c0.87,2.25,1.87,3.68,2.85,4.57c1.09,0.98,2.17,1.3,3.05,1.34c0.07,0,0.14,0,0.2,0
			c1.46,0,2.86-0.75,4.06-2.05c1.36,0.09,2.71,0.14,4.06,0.14c0.19,0,0.38,0,0.57-0.01v4.08c-3.13,0.09-5.95-0.06-7.64-0.34
			c-0.82-0.14-1.59,0.41-1.73,1.23c-0.14,0.82,0.41,1.59,1.23,1.73c1.6,0.27,3.83,0.42,6.31,0.42c0.6,0,1.21-0.01,1.84-0.03v4.91
			l-0.7,1.96l-1.07,3.01l-0.99,2.8l-1.05,2.95l-1.83,5.14l-5.7-1.86L118.82,118.16z M127.95,159.71l-2.86,0.06l-0.21,0
			c-0.08-0.88-0.19-2.16-0.32-3.74c-0.51-6.16-1.35-16.91-2.03-26.82c-0.16-2.35-0.31-4.65-0.45-6.83l5.43,1.77
			c0.44,12.48,0.45,28.49,0.43,34.55C127.95,159.08,127.95,159.42,127.95,159.71z M130.5,121.81l2.06-5.8
			c0.92,0.03,1.65,0.03,2.06,0.04c0.15,0,0.32,0,0.49,0c0.53,0,1.14,0,1.79-0.02l2.05,5.77H130.5z M146.9,129.22
			c-0.68,9.88-1.52,20.59-2.03,26.76c-0.13,1.6-0.24,2.9-0.32,3.8l-0.21,0l-2.86-0.06c0-0.28,0-0.6-0.01-0.95
			c-0.03-5.76-0.04-20.88,0.44-34.59l5.44-1.77C147.21,124.58,147.06,126.88,146.9,129.22z M151.73,117.8l-1.13,0.37l-3.06,1
			l-5.68,1.85l-1.81-5.1l-1.05-2.96l-1.01-2.83l-1.07-3.01l-0.7-1.96v-5.05c2.9-0.21,5.82-0.6,8.24-1.2c0.81-0.2,1.3-1.02,1.1-1.82
			c-0.2-0.81-1.02-1.3-1.82-1.1c-2.25,0.56-4.9,0.91-7.51,1.1v-4.04c2.65-0.16,5.35-0.48,8.14-0.98c0.82-0.15,1.36-0.93,1.21-1.75
			c-0.15-0.82-0.93-1.36-1.75-1.21c-2.61,0.47-5.13,0.78-7.61,0.93V86.1c2.67-0.12,5.46-0.46,8.24-1.15c0.81-0.2,1.3-1.01,1.1-1.82
			c-0.2-0.81-1.02-1.3-1.82-1.1c-2.3,0.57-4.84,0.92-7.51,1.05v-1v-3.29c5.31-0.41,8.24-3,9.61-5.3c0.16-0.26,0.3-0.53,0.41-0.78
			l0.47,0.08l1,0.16c0.46,1.26,1.2,2.25,2.1,2.97l-0.84,3.62c-0.09,0.39-0.02,0.8,0.19,1.14c0.21,0.34,0.55,0.58,0.94,0.67
			c0.08,0.02,0.16,0.03,0.24,0.05c0.52,0.12,1.05,0.21,1.58,0.3L151.73,117.8z M170.19,74.6c-3.94,2.86-8.91,4.44-13.99,4.44
			c-0.42,0-0.84-0.01-1.25-0.04l0.01-1.53c1.59-0.12,2.98-0.73,4-1.68c3.41-0.44,6.69-1.69,9.43-3.68c3.03-2.2,6.72-6.22,7.75-13.1
			l1.31,0.12c0.17,0.06,0.36,0.07,0.55,0.05l1.19,0.1C178.28,65.62,175.11,71.02,170.19,74.6z"/>
		<path d="M144.08,48.91c-0.26-0.15-0.54-0.28-0.81-0.4c-0.64-0.26-1.31-0.44-1.97-0.59c-0.29-0.06-0.58-0.12-0.87-0.18
			c-0.34-0.07-0.67-0.14-0.99-0.21c-0.82-0.19-1.55-0.43-1.99-0.83c-0.61-0.56-1.56-0.53-2.12,0.08c-0.07,0.08-0.14,0.16-0.19,0.25
			c-0.05-0.09-0.11-0.17-0.19-0.25c-0.56-0.61-1.51-0.65-2.12-0.08c-0.45,0.42-1.2,0.65-2.04,0.85c-0.3,0.07-0.62,0.13-0.94,0.2
			c-0.31,0.06-0.61,0.12-0.92,0.19c-0.67,0.15-1.34,0.33-1.98,0.6c-0.26,0.11-0.51,0.23-0.76,0.37c-2.89,1.66-3.04,3.75-3.05,5.8
			c0,0.11,0,0.23,0,0.34c0,0.51,0.26,0.96,0.64,1.23c0.24,0.17,0.54,0.27,0.86,0.27c0.83,0,1.5-0.67,1.5-1.5
			c0-1.98,0-2.64,1.54-3.53c0.39-0.22,0.86-0.38,1.37-0.52c0.44-0.11,0.9-0.21,1.38-0.31c1.57-0.32,3.19-0.64,4.43-1.78
			c0.11-0.1,0.2-0.22,0.27-0.35c0.07,0.13,0.16,0.25,0.27,0.35c1.23,1.14,2.86,1.47,4.43,1.78c0.46,0.09,0.91,0.18,1.33,0.29
			c0.53,0.14,1.02,0.3,1.43,0.53c1.54,0.89,1.54,1.55,1.54,3.53c0,0.83,0.67,1.5,1.5,1.5c0.31,0,0.59-0.09,0.83-0.25
			c0.41-0.27,0.67-0.73,0.67-1.25c0-0.09,0-0.19,0-0.28C147.13,52.7,147,50.59,144.08,48.91z"/>
		<path d="M141.82,51.36c-0.19-0.15-0.4-0.25-0.62-0.3c-0.54-0.13-1.12,0.04-1.5,0.5c-1.07,1.3-2.63,2.02-4.39,2.05
			c-1.84,0.02-3.59-0.74-4.77-2.09c-0.39-0.44-0.98-0.6-1.52-0.46c-0.22,0.06-0.42,0.16-0.6,0.32c-0.45,0.4-0.61,1-0.45,1.55
			c0.06,0.21,0.16,0.4,0.31,0.57c1.74,1.99,4.26,3.12,6.94,3.12c0.04,0,0.09,0,0.13,0c2.61-0.04,5.04-1.18,6.66-3.14
			c0.13-0.15,0.21-0.32,0.27-0.5C142.47,52.41,142.3,51.76,141.82,51.36z"/>
		<path d="M125.4,40.63c0.29-0.47,0.47-1.03,0.53-1.61c0.15-1.47-0.52-3-2.44-3.04c-0.17,0-0.33,0.01-0.49,0.04
			c-0.57,0.1-1.01,0.38-1.34,0.78c-1.31,1.61-0.63,5.02,2.06,4.93C124.43,41.71,125.01,41.26,125.4,40.63z"/>
		<path d="M148.61,36.74c-0.33-0.37-0.78-0.63-1.39-0.73c-0.14-0.02-0.28-0.04-0.43-0.04c-1.73-0.04-2.55,1.51-2.46,3.01
			c0.03,0.58,0.2,1.16,0.51,1.63c0.44,0.68,1.17,1.14,2.18,1.11C148.99,41.67,149.98,38.3,148.61,36.74z"/>
		<path d="M169.09,33.14c-0.63-0.55-1.74-1.18-3.45-1.05c0.24-3.61,0.02-7.93-1.46-12.1c-1.88-5.27-5.34-9.18-10.31-11.66
			c0.32-1.15,0.43-2.45,0.47-3.14c0.04-0.77-0.51-1.46-1.28-1.57c-0.25-0.04-5.72-0.84-9.67,0.91c-1.73-1.5-5.98-4.53-12.1-4.53
			c-0.7,0-1.3,0.48-1.46,1.15l-0.53,2.22c-7.98,0.97-14.45,4.07-18.76,9.01c-4.18,4.78-6.26,11.11-6.03,18.31
			c0.01,0.46,0.04,0.92,0.08,1.4c-1.66-0.11-2.74,0.49-3.36,1.01c-1.91,1.61-2.34,4.92-1.07,8.25c1.12,2.93,3.64,5.98,7.55,6.81
			c-0.79,2.28-1.88,4.08-3.31,5.67c-0.35,0.38-0.47,0.92-0.33,1.42c0.14,0.5,0.53,0.89,1.03,1.03c0.04,0.01,0.08,0.02,0.12,0.03
			c0.01,0,0.01,0.01,0.02,0.01c2.24,0.65,4.29,0.62,5.8,0.42c-0.28,1.32-0.74,2.98-1.47,4.26c-0.25,0.44-0.26,0.99-0.03,1.44
			c0.21,0.4,0.59,0.68,1.02,0.77c0.1,0.03,0.21,0.06,0.31,0.07c0.6,0.05,1.19,0.08,1.76,0.08c2.5,0,4.69-0.52,6.66-1.48
			c3.89,3.25,8.88,5.29,16.15,5.29c5.55,0,10.6-1.88,15.02-5.53c2.09,1.12,4.43,1.72,7.13,1.72c0.57,0,1.15-0.03,1.76-0.08
			c0.51-0.05,0.96-0.35,1.2-0.8c0.24-0.45,0.23-1-0.03-1.44c-0.74-1.3-1.21-3-1.48-4.32c1.52,0.22,3.65,0.27,5.96-0.4
			c0.5-0.14,0.88-0.53,1.03-1.03c0.14-0.5,0.02-1.03-0.33-1.42c-1.42-1.58-2.51-3.38-3.3-5.65c3.77-0.79,6.3-3.66,7.5-6.48
			C171.36,38.3,171.04,34.85,169.09,33.14z M102.96,40.27c-0.78-2.04-0.69-4.13,0.19-4.88c0.39-0.33,1-0.41,1.77-0.25
			c0.51,3.55,1.41,7.09,2.22,9.69C105.04,43.94,103.65,42.07,102.96,40.27z M110.3,50.17c0.64,1.09,1.28,2.15,1.93,3.18
			c-0.44,0.14-1.99,0.58-4,0.44c0.78-1.15,1.43-2.41,1.97-3.78C110.23,50.06,110.26,50.11,110.3,50.17z M113.16,60.3
			c0.53-1.49,0.85-3,1.03-4.05c0.04,0.06,0.08,0.11,0.12,0.17c0.81,1.11,1.66,2.16,2.56,3.13C115.7,60,114.47,60.24,113.16,60.3z
			 M152.84,59.44c1.04-1.07,2.04-2.24,2.99-3.52c0.16,1.05,0.49,2.74,1.09,4.42C155.47,60.27,154.12,59.98,152.84,59.44z
			 M150.21,57.89c-0.36,0.36-0.73,0.7-1.11,1.02c-0.4,0.35-0.8,0.68-1.21,0.99c-3.7,2.83-7.86,4.26-12.45,4.26
			c-5.89,0-10.09-1.5-13.43-4.01c-0.03-0.02-0.06-0.05-0.09-0.07c-0.38-0.29-0.76-0.6-1.12-0.91c-0.38-0.33-0.75-0.68-1.1-1.04
			c-0.03-0.03-0.05-0.06-0.08-0.08c-3.02-3.06-5.37-7.05-7.93-11.47c2.06-2.59,2.73-7.04,3.28-10.74c0.04-0.27,0.08-0.54,0.12-0.8
			c1.48-0.12,2.9-0.29,4.29-0.48c0.03,0,0.06-0.01,0.09-0.01c0.62-0.09,1.23-0.18,1.83-0.28c0.57-0.1,1.14-0.2,1.7-0.31
			c0.03-0.01,0.06-0.01,0.09-0.02c5.87-1.16,10.9-3.01,15.01-5.54c0.03,1.45,0.17,2.64,0.18,2.72c0.07,0.61,0.51,1.11,1.1,1.27
			c2.49,0.68,5.67,0.82,8.55,0.75c0.76-0.02,1.49-0.05,2.19-0.09c0.82-0.05,1.58-0.11,2.27-0.17c0.6-0.06,1.14-0.11,1.59-0.16
			c0.5,4.74,1.26,10.55,3.98,13.77C155.69,51.24,153.11,55.04,150.21,57.89z M157.73,53.34c-0.03-0.01-0.07-0.02-0.1-0.03
			c0.73-1.15,1.43-2.37,2.1-3.66c0.57,1.52,1.27,2.9,2.12,4.17C159.49,53.99,157.75,53.35,157.73,53.34z M162.24,35.32
			c-0.06,0.37-0.13,0.74-0.2,1.12c-0.29,1.44-0.67,2.88-1.09,4.26c-0.35,1.15-0.73,2.26-1.11,3.3c-0.01-0.01-0.01-0.02-0.02-0.03
			c-0.97-1.47-1.61-3.63-2.06-5.89c-0.46-2.34-0.71-4.78-0.91-6.69l-0.05-0.53c-0.04-0.41-0.25-0.78-0.57-1.03
			c-0.18-0.14-0.39-0.23-0.62-0.28c-0.1-0.02-0.2-0.04-0.31-0.04c-0.07,0-0.15,0.01-0.22,0.02c-0.02,0-0.7,0.1-1.77,0.22
			c-0.64,0.07-1.43,0.15-2.31,0.21c-2.92,0.22-6.84,0.34-9.85-0.25c-0.08-1.17-0.13-2.86,0.1-4.02c0.12-0.61-0.15-1.24-0.68-1.57
			c-0.53-0.33-1.21-0.3-1.71,0.08c-4.57,3.49-10.72,5.87-18.33,7.12c-0.03,0-0.06,0.01-0.09,0.01c-0.57,0.09-1.15,0.18-1.74,0.26
			c-0.62,0.08-1.24,0.16-1.88,0.23c-0.03,0-0.06,0.01-0.09,0.01c-1,0.11-2.02,0.21-3.06,0.28c-0.5,0.03-0.93,0.31-1.18,0.72
			c-0.06,0.09-0.1,0.19-0.14,0.29c-0.03,0.08-0.05,0.16-0.07,0.24c-0.11,0.63-0.21,1.3-0.31,2.01c-0.31,2.07-0.68,4.56-1.32,6.58
			c-0.21,0.65-0.44,1.26-0.71,1.78c-0.23-0.76-0.48-1.63-0.72-2.57c-0.04-0.14-0.07-0.28-0.11-0.42c-0.33-1.31-0.66-2.74-0.92-4.21
			c-0.36-1.99-0.63-4.05-0.69-5.97c-0.01-0.16,0-0.33-0.01-0.49c-0.23-13.53,8.39-22.44,23.15-23.85c0.64-0.06,1.17-0.52,1.32-1.15
			l0.49-2.05c5.9,0.46,9.53,4.28,9.56,4.32c0.49,0.53,1.28,0.64,1.9,0.26c1.95-1.2,5.18-1.31,7.26-1.18
			c-0.12,0.77-0.28,1.43-0.42,1.66c-0.31,0.36-0.42,0.84-0.32,1.31c0.11,0.47,0.43,0.86,0.88,1.05
			c9.91,4.21,11.56,13.63,11.36,20.24C162.63,32.51,162.44,34.1,162.24,35.32z M167.13,40.55c-0.4,0.94-1.71,3.47-4.46,4.46
			c1-2.77,2.02-6,2.54-9.22c0.03-0.21,0.07-0.42,0.1-0.64c0.79-0.17,1.41-0.1,1.8,0.24C167.9,36.1,168.13,38.22,167.13,40.55z"/>
	</g>
</g>
</svg>
