<?xml version="1.0" ?><svg data-name="Layer 1" id="Layer_1" viewBox="0 0 128 128" xmlns="http://www.w3.org/2000/svg"><title/><polygon points="49.17 99.5 32.69 76.75 45.4 40.48 72.47 32.99 49.17 99.5" style="fill:none;stroke:#000;stroke-linecap:round;stroke-linejoin:round;stroke-width:2px"/><polyline points="82.47 102.16 79.66 110.19 64.52 89.28" style="fill:none;stroke:#000;stroke-linecap:round;stroke-linejoin:round;stroke-width:2px"/><polyline points="78.09 50.55 102.96 43.68 97.7 58.69" style="fill:none;stroke:#000;stroke-linecap:round;stroke-linejoin:round;stroke-width:2px"/><path d="M69.32,42.18a8.89,8.89,0,0,1,2,.45c7.74,2.71,10.19,15.8,5.49,29.23S62.05,94,54.31,91.27a9,9,0,0,1-1.92-1" style="fill:none;stroke:#000;stroke-linecap:round;stroke-linejoin:round;stroke-width:2px"/><path d="M68.74,76.78c-4.15,5.76-9.23,11-14.55,8.38" style="fill:none;stroke:#000;stroke-linecap:round;stroke-linejoin:round;stroke-width:2px"/><path d="M67.39,47.51c6.12,2.15,7.9,12.45,3.84,24" style="fill:none;stroke:#000;stroke-linecap:round;stroke-linejoin:round;stroke-width:2px"/><polyline points="53.6 37.45 59.81 19.74 105.71 35.82 77.89 49.96" style="fill:none;stroke:#000;stroke-linecap:round;stroke-linejoin:round;stroke-width:2px"/><polyline points="37.5 83.4 31.3 101.1 77.2 117.19 64.52 89.28" style="fill:none;stroke:#000;stroke-linecap:round;stroke-linejoin:round;stroke-width:2px"/><line style="fill:none;stroke:#000;stroke-linecap:round;stroke-linejoin:round;stroke-width:2px" x1="53.6" x2="25.31" y1="37.45" y2="27.17"/><path d="M18.19,27.78l-2,1.94A54.27,54.27,0,0,0,2.85,67.86h0a8.09,8.09,0,0,0,5.4,7.27l28.63,10" style="fill:none;stroke:#000;stroke-linecap:round;stroke-linejoin:round;stroke-width:2px"/><path d="M26,54.25A4.89,4.89,0,1,1,23,48,4.89,4.89,0,0,1,26,54.25Z" style="fill:none;stroke:#000;stroke-linecap:round;stroke-linejoin:round;stroke-width:2px"/><line style="fill:none;stroke:#000;stroke-linecap:round;stroke-linejoin:round;stroke-width:2px" x1="25.41" x2="25.18" y1="10.85" y2="49.61"/><line style="fill:none;stroke:#000;stroke-linecap:round;stroke-linejoin:round;stroke-width:2px" x1="18.07" x2="18.29" y1="48.99" y2="10.81"/><line style="fill:none;stroke:#000;stroke-linecap:round;stroke-linejoin:round;stroke-width:2px" x1="77.77" x2="99.67" y1="88.4" y2="104.95"/><line style="fill:none;stroke:#000;stroke-linecap:round;stroke-linejoin:round;stroke-width:2px" x1="103.35" x2="106.29" y1="108.04" y2="110.26"/><line style="fill:none;stroke:#000;stroke-linecap:round;stroke-linejoin:round;stroke-width:2px" x1="81.52" x2="108.29" y1="81.45" y2="94.91"/><line style="fill:none;stroke:#000;stroke-linecap:round;stroke-linejoin:round;stroke-width:2px" x1="112.05" x2="117.83" y1="96.84" y2="99.74"/><line style="fill:none;stroke:#000;stroke-linecap:round;stroke-linejoin:round;stroke-width:2px" x1="86.34" x2="112.83" y1="66.14" y2="66.4"/><line style="fill:none;stroke:#000;stroke-linecap:round;stroke-linejoin:round;stroke-width:2px" x1="117.06" x2="123.85" y1="66.55" y2="66.61"/><line style="fill:none;stroke:#000;stroke-linecap:round;stroke-linejoin:round;stroke-width:2px" x1="85.07" x2="117.58" y1="73.94" y2="80.22"/><line style="fill:none;stroke:#000;stroke-linecap:round;stroke-linejoin:round;stroke-width:2px" x1="121.72" x2="125.21" y1="80.91" y2="81.58"/><line style="fill:none;stroke:#000;stroke-linecap:round;stroke-linejoin:round;stroke-width:2px" x1="57.25" x2="49.72" y1="59.95" y2="81.44"/><line style="fill:none;stroke:#000;stroke-linecap:round;stroke-linejoin:round;stroke-width:2px" x1="47.75" x2="45.29" y1="86.8" y2="93.82"/><path d="M12.72,65.44s-2.35,5.47,2.53,12.14" style="fill:none;stroke:#000;stroke-linecap:round;stroke-linejoin:round;stroke-width:2px"/></svg>