<?xml version="1.0" ?><!DOCTYPE svg  PUBLIC '-//W3C//DTD SVG 1.1//EN'  'http://www.w3.org/Graphics/SVG/1.1/DTD/svg11.dtd'><svg enable-background="new 0 0 128 128" id="Layer_1" version="1.1" viewBox="0 0 128 128" xml:space="preserve" xmlns="http://www.w3.org/2000/svg" xmlns:xlink="http://www.w3.org/1999/xlink"><g><g><g><path d="M74.2,42.9c1.2,1.2,2.3,2.6,3.2,4.2c0.4,0.8,0.8,1.6,1.1,2.4c0.3,0.9,0.5,1.6,0.7,2.6     c0.2,0.9,0.3,1.8,0.3,2.7c0,0.9,0,1.8-0.1,2.7c-0.1,0.9-0.2,1.8-0.4,2.7l-0.4,1.3c-0.1,0.4-0.3,0.9-0.5,1.3     c-0.3,0.8-0.7,1.7-1.2,2.4c-0.5,0.8-0.9,1.6-1.5,2.3c-0.6,0.7-1.2,1.4-1.8,2c-0.6,0.6-1.4,1.2-2.1,1.7c-2.9,2.1-6.1,3.7-9,5.3     l-0.2,0.1l-0.3,0c-2.3,0.3-4.5,1-6.6,2.1c-0.5,0.3-1,0.6-1.5,0.9c-0.5,0.3-1,0.7-1.4,1c-0.5,0.4-0.9,0.7-1.3,1.1     c-0.4,0.4-0.8,0.8-1.2,1.3c-0.4,0.4-0.7,0.9-1.1,1.4c-0.3,0.5-0.7,1-0.9,1.4c-0.6,1-1,2-1.1,3c0,0.3-0.1,0.5-0.1,0.8l0,0.4     c0,0.2,0,0.3,0,0.4c0.1,0.4,0.2,1,0.4,1.4c0.4,0.9,1.2,1.6,2.1,1.9l1.6,0.5L50,95.2c-1.6,1.5-2.8,3.4-3.9,5.4     c-1.1,2-1.9,4.2-2.9,6.3c-0.9,2.1-1.9,4.3-3.2,6.3c-1.3,2-2.9,3.8-4.9,5.2c-2,1.4-4.4,2.1-6.8,2.1c-2.4,0-4.8-0.7-7-1.6     c-1.1-0.5-2.1-1-3.2-1.6c-1-0.6-2-1.2-3-1.9c-1.9-1.4-3.7-3-5.4-4.7c-1.6-1.7-3.1-3.7-4.3-5.7c-0.3-0.5-0.6-1-0.9-1.6l-0.2-0.4     l-0.2-0.4l-0.4-0.8c-0.5-1.1-0.9-2.3-1.2-3.4c-1.4-4.6-1.6-9.7-0.3-14.5c0.6-2.4,1.6-4.7,3-6.8c0.4-0.5,0.8-1,1.2-1.5l0.3-0.3     L7,75l0.1-0.1l0.2-0.1l0.6-0.6C9,73.3,10,72.6,11,72c2.1-1.2,4.2-2.2,6-3.4c0.9-0.6,1.8-1.2,2.5-1.9c0.7-0.7,1.2-1.5,1.6-2.4     l1.9-4.1l1.1,4.4c0,0.1,0.1,0.3,0.3,0.5c0.2,0.2,0.5,0.3,0.8,0.4c0.2,0,0.3,0.1,0.5,0.1c0,0,0.3,0,0.3,0c0.1,0,0.1,0,0.2,0     c0.4,0,0.8-0.2,1.2-0.3c0.8-0.3,1.8-0.8,2.8-1.2c0.9-0.4,1.8-0.9,2.7-1.4c0.8-0.5,1.6-1.1,2.3-1.7c0.3-0.3,0.6-0.6,0.9-1     c0.2-0.3,0.5-0.7,0.6-1.1c0.8-1.6,0.8-3.5-0.1-4.8l-1-1.4l1.6-0.6c0.6-0.2,1.2-0.5,1.8-0.9c0.6-0.4,1.1-0.9,1.6-1.4     c1-1.1,1.9-2.3,2.8-3.6c0.5-0.6,0.9-1.3,1.4-1.9c0.3-0.3,0.5-0.6,0.8-1l0.4-0.5l0.4-0.4l0.4-0.4l0.5-0.4c0.3-0.3,0.6-0.6,1-0.8     c0.3-0.3,0.7-0.5,1-0.7c0.3-0.2,0.7-0.5,1.1-0.7c0.7-0.4,1.5-0.8,2.2-1.1c0.8-0.3,1.5-0.6,2.3-0.8c1.6-0.5,3.2-0.7,4.9-0.7     c0.8,0,1.6,0,2.4,0.1c0.8,0.1,1.6,0.3,2.4,0.4c1.6,0.4,3.1,1.1,4.4,1.9L69,39.2c-1.4-0.7-2.9-1.2-4.5-1.4     c-0.8-0.1-1.5-0.2-2.3-0.3c-0.8,0-1.5,0-2.3,0.1c-1.5,0.1-3,0.5-4.5,1c-0.7,0.3-1.4,0.5-2.1,0.9c-0.7,0.3-1.3,0.7-2,1.1     c-0.3,0.2-0.6,0.4-0.9,0.7c-0.3,0.2-0.6,0.5-0.9,0.7c-0.3,0.2-0.6,0.5-0.8,0.8l-0.4,0.4l-0.4,0.5L47.5,44l-0.3,0.4     c-0.2,0.3-0.4,0.6-0.7,0.9l-1.3,2c-0.9,1.3-1.8,2.7-2.9,4c-0.6,0.6-1.2,1.2-1.9,1.8c-0.7,0.5-1.5,1-2.4,1.3l0.6-1.9     c0.4,0.5,0.7,1.1,0.9,1.8c0.2,0.6,0.3,1.3,0.3,1.9c0,1.3-0.2,2.5-0.7,3.7c-0.3,0.6-0.5,1.1-0.9,1.7c-0.3,0.5-0.7,1-1.1,1.4     c-0.8,0.9-1.8,1.6-2.7,2.2c-1,0.6-2,1.1-2.9,1.6c-1,0.5-1.9,0.9-3,1.4c-0.6,0.2-1.2,0.4-1.9,0.5c-0.2,0-0.3,0-0.5,0.1     c-0.2,0-0.2,0-0.5,0c-0.4,0-0.8-0.1-1.1-0.2c-0.7-0.2-1.4-0.5-2-1c-0.6-0.5-1.1-1.3-1.3-2.2l3,0.3c-0.6,1.3-1.4,2.4-2.3,3.3     c-0.9,0.9-2,1.7-3,2.4c-2.1,1.3-4.2,2.3-6.2,3.4c-1,0.5-1.9,1.2-2.7,1.8l-0.7,0.6l-0.2,0.1l0,0l0,0c0,0,0.1-0.1,0,0L9,77.2     l-0.3,0.3c-0.4,0.4-0.7,0.8-1,1.2c-1.3,1.7-2.1,3.7-2.7,5.8c-0.6,2.1-0.9,4.3-0.9,6.5c0,2.2,0.3,4.4,0.8,6.6     c0.3,1.1,0.6,2.1,1,3.2l0.3,0.8l0.2,0.4l0.2,0.4c0.2,0.5,0.5,1,0.7,1.5c1,2,2.3,3.9,3.8,5.6c1.5,1.7,3.1,3.3,4.9,4.7     c0.9,0.7,1.8,1.4,2.8,2c0.9,0.6,1.9,1.2,3,1.7c2,1,4.3,1.7,6.5,1.7c2.2,0.1,4.5-0.6,6.3-1.9c1.9-1.3,3.3-3.1,4.6-5     c1.2-1.9,2.1-4,3-6.2c0.8-2.2,1.6-4.4,2.6-6.5c1-2.2,2.2-4.3,3.9-6.1l0.5,1.6c-1.5-0.3-2.8-1.5-3.5-2.7c-0.4-0.7-0.6-1.3-0.8-2.1     c0-0.2-0.1-0.4-0.1-0.5c0-0.2,0-0.4,0-0.6c0-0.4,0-0.7,0-1.1c0.1-1.4,0.7-2.7,1.3-3.9c0.3-0.6,0.7-1.2,1-1.7     c0.4-0.5,0.8-1.1,1.2-1.6c0.4-0.5,0.9-1,1.3-1.4c0.5-0.5,1-0.9,1.5-1.3c0.5-0.4,1-0.8,1.6-1.2c0.5-0.4,1.1-0.7,1.7-1     c2.3-1.2,4.9-2,7.5-2.3l-0.5,0.2c3.1-1.7,6.2-3.1,8.9-5c0.7-0.5,1.3-1,1.9-1.5c0.6-0.5,1.2-1.1,1.7-1.7c0.5-0.6,1-1.3,1.4-2     c0.4-0.7,0.8-1.4,1.2-2.2c0.2-0.4,0.3-0.8,0.5-1.1l0.4-1.2c0.2-0.8,0.4-1.6,0.5-2.4c0.1-0.8,0.2-1.6,0.2-2.5c0-0.8,0-1.7-0.1-2.5     c-0.1-0.8-0.3-1.7-0.5-2.5c-0.2-0.8-0.5-1.6-0.9-2.4c-0.7-1.5-1.6-3-2.7-4.3L74.2,42.9z" fill="#010101"/></g><g><path d="M78.9,50.7c0.7,0.3,1.5,0.8,2.2,1.3c0.7,0.5,1.3,1.1,1.8,1.8c1.1,1.3,1.9,2.9,2.4,4.6     c0.1,0.4,0.2,0.8,0.3,1.3l0.1,0.6l0,0.7c0,0.9,0,1.8-0.2,2.7c-0.3,1.8-1,3.5-1.9,5c-0.5,0.8-1,1.4-1.8,2.1     c-0.3,0.3-0.6,0.5-0.9,0.8c-0.4,0.3-0.7,0.6-1.1,0.8c-0.7,0.5-1.4,0.9-2.2,1.3c-0.7,0.4-1.5,0.8-2.2,1.2     c-0.7,0.4-1.4,0.8-2.1,1.2c-0.7,0.4-1.3,0.8-2,1.3c-0.6,0.5-1.2,1-1.6,1.7c-0.3,0.3-0.4,0.6-0.6,1c-0.2,0.3-0.3,0.7-0.4,1.1     L68.4,82l-0.5-0.5c-0.4-0.4-0.8-0.7-1.3-0.9c-0.5-0.2-1.1-0.3-1.6-0.3c-0.6,0-1.1,0.1-1.6,0.3c-0.6,0.2-1,0.4-1.5,0.8     c-1,0.6-1.9,1.4-2.7,2.3c-0.9,0.8-1.7,1.7-2.4,2.6c-0.7,0.9-1.4,1.9-1.9,2.8c-0.2,0.5-0.5,1-0.6,1.5c-0.1,0.3-0.2,0.6-0.2,0.8     c0,0.2-0.1,0.5-0.1,0.8c-0.1,1,0,2.1,0.4,3c0.3,0.9,1,1.6,1.7,2.1l1.7,1.1l-1.7,1.4l-0.7,0.6c-0.2,0.2-0.4,0.4-0.7,0.7     c-0.4,0.5-0.8,1-1.2,1.5c-0.4,0.5-0.7,1.1-1,1.7c-0.3,0.6-0.6,1.2-0.9,1.9c-0.6,1.3-1.1,2.6-1.7,3.9c-0.6,1.3-1.3,2.7-2.1,4     c-0.4,0.7-0.9,1.2-1.4,1.9c-0.3,0.3-0.5,0.5-0.8,0.8c-0.3,0.3-0.6,0.6-0.9,0.8c-0.6,0.5-1.2,0.9-1.9,1.3c-0.7,0.4-1.4,0.7-2.1,1     c-0.7,0.3-1.5,0.5-2.2,0.6c-0.7,0.1-1.5,0.3-2.2,0.3c-0.7,0-1.5,0-2.2-0.1c-0.7-0.1-1.5-0.3-2.2-0.5l0.1-0.3     c0.7,0.1,1.4,0.1,2.1,0c0.7,0,1.4-0.1,2.1-0.3c0.7-0.1,1.3-0.3,2-0.6c0.6-0.2,1.3-0.5,1.9-0.8c0.6-0.3,1.2-0.7,1.7-1.1     c0.5-0.4,1-0.8,1.5-1.3c0.3-0.2,0.4-0.5,0.6-0.7c0.2-0.2,0.4-0.6,0.7-0.8c0.1-0.2,0.3-0.5,0.5-0.8c0.2-0.3,0.3-0.6,0.5-0.9     c0.3-0.6,0.6-1.2,0.9-1.8c0.3-0.6,0.5-1.3,0.8-1.9c0.5-1.3,1-2.7,1.6-4c0.3-0.7,0.6-1.4,1-2c0.3-0.7,0.7-1.4,1.2-2     c0.4-0.7,1-1.3,1.5-1.9c0.3-0.3,0.6-0.6,0.9-0.8l1-0.7l0,2.4c-1.3-0.9-2.2-2.2-2.7-3.6c-0.2-0.7-0.4-1.4-0.4-2.1     c0-0.7,0-1.4,0.1-2.1c0.1-0.4,0.1-0.7,0.2-1c0.1-0.4,0.2-0.7,0.3-1c0.3-0.7,0.6-1.3,0.9-1.8c0.7-1.1,1.6-2.1,2.5-3     c0.9-0.9,1.9-1.7,2.9-2.4c1-0.7,2-1.5,3.1-2.1c0.6-0.3,1.2-0.6,1.8-0.7c0.6-0.2,1.3-0.3,1.9-0.3c1.3,0,2.7,0.4,3.6,1.4L67.8,81     c0.3-0.8,0.6-1.7,1-2.4c0.2-0.4,0.5-0.7,0.8-1.1c0.3-0.4,0.6-0.7,0.9-1c1.2-1.2,2.6-2.3,3.9-3.2l2-1.4c0.7-0.5,1.3-0.9,1.9-1.4     c0.3-0.2,0.6-0.5,0.9-0.7c0.3-0.2,0.6-0.5,0.9-0.8c0.5-0.5,1-1.1,1.4-1.7c0.8-1.2,1.4-2.6,1.8-4c0.2-0.7,0.3-1.5,0.3-2.2l0-0.5     l0-0.6c0-0.3-0.1-0.7-0.1-1.1c-0.3-1.5-0.8-3-1.5-4.3c-0.4-0.7-0.9-1.3-1.4-1.9c-0.5-0.6-1.1-1.2-1.7-1.7L78.9,50.7z" fill="#010101"/></g><g><path d="M93.6,18.5c0,0,0.1-0.3,0.2-0.7c0.2-0.4,0.4-1,0.9-1.6c0.5-0.6,1.1-1.3,1.9-1.8c0.8-0.6,1.8-1,2.8-1.3     c0.5-0.1,1-0.2,1.5-0.3c0.5-0.1,1,0,1.5,0c0.5,0,0.9,0.1,1.3,0.2c0.4,0.1,0.8,0.2,1.1,0.3c0.6,0.2,1.2,0.3,1.6,0.4     c0.4,0.1,0.7,0.1,0.7,0.1s-0.2,0.2-0.5,0.5c-0.4,0.3-1,0.6-1.7,0.7c-0.4,0.1-0.8,0.2-1.2,0.2c-0.4,0.1-0.8,0.1-1.2,0.2     c-0.4,0.1-0.8,0.1-1.2,0.2c-0.4,0.1-0.8,0.2-1.2,0.3c-1.6,0.4-3.1,1-4.3,1.6c-0.6,0.3-1.1,0.5-1.5,0.7     C93.9,18.4,93.6,18.5,93.6,18.5z" fill="#010101"/></g><g><path d="M106.5,12.7c0,0-0.1,0-0.4-0.2c-0.2-0.2-0.6-0.5-0.7-1c-0.2-0.5-0.3-1.3,0.1-2.1c0.4-0.8,1.2-1.4,2.1-1.7     c0.5-0.2,1-0.3,1.6-0.3c0.6,0,1.2,0.1,1.7,0.3c1.1,0.4,2.3,1.2,2.9,2.5c0.1,0.2,0.2,0.3,0.2,0.5c0,0.1,0.1,0.1,0.1,0.3l0.1,0.2     c0.1,0.4,0.1,0.7,0.1,1.1c0,0.7-0.1,1.4-0.3,2c-0.4,1.2-0.9,2.4-2,3.5c-1.1,1-2.4,1.5-3.5,1.8c-1.1,0.3-2.1,0.5-2.9,0.9     c-0.2,0.1-0.4,0.2-0.5,0.3c-0.1,0.1-0.2,0.1-0.3,0.2l-0.2,0.2c-0.3,0.3-0.7,0.6-1,0.9c-0.6,0.7-1.3,1.4-2,1.9     c-0.7,0.6-1.5,1-2.3,1.2c-0.7,0.2-1.5,0.2-2-0.1c-0.5-0.2-0.8-0.6-0.9-0.9c-0.1-0.3-0.1-0.4-0.1-0.4s0.1,0.1,0.2,0.3     c0.2,0.2,0.5,0.4,0.9,0.4c0.4,0,0.9-0.1,1.4-0.4c0.5-0.3,1-0.8,1.5-1.4c0.5-0.6,0.9-1.4,1.6-2.2c0.6-0.8,1.4-1.7,2.5-2.4     c1.1-0.6,2.2-1,3.2-1.3c1-0.3,1.9-0.7,2.4-1.2c0.5-0.4,1-1.3,1.3-2.2c0.1-0.4,0.2-0.8,0.3-1.2c0-0.2,0-0.4,0-0.5l-0.1-0.3     c0-0.1,0-0.2-0.1-0.2c-0.2-0.6-0.8-1.2-1.4-1.6c-0.3-0.2-0.7-0.3-1-0.4c-0.4-0.1-0.7-0.1-1.1-0.1c-0.7,0.1-1.2,0.3-1.6,0.7     c-0.3,0.4-0.5,0.9-0.5,1.3c0,0.4,0.1,0.8,0.3,1C106.4,12.6,106.5,12.7,106.5,12.7z" fill="#010101"/></g><g><path d="M100.8,13c0,0-0.2,0-0.5-0.1c-0.3-0.1-0.8-0.4-1-1c-0.1-0.3-0.2-0.6-0.3-0.8c-0.1-0.2-0.2-0.3-0.2-0.4     c-0.2-0.2-0.4-0.3-0.4-0.3c0,0-0.2-0.1-0.3-0.1c0,0-0.1,0-0.1,0l-0.1,0.1c0,0,0,0,0,0c0,0,0,0-0.1,0c-0.1,0-0.2,0.1-0.3,0.2     c-0.2,0.2-0.3,0.6-0.3,0.8c0,0.3,0.1,0.5,0.1,0.5s-0.2,0-0.5-0.1c-0.3-0.1-0.8-0.5-1-1.1c-0.1-0.3-0.1-0.7,0-1.1     c0-0.1,0-0.2,0.1-0.3l0.1-0.2l0-0.1c0.1-0.2,0.3-0.4,0.5-0.6c0.8-0.7,1.9-0.9,2.9-0.5c0.5,0.2,0.9,0.5,1.2,0.9     c0.3,0.4,0.5,0.8,0.6,1.2c0.1,0.4,0.1,0.9,0,1.2c-0.1,0.3-0.2,0.5-0.2,0.6c-0.2,0.3-0.2,0.6-0.2,0.9     C100.7,12.8,100.8,13,100.8,13z" fill="#010101"/></g><g><path d="M95,16.4c0,0-0.2,0.1-0.6-0.1c-0.4-0.1-0.9-0.5-1.3-1c-0.2-0.2-0.4-0.5-0.5-0.8c-0.2-0.2-0.3-0.4-0.5-0.5     c-0.1,0-0.3-0.1-0.3-0.1c0,0,0.2,0,0.2,0c0,0-0.2,0.1-0.4,0.3c-0.2,0.2-0.3,0.3-0.3,0.3c-0.1,0-0.1,0.1-0.1,0.2     c0,0.1,0,0.3,0.1,0.5c0.1,0.2,0.2,0.3,0.4,0.5c0.1,0.1,0.3,0.2,0.4,0.3c0.3,0.2,0.5,0.3,0.5,0.3s-0.2,0.2-0.5,0.3     c-0.2,0.1-0.4,0.2-0.7,0.2c-0.3,0-0.7,0-1-0.1c-0.4-0.2-0.8-0.4-1.1-0.8c-0.3-0.4-0.5-1-0.5-1.7c0.1-0.7,0.4-1.2,0.7-1.6     c0.3-0.3,0.6-0.8,1.2-1.1c0.3-0.2,0.7-0.3,1.1-0.3c0.4,0,0.8,0.1,1.1,0.2c0.7,0.3,1,0.7,1.3,1.2c0.2,0.4,0.4,0.9,0.4,1.2     c0.1,0.4,0.1,0.7,0.1,0.9c0,0.5,0,0.9,0.1,1.2C94.8,16.2,95,16.4,95,16.4z" fill="#010101"/></g><g><path d="M104.4,20.7c0,0,0.2,0.2,0.6,0.3c0.2,0.1,0.4,0.1,0.7,0.2c0.3,0.1,0.6,0.1,1,0.1c0.3,0,0.7,0.1,1.1,0.1     c0.4,0,0.7,0,1.3,0c0.6,0,1.5,0.2,2.2,1.1c0.8,1,0.5,2.3,0.1,3c-0.1,0.1-0.1,0.2-0.2,0.3l-0.1,0.1l-0.1,0.1l-0.2,0.2l-0.2,0.2     c-0.3,0.3-0.6,0.5-1,0.6c-0.7,0.3-1.5,0.4-2.2,0.2c-0.8-0.2-1.3-0.6-1.7-1.1c-0.4-0.5-0.6-1.1-0.6-1.7c0-0.5,0.1-0.6,0.1-0.7     c0-0.1-0.2-0.3-0.4-0.4c-0.4-0.2-0.7-0.3-0.7-0.3s0.1,0,0.2-0.1c0.1-0.1,0.3-0.1,0.5-0.2c0.2,0,0.6-0.1,1.1,0.2     c0.1,0,0.1,0.1,0.2,0.2c0,0.1,0,0,0.1,0.1c0.1,0.1,0.2,0.2,0.2,0.4c0.1,0.2,0.2,0.5,0.2,0.6c0.1,0.2,0.3,0.3,0.5,0.4     c0.2,0.1,0.4,0.1,0.6,0.1c0.2,0,0.4-0.1,0.6-0.2c0.1-0.1,0.2-0.1,0.3-0.2l0.1-0.1c0,0,0,0,0,0l0.1-0.1l0,0c-0.1,0.1,0,0,0,0l0,0     l0-0.1c0.1-0.1,0-0.1,0.1,0.2c0.1,0,0-0.1-0.4-0.2c-0.3-0.1-0.9-0.2-1.4-0.4c-0.5-0.2-0.9-0.4-1.2-0.6c-0.7-0.5-1.2-1-1.5-1.4     c-0.1-0.2-0.2-0.4-0.2-0.5C104.4,20.8,104.4,20.7,104.4,20.7z" fill="#010101"/></g><g><path d="M109.7,17.9c0,0,0.2,0.1,0.6,0.3c0.4,0.1,0.9,0.3,1.4,0.2c0.3,0,0.6,0,0.9-0.1c0.4-0.1,0.8-0.1,1.4-0.1     c0.6,0,1.5,0.3,2,1.1c0.6,0.7,0.7,1.6,0.5,2.4c-0.2,0.9-0.8,1.5-1.4,1.9c-0.6,0.4-1.4,0.5-2,0.4c-0.8-0.1-1.3-0.4-1.7-0.8     c-0.4-0.4-0.7-0.8-0.9-1.3c-0.1-0.2-0.1-0.4-0.1-0.7c0-0.2,0-0.4,0-0.4c0,0,0.1,0,0.1-0.1c0-0.1-0.1-0.1-0.2-0.1     c-0.2-0.1-0.4-0.1-0.5-0.2c-0.1-0.1-0.1-0.1-0.1-0.1s0.1,0,0.2,0c0.1,0,0.2-0.1,0.4-0.2c0.1,0,0.2-0.1,0.4-0.1     c0.2,0,0.6,0.2,0.7,0.4c0.1,0.2,0.2,0.4,0.3,0.4c0.1,0.1,0.2,0.2,0.3,0.2c0.2,0.1,0.4,0.2,0.6,0.3c0.2,0.1,0.5,0.1,0.6,0     c0.2,0,0.3-0.1,0.5-0.2c0.1-0.1,0.1-0.2,0.1-0.2c0,0,0-0.1,0-0.1c0.1,0,0.1-0.1-0.2-0.2c-0.2-0.1-0.6-0.2-1-0.3     c-0.5-0.1-0.9-0.2-1.3-0.5c-0.7-0.4-1.1-1-1.3-1.4C109.7,18.2,109.7,17.9,109.7,17.9z" fill="#010101"/></g><g><path d="M98.3,17.3c0.3,0.7,0.2,1.5-0.1,2.3c-0.3,0.7-0.7,1.4-1.2,2c-1,1.2-2,2.3-3,3.4l-3.1,3.3l-3.2,3.3     c-1.1,1.1-2.1,2.2-3.2,3.2l-3.3,3.1c-2.2,2.1-4.4,4.1-6.7,6.2c-4.4,4.1-9,8.1-13.3,12.2c-1.1,1-2.2,2.1-3.3,3.1     c-1.1,1-2.2,2.1-3.2,3.1l-3.2,3.2L48.4,69l-1.9,0c0,0.1,0.2,0.1,0.2,0.1c0.1,0,0.1,0,0,0c-0.1,0-0.4,0.1-0.6,0.3l-1.7,1.3     c-1.2,0.9-2.4,1.8-3.5,2.8c-1.2,0.9-2.3,1.9-3.3,2.9c-0.5,0.5-1.1,1-1.6,1.5c-0.5,0.5-1,1.1-1.5,1.6c-0.5,0.5-1,1.1-1.4,1.7     c-0.4,0.6-0.9,1.2-1.3,1.8c-0.4,0.6-0.8,1.2-1.2,1.9c-0.3,0.7-0.7,1.3-1,2c-0.4,0.7-0.8,1.4-1.4,2c-0.7,0.6-1.6,0.8-2.5,0.5     c-0.8-0.3-1.3-0.9-1.8-1.6c-0.4-0.7-0.7-1.4-1-2.1c0.3,0.7,0.7,1.3,1.2,1.9c0.5,0.6,1,1.1,1.7,1.2c0.3,0.1,0.6,0.1,1,0     c0.3-0.1,0.6-0.3,0.8-0.5c0.5-0.5,0.8-1.1,1-1.8c0.3-0.7,0.6-1.4,0.9-2.1c0.3-0.7,0.7-1.4,1-2.1c0.4-0.7,0.8-1.3,1.2-2     c0.4-0.6,0.9-1.3,1.4-1.9c1.9-2.5,4.1-4.6,6.3-6.7c1.1-1,2.3-2,3.4-3l0.9-0.7l0.4-0.4c0.1-0.1,0.3-0.2,0.5-0.4     c0.4-0.3,0.8-0.5,1.4-0.7c0.3-0.1,0.7-0.1,1.1-0.1c0.4,0.1,0.9,0.3,1.2,0.7l-1.9,0l3.1-3.4c1-1.1,2.1-2.2,3.2-3.3     c1.1-1.1,2.1-2.2,3.2-3.2c1.1-1.1,2.2-2.1,3.3-3.2c2.2-2.1,4.5-4.1,6.7-6.1c2.3-2,4.6-4,6.8-6l6.9-5.9l6.8-5.9     c2.3-2,4.5-4,6.7-6.1l3.3-3.1c0.5-0.5,1-1.1,1.4-1.7C98.3,18.8,98.5,18,98.3,17.3z" fill="#010101"/></g><g><path d="M96,18.2c0,0-0.3,0.2-0.9,0.6c-0.6,0.4-1.5,1-2.5,1.8c-2.1,1.6-4.9,4.3-8.3,7.4c-1.7,1.5-3.6,3.2-5.6,5     c-2,1.7-4.1,3.6-6.3,5.5c-2.2,1.9-4.4,3.8-6.8,5.8c-2.3,1.9-4.7,3.9-7,5.9c-2.4,2-4.8,3.9-7.1,5.8c-2.3,1.9-4.7,3.8-6.9,5.6     c-4.5,3.6-8.8,6.8-12.3,9.8c-1.7,1.5-3.3,2.9-4.5,4.3c-1.3,1.3-2.3,2.6-3.1,3.6c-0.8,1.1-1.4,1.9-1.8,2.5     c-0.4,0.6-0.6,0.9-0.6,0.9s0.2-0.4,0.5-1c0.3-0.7,0.8-1.6,1.5-2.8c0.7-1.2,1.6-2.6,2.8-4c1.2-1.5,2.6-3.1,4.2-4.8     c1.6-1.7,3.5-3.4,5.5-5.1c2-1.7,4.1-3.6,6.3-5.5c2.2-1.9,4.4-3.8,6.8-5.8c2.3-1.9,4.7-3.9,7-5.9c2.4-2,4.8-3.9,7.1-5.8     c2.3-1.9,4.7-3.8,6.9-5.6c2.2-1.8,4.4-3.5,6.5-5.2c2.1-1.6,4.1-3.2,5.9-4.6c1.8-1.4,3.5-2.7,5-3.8c1.5-1.1,2.9-2.1,4-2.8     c1.2-0.7,2.1-1.2,2.8-1.5C95.6,18.3,96,18.2,96,18.2z" fill="#010101"/></g><g><path d="M42.7,21.2c0,0,0.3-0.1,0.9-0.2c0.6-0.1,1.5-0.4,2.7-0.5c1.2-0.1,2.6-0.3,4.3-0.2c1.7,0,3.6,0.2,5.6,0.5     c2,0.3,4.2,0.8,6.5,1.4c2.3,0.6,4.7,1.2,7.1,1.9c2.4,0.7,5,1.4,7.5,2.2c2.6,0.8,5.2,1.5,7.8,2.3c2.6,0.8,5.2,1.6,7.7,2.4     c2.6,0.8,5,1.6,7.5,2.4c4.8,1.6,9.3,3.1,13.2,4.5c3.9,1.3,7,2.6,9.3,3.3c1.1,0.3,2,0.5,2.7,0.6c0.6,0.1,1,0.1,1,0.1s-0.3,0-1,0     c-0.6,0-1.6,0-2.8-0.2c-1.2-0.2-2.6-0.5-4.2-0.9c-1.6-0.4-3.4-0.8-5.4-1.4c-3.9-1-8.5-2.3-13.4-3.7c-2.4-0.7-5-1.4-7.5-2.2     c-2.6-0.8-5.2-1.5-7.8-2.3c-2.6-0.8-5.2-1.6-7.7-2.4c-2.6-0.8-5-1.6-7.5-2.4c-2.4-0.8-4.7-1.6-6.9-2.3C60,23.5,58,22.8,56,22.4     c-2-0.5-3.8-0.8-5.4-1c-1.6-0.2-3-0.3-4.2-0.3C44,21.1,42.7,21.2,42.7,21.2z" fill="#010101"/></g><g><path d="M118.5,40.2c-0.2,0.4-0.2,0.8-0.2,1.1c0,0.2,0,0.3,0.1,0.5c0,0.1,0,0.1,0.1,0.2l0.1,0.3     c0,0.2,0.1,0.5,0,0.9c-0.1,0.4-0.5,1-1.1,1.1c-0.5,0.2-0.8,0.1-1.1,0.1c-0.2,0-0.4,0-0.6,0c-1.5,0-3.1-0.3-4.5-0.8l-1.1-0.4     l0.1-0.8c0.1-0.6,0.3-1.3,0.7-1.8c0.4-0.5,0.8-1,1.3-1.3c0,0.6,0,1.2,0.1,1.7c0.1,0.5,0.1,1,0.2,1.4l-1-1.1     c1.6-0.1,3.1,0,4.6,0.4c0.2,0,0.4,0.1,0.6,0.1c0.1,0.1,0.2,0.1,0.1,0.1c-0.2,0.1-0.3,0.3-0.3,0.4c0,0.1,0.1-0.1,0.2-0.2l0.1-0.3     c0-0.1,0.1-0.3,0.2-0.4c0.1-0.2,0.3-0.4,0.4-0.6C117.6,40.4,118.1,40.2,118.5,40.2z" fill="#010101"/></g><g><path d="M44.5,21.5c0,0,1.1,0.2,2.9,0.5c1.9,0.3,4.5,0.8,7.7,1.5c1.6,0.3,3.3,0.7,5.1,1.1     c1.8,0.4,3.7,0.9,5.7,1.4c1.9,0.5,4,1,6,1.6c2,0.6,4.1,1.2,6.2,1.8c2.1,0.7,4.1,1.3,6.1,1.9c2,0.6,4,1.3,5.9,2     c1.9,0.7,3.7,1.3,5.5,2c1.7,0.6,3.4,1.3,4.9,1.9c3,1.2,5.5,2.3,7.2,3c1.7,0.8,2.7,1.2,2.7,1.2s-1.1-0.2-2.9-0.7     c-1.8-0.5-4.4-1.1-7.5-2c-1.6-0.4-3.2-0.9-5-1.4c-1.8-0.5-3.7-1-5.6-1.6c-1.9-0.6-3.9-1.1-6-1.8c-2-0.6-4.1-1.2-6.1-1.8     c-2.1-0.6-4.1-1.3-6.1-1.9c-2-0.6-4-1.3-5.9-1.9c-1.9-0.6-3.8-1.2-5.5-1.8c-1.8-0.6-3.4-1.1-4.9-1.6c-3.1-1-5.6-1.9-7.4-2.5     C45.5,21.9,44.5,21.5,44.5,21.5z" fill="#010101"/></g><g><path d="M48.4,72.9c0,0-0.2-0.1-0.2-0.4c0-0.3,0.2-0.9,0.9-1.1c0.2,0,0.4,0,0.6,0.1c0.2,0.1,0.4,0.2,0.5,0.3     c0.3,0.3,0.5,0.7,0.6,1.2c0,0.2,0,0.6,0,0.7c0,0.3-0.1,0.5-0.2,0.8c-0.2,0.5-0.5,1-0.9,1.3c-0.7,0.8-1.7,1.4-2.5,2     c-0.9,0.6-1.8,1.2-2.8,1.9c-0.9,0.7-1.9,1.3-2.8,2c-0.9,0.7-1.8,1.5-2.7,2.3c-0.8,0.8-1.6,1.7-2.2,2.6c-0.6,0.9-1.2,1.9-1.6,2.9     c-0.4,1-0.7,1.9-0.8,2.9c-0.1,0.9-0.1,1.8,0.2,2.4c0.3,0.7,0.8,1.1,1.4,1.3c0.6,0.2,1.1,0,1.5-0.3c0.4-0.3,0.5-0.7,0.6-1     c0-0.3,0-0.4,0-0.4c0,0,0.1,0.1,0.2,0.4c0.1,0.3,0.1,0.8-0.3,1.4c-0.2,0.3-0.4,0.5-0.8,0.7c-0.4,0.2-0.8,0.3-1.3,0.3     c-1,0-2-0.6-2.7-1.5c-0.7-1-0.9-2.2-0.9-3.4c0-1.2,0.2-2.4,0.6-3.7c0.4-1.2,1-2.4,1.7-3.5c0.7-1.1,1.6-2.1,2.5-3.1     c0.9-0.9,2-1.8,3-2.5c1-0.7,2.1-1.4,3.2-2c1-0.6,2.1-1.1,3-1.6c1-0.5,1.9-0.9,2.5-1.3c0.3-0.2,0.6-0.5,0.8-0.8     c0.1-0.1,0.2-0.3,0.2-0.4c0.1-0.2,0.1-0.3,0.1-0.4c0-0.6-0.2-1-0.6-1.1c-0.4,0-0.8,0.3-0.8,0.5C48.3,72.8,48.4,72.9,48.4,72.9z" fill="#010101"/></g><g><path d="M29.4,72.3c0,0-0.1,0.2-0.4,0.6c-0.3,0.4-0.8,0.9-1.4,1.4c-0.7,0.5-1.5,1-2.5,1.3c-0.5,0.2-1,0.3-1.6,0.4     c-0.6,0.1-1.1,0.1-1.7,0.1c-0.6,0-1.3-0.1-2-0.4c-0.8-0.3-1.5-1.1-1.6-2c-0.2-0.8,0-1.6,0.4-2.1c0.4-0.6,0.9-0.9,1.3-1.1     c0.5-0.2,0.9-0.3,1.3-0.3c0.2,0,0.4,0,0.5,0l0,0l0,0c0.1,0,0,0,0.1,0l0,0l0,0c0.1,0,0.2,0.1,0.2,0.1c0.1,0.1,0.2,0.2,0.2,0.2     c0.2,0.3,0,0.6-0.1,0.7c-0.1,0.1-0.2,0.1-0.2,0.1c0,0,0.1-0.1,0-0.2c0-0.1-0.1-0.2-0.2-0.3c0,0-0.1,0-0.1,0c0,0,0,0,0.1,0l0,0     l0,0c0,0-0.1,0,0.1,0l0,0l0,0c-0.1,0.1-0.2,0.1-0.3,0.2c-0.2,0.2-0.4,0.4-0.6,0.6c-0.2,0.2-0.3,0.5-0.3,0.7c0,0.2,0,0.4,0.1,0.5     c0.1,0,0.1,0,0.3,0.1c0.2,0,0.5,0.1,1,0.1c0.4,0,0.9,0,1.3,0c0.4,0,0.9-0.1,1.3-0.1c0.9-0.1,1.7-0.2,2.4-0.3     c0.7-0.1,1.4-0.2,1.8-0.3C29.2,72.4,29.4,72.3,29.4,72.3z" fill="#010101"/></g><g><path d="M21.5,86.1c0,1.2-0.1,2.4-0.2,3.6l-0.4,3.5c-0.1,1.2-0.3,2.3-0.4,3.5l-0.4,3.5l-0.6,7l-0.4,3.5     c-0.1,1.2-0.2,2.4-0.4,3.5l-2.8-0.6c0.6-2.1,1.3-4.2,2.1-6.2c0.4-1,0.8-2,1.2-3c0.4-1,0.9-2,1.4-3c0.5-1,1-2,1.5-2.9     c0.5-1,1.1-1.9,1.6-2.9c0.6-0.9,1.2-1.9,1.8-2.8c0.6-0.9,1.2-1.8,1.9-2.7l0.2,0.2l-0.8,0.6l0.6-0.8l0.5-0.7l-0.3,0.8l-1.3,3     c-0.4,1-0.8,2-1.3,3c-0.4,1-0.8,2-1.2,3c-0.4,1-0.8,2-1.2,3l-1.1,3c-0.4,1-0.7,2-1,3l-1,3.1c-0.3,1-0.6,2-0.9,3.1l-2.8-0.6     c0.1-1.2,0.3-2.3,0.4-3.5l0.4-3.5c0.4-2.3,0.7-4.7,1.1-7c0.2-1.2,0.5-2.3,0.7-3.5c0.3-1.2,0.6-2.3,0.9-3.5c0.3-1.1,0.7-2.3,1-3.4     C20.9,88.4,21.2,87.2,21.5,86.1z" fill="#010101"/></g><g><path d="M24.4,86.9c0,0,0.1-0.4,0.3-1.1c0.2-0.7,0.5-1.8,1.2-3c0.6-1.2,1.5-2.7,2.6-4.3c1.1-1.6,2.5-3.3,4.1-5     c0.8-0.9,1.6-1.8,2.5-2.7c0.9-0.9,1.8-1.9,2.8-2.9c0.9-1,2-1.9,3-2.9c1-1,2.1-2,3.2-3c2.2-2,4.5-4,6.8-6.1c2.4-2,4.8-4,7.2-6     c2.5-2,4.9-3.9,7.3-5.8c2.4-1.9,4.8-3.8,7.1-5.6c2.3-1.8,4.5-3.6,6.6-5.3c1.1-0.8,2.1-1.7,3-2.5c1-0.8,1.9-1.6,2.8-2.3     c1.8-1.5,3.5-2.9,4.9-4.2c1.4-1.3,2.7-2.3,3.7-3.3c2-1.9,3.2-2.9,3.2-2.9s-1,1.2-2.8,3.3c-0.9,1.1-2,2.3-3.3,3.7     c-1.3,1.4-2.8,2.9-4.5,4.6c-1.7,1.6-3.5,3.4-5.6,5.2c-2,1.8-4.1,3.7-6.4,5.6c-2.3,1.9-4.6,3.9-7,5.8c-2.4,2-4.8,3.9-7.3,5.9     c-2.5,2-4.9,3.9-7.3,5.9c-2.4,2-4.7,3.9-6.9,5.8c-1.1,0.9-2.2,1.9-3.3,2.8c-1.1,0.9-2.1,1.8-3.1,2.7c-1,0.9-1.9,1.8-2.9,2.6     c-0.9,0.9-1.8,1.7-2.6,2.6c-1.7,1.6-3.2,3.1-4.5,4.6c-1.3,1.4-2.3,2.7-3,3.9c-0.7,1.1-1.2,2.1-1.5,2.8     C24.5,86.5,24.4,86.9,24.4,86.9z" fill="#010101"/></g></g><g><path d="M63,76L63,76C63,76,63,76,63,76c0.1,0,0.1,0,0.2,0c0.1,0,0.1,0,0.2,0c0.1,0,0.2-0.1,0.2-0.2l0.2-1.6    l2.5,5.9l-4.5-4.5l-0.7-0.7L62,74c0.4-0.4,0.9-0.6,1.4-0.6c0.2,0,0.5,0,0.8,0.1c0.1,0,0.3,0.1,0.4,0.1c0.1,0,0.2,0.1,0.2,0.1    l0.1,0L63,76z" fill="#010101"/></g><g><path d="M50.7,94.2c0,0,0.1,0.3,0.3,0.8c0.2,0.5,0.4,1.1,0.8,1.7c0.6,1.2,1.5,2.4,1.5,2.4s-1.3-0.6-2.6-1.4    c-0.6-0.4-1.2-0.9-1.7-1.3c-0.4-0.4-0.7-0.6-0.7-0.6L50.7,94.2z" fill="#010101"/></g><g><polygon fill="#010101" points="48.6,97.1 50.2,102.4 46.2,98.7   "/></g><g><polygon fill="#010101" points="46.9,100 49.4,106.2 44.5,101.6   "/></g><g><polygon fill="#010101" points="45.3,103.8 48,110 42.9,105.5   "/></g><g><path d="M44,107.7c0,0,0,0.1,0.1,0.3c0.1,0.2,0.1,0.4,0.2,0.6c0.2,0.5,0.4,1.2,0.8,1.9c0.7,1.4,1.7,2.6,1.7,2.6    s-1.5-0.6-2.8-1.6c-0.7-0.5-1.3-1.1-1.8-1.5c-0.2-0.2-0.4-0.5-0.5-0.6c-0.1-0.1-0.2-0.2-0.2-0.2L44,107.7z" fill="#010101"/></g><g><path d="M59.8,78l-0.3-0.5l1.9-1.4c0,1,0.1,2,0.5,3.1c-1-0.5-1.9-1.2-2.7-2.1l-2.9-3.1l4.9,1.7l0.5,0.2L59.8,78z" fill="#010101"/></g><g><polygon fill="#010101" points="57.8,77.2 58.5,81.2 55.3,78.7   "/></g><g><path d="M55.4,78.4c0,0,0,0.3,0,0.8c0,0.5,0.1,1.1,0.3,1.7c0.3,1.2,0.9,2.5,0.9,2.5s-1.1-0.7-2.1-1.7    c-0.5-0.5-1-1.1-1.3-1.5c-0.2-0.2-0.3-0.4-0.4-0.6c-0.1-0.1-0.1-0.2-0.1-0.2L55.4,78.4z" fill="#010101"/></g><g><path d="M51.9,80.6c0,0,0.1,0.3,0.3,0.8c0.2,0.5,0.4,1.1,0.7,1.6c0.5,1.2,1.3,2.3,1.3,2.3s-1.2-0.6-2.4-1.4    c-0.6-0.4-1.1-0.8-1.5-1.1c-0.4-0.3-0.7-0.6-0.7-0.6L51.9,80.6z" fill="#010101"/></g><g><path d="M79.7,52.2c0,0,0.1,0.1,0.2,0.2c0.1,0.1,0.3,0.3,0.5,0.6c0.4,0.5,0.8,1.1,1.1,1.8c0.3,0.7,0.6,1.4,0.7,1.9    c0.1,0.5,0.2,0.9,0.2,0.9s-0.2-0.3-0.6-0.7c-0.3-0.4-0.9-0.8-1.4-1.2c-0.5-0.4-1.1-0.6-1.5-0.8c-0.2-0.1-0.3-0.1-0.5-0.2    c-0.1,0-0.2-0.1-0.2-0.1L79.7,52.2z" fill="#010101"/></g><g><path d="M79.9,56.5c0,0,0,0.1,0.1,0.3c0.1,0.2,0.1,0.4,0.2,0.7c0.2,0.6,0.5,1.3,0.8,2.1c0.7,1.5,1.7,2.9,1.7,2.9    s-1.5-0.8-2.9-2c-0.7-0.6-1.3-1.2-1.8-1.7c-0.2-0.2-0.4-0.5-0.5-0.6c-0.1-0.1-0.2-0.2-0.2-0.2L79.9,56.5z" fill="#010101"/></g><g><polygon fill="#010101" points="79.2,59.9 81.3,66.2 76.8,61.3   "/></g><g><polygon fill="#010101" points="77.4,63.6 79.7,69.6 75,65.2   "/></g><g><polygon fill="#010101" points="76.3,67.2 76.2,67.4 73.4,67.3 73.6,66.8 75,63.1 75.9,66.3 77.2,70.7 73.8,67.6 76.1,67.1     76.2,67.6 73.4,67.4 73.4,67.2   "/></g></g></svg>