<?xml version="1.0" ?><svg id="icon" viewBox="0 0 340 340" xmlns="http://www.w3.org/2000/svg"><title/><path d="M330,95.863a8.548,8.548,0,0,0-6.211-4.718l-.465-.083a8.587,8.587,0,0,0-9.222,4.722l-.278.578a1.669,1.669,0,0,1-1.414.97c-39.388,1.84-71.557,17.354-85.7,25.353a11.185,11.185,0,0,0-1.14-.709,11.992,11.992,0,0,0-1.251-.6,4,4,0,1,0-3.025,7.407,4.051,4.051,0,0,1,.436.208,1.11,1.11,0,0,0,.1.054,6.979,6.979,0,0,1,1.456,1.185c.01.011.022.021.032.033a12.358,12.358,0,0,1,2.544,4.026,18.037,18.037,0,0,0,6.808,8.371c4.3,2.833,9.582,7.767,10.317,15.189a19.267,19.267,0,0,1-3.129,12.958c-9.5-9.381-21.707-10.726-24.479-10.913-16.669-4.731-21.838-13.544-23.437-18.648h9.4a11.894,11.894,0,0,0,11.183-7.814c.759-2.108,1.465-4.449,2.1-6.956a4,4,0,0,0-3.427-4.954,9.872,9.872,0,0,1-3.51-1.021,4.969,4.969,0,0,1-2.67-5.122,5.662,5.662,0,0,1,4.184-4.929,15.243,15.243,0,0,1,4.592-.474,3.994,3.994,0,0,0,4.134-3.613c.219-2.261.4-4.594.534-6.745a10.391,10.391,0,0,0-8.161-10.808,4.021,4.021,0,0,0-.868-.095,4.96,4.96,0,0,1-1.423-.211,32.855,32.855,0,0,0-2.008-29.45c-.32-.545-7.979-13.392-21.871-16.429-8.144-1.781-16.569.154-25.053,5.753-6.606-.271-30.532,1.125-40.643,34.143a54.188,54.188,0,0,0-2,10.069c-.439,4.044-1.459,12.34-3.351,22.454a4,4,0,1,0,7.863,1.472c1.845-9.858,2.89-17.983,3.441-23.062a46.238,46.238,0,0,1,1.7-8.591c9.642-31.489,32.531-28.579,33.476-28.443a4,4,0,0,0,2.909-.675c6.961-4.874,13.655-6.661,19.9-5.317C192.819,52.683,199.047,63,199.066,63.036a24.86,24.86,0,0,1,2.971,17.912c-15.338-22.9-38.649-14.958-38.9-14.868a4,4,0,0,0-2.517,4.827c7.555,27.518,2.226,53.789.412,61.184-.61,2.486-1.1,4.767-1.491,6.973a89.154,89.154,0,0,0-1.282,9.095c-11.456-9.395-26.427-15.311-28.856-16.236-4.258-2.4-45.956-24.717-99.015-12.24a11.716,11.716,0,0,0-14.535-3.864l-.5.234a11.746,11.746,0,0,0-6.509,8.311L8.183,127.7a12.114,12.114,0,0,1-2.057,4.712l-2.133,2.944a13.2,13.2,0,0,0,.064,15.631l.712.966a13.233,13.233,0,0,0,17.9,3.233c.2-.13.4-.262.608-.394a49.1,49.1,0,0,1,36.829-6.588,144.8,144.8,0,0,1,39.135,14.527c-6.092,14.089-13.27,24.654-21.366,31.423a11.631,11.631,0,0,1-7.332,2.7c-6.651.064-19.1,1.786-27.729,12.584A19.939,19.939,0,0,0,39.358,228.5c1.473,4.059,5.508,10.506,16.35,11.318.85,7.975,5.005,18.881,16.926,20.544.074.009,6.226.834,9.016,5.424-27.916,12.287-48.18,33.107-59.192,61.09a4,4,0,1,0,7.445,2.93C40.68,302.418,60.2,282.945,88.021,271.74a3.8,3.8,0,0,0,.413-.161,136.984,136.984,0,0,1,15.491-5.106,160.386,160.386,0,0,1,51.8-4.87q.151.016.3.021a63.045,63.045,0,0,0,16.36-1.444c-.172.068-.313.121-.378.143-81.287,22.1-95.245,65.033-95.8,66.85a4,4,0,0,0,7.646,2.354c.032-.1,3.327-10.216,15.979-22.762,11.755-11.658,34.2-27.843,74.365-38.747l.136-.04c.614-.19,15.042-4.847,15.675-21.2a20.11,20.11,0,0,0-1.571-8.558c1.283.111,2.642.179,4.088.179a51.721,51.721,0,0,0,7.6-.572,4,4,0,0,0-1.176-7.913c-11.827,1.759-19.263-1.83-19.787-2.094-3.764-2.2-8.644-6.668-10.655-15.518-.017-.072-.042-.141-.062-.211l.007,0a17.943,17.943,0,0,1,.111-6.322,4,4,0,0,0-7.914-1.171,32.377,32.377,0,0,0-.367,6.383,28.537,28.537,0,0,1-8.908,2.545,16.184,16.184,0,0,1-13.747-5.214,14.64,14.64,0,0,1-3.545-12.99c.064-.3.137-.606.221-.913a4,4,0,0,0-3.074-4.976c-.121-.025-12.169-2.577-13.047-15.072-.006-.087-.408-8.915,5.365-15.382a32.673,32.673,0,0,0,6.181-9.779,34.355,34.355,0,0,0,2.088-7.578c7.132,3.221,19.488,9.588,26.7,17.792,1.255,13.026,10.48,35.738,37.946,36.736a23.32,23.32,0,0,0,16.751-6.314c.038-.035.078-.069.115-.1.334-.319.662-.646.979-.987a22.763,22.763,0,0,0,6.031-17.944c-.072-.663-.165-1.337-.28-2.018,5.078,1.3,12.58,4.415,17.6,11.835a21.091,21.091,0,0,1,2.856,6.405c1.965,7.356,3.744,21.085-6.426,30.378a4,4,0,0,0-1.183,3.923l3.953,15.812a19.378,19.378,0,0,0,12.616,13.681c14.957,5.1,52.578,20.465,78.827,53.041a4,4,0,1,0,6.229-5.02c-13.073-16.224-28.785-28.362-43.36-37.214a94.207,94.207,0,0,0,10.19-.561c5.37-.6,18.78-1.091,27.25,7.243a4,4,0,0,0,5.611-5.7c-10.527-10.36-25.667-10.395-33.747-9.492a87.675,87.675,0,0,1-12.156.479c-4.521-.13-9.064-.436-13.52-.9a198.587,198.587,0,0,0-22.744-9.444,11.412,11.412,0,0,1-7.434-8.049l-3.4-13.6c11.782-12.5,8.9-29.631,7.023-36.64A29.445,29.445,0,0,0,245,177.3a26.979,26.979,0,0,0,5.952-20.234c-1.1-11.115-9.168-17.979-13.877-21.081a10.062,10.062,0,0,1-3.789-4.681,22.042,22.042,0,0,0-1.18-2.466c14.221-7.861,44.247-21.81,80.679-23.512a9.658,9.658,0,0,0,8.253-5.5l.277-.577a.56.56,0,0,1,.6-.31l.466.084a.558.558,0,0,1,.461.55,4,4,0,0,0,3.637,3.983l2.146.2a2.1,2.1,0,0,1,1.861,2.529l-.54,2.52a4.827,4.827,0,0,1-3.933,3.778c-13.02,2.181-45.965,9.214-70.609,27.348a4,4,0,1,0,4.742,6.443c23.256-17.113,54.735-23.814,67.19-25.9a12.783,12.783,0,0,0,10.432-9.99l.54-2.521A10.1,10.1,0,0,0,330,95.863ZM125.875,196.118a22.57,22.57,0,0,0,5.82,17.556,24.213,24.213,0,0,0,20.553,7.806,36.29,36.29,0,0,0,9.892-2.571,29.857,29.857,0,0,0,13.08,15.874,13.088,13.088,0,0,1,6.8,11.689c-.009.252-.046.48-.066.724-4.143,3.354-11.784,6.833-25.536,6.435a166.083,166.083,0,0,0-54.292,5.043q-6.708,1.773-12.959,4.089c-4.408-8.87-15.037-10.278-15.493-10.333-10.457-1.46-10.146-15.821-10.128-16.421a4,4,0,0,0-4.188-4.138c-10.082.481-11.886-4.473-12.477-6.1a11.9,11.9,0,0,1,2.186-11.338c6.568-8.216,16.326-9.529,21.558-9.579a19.66,19.66,0,0,0,12.386-4.562c8.881-7.426,16.666-18.691,23.186-33.5q2.146,1.337,4.3,2.793a28.349,28.349,0,0,0-.288,5.32C111.064,187.105,119.438,193.526,125.875,196.118Zm-3.592-49.827a24.758,24.758,0,0,1-4.7,7.362,27.8,27.8,0,0,0-4.878,7.792c-2.064-1.338-4.121-2.593-6.167-3.782l-.034-.02a152.828,152.828,0,0,0-44.744-17.265,57.076,57.076,0,0,0-42.793,7.675c-.241.154-.476.305-.694.449a5.226,5.226,0,0,1-7.066-1.3l-.712-.966a5.23,5.23,0,0,1-.025-6.191l2.132-2.944a20.151,20.151,0,0,0,3.425-7.843l.664-3.336A3.716,3.716,0,0,1,18.75,123.3l.5-.234a3.7,3.7,0,0,1,4.824,1.586l.839,1.545a4,4,0,0,0,4.515,1.965c47.072-12.138,86.206,5.7,94.6,9.972A21.281,21.281,0,0,1,122.283,146.291Zm74.474,41.865c-28.221-1.025-30.281-29.367-30.354-30.564,0-.014,0-.027,0-.04s0-.016,0-.025c-.5-6.933-.361-9.324,1.021-17.057.363-2.037.817-4.154,1.386-6.473,1.84-7.508,7.084-33.3.56-61.164,6.329-.887,19.65-.342,28.567,16.885a12.908,12.908,0,0,0,10.928,6.988,2.415,2.415,0,0,1,1.62,2.433c-.057.965-.128,1.969-.207,2.986a21.546,21.546,0,0,0-3.18.612,13.678,13.678,0,0,0-10.022,11.772,12.906,12.906,0,0,0,6.884,13.068,16.137,16.137,0,0,0,1.828.824q-.378,1.212-.778,2.324a3.873,3.873,0,0,1-3.656,2.524H179.7a4,4,0,0,0,0,8h4.01c1.385,6.559,6.8,19.3,27.789,25.831a29.512,29.512,0,0,1,.89,4.575,14.687,14.687,0,0,1-2.53,9.859,24.777,24.777,0,0,1-2.875-2.794,4,4,0,0,0-6.161,5.1,30.587,30.587,0,0,0,2.857,2.916A15.1,15.1,0,0,1,196.757,188.156Z"/><path d="M114.477,11.1a149.175,149.175,0,0,0-25.766,9.856,4,4,0,0,0-2.166,3.555V63.529a67.572,67.572,0,0,0-10.478-1.113,12.755,12.755,0,0,0-6.91,1.733c-5.49,3.238-8.109,9.065-7.186,15.988a4,4,0,0,0,3.964,3.471h24.61a4,4,0,0,0,4-4V45.176l18.017-5.058a4,4,0,0,0,2.849-3.106l4.04-21.3a4,4,0,0,0-4.974-4.606ZM86.545,75.608H69.939a6.531,6.531,0,0,1,3.282-4.568,4.828,4.828,0,0,1,2.613-.627,58.485,58.485,0,0,1,10.711,1.28Zm21.469-42.522L94.545,36.867V26.99a136.557,136.557,0,0,1,15.811-6.259Z"/><path d="M273.344,53.343a9.831,9.831,0,0,0-6.746,8.415,9.7,9.7,0,0,0,4.791,9.492l.145.084a9.575,9.575,0,0,0,7.01,1.006c5-1.2,8.463-3.621,10.283-7.2a13.827,13.827,0,0,0,.558-10.41l-2.026-20.509,0-.022c0-.01,0-.02,0-.03l-2.571-22.957a4,4,0,0,0-5.176-3.37c-.882.277-21.743,6.9-34.9,15.947a4,4,0,0,0-1.617,4.253l3.7,15.012c.14.621,1.855,8.136,4.564,16.192a33.391,33.391,0,0,0-6.533,1.406,9.826,9.826,0,0,0-6.746,8.415,9.7,9.7,0,0,0,4.8,9.5l.133.078a9.572,9.572,0,0,0,7.007,1c5-1.2,8.464-3.621,10.285-7.2a13.979,13.979,0,0,0,.356-10.97v0a154.469,154.469,0,0,1-5.122-16.345l14.8-3.41a4,4,0,0,0-1.8-7.8l-14.92,3.437-2.093-8.482c8.459-5.26,19.654-9.614,25.851-11.828L279.4,35.06v0l1.654,16.75A34.585,34.585,0,0,0,273.344,53.343ZM253.157,68.859c-.72,1.375-2.4,2.388-5,3.011a1.686,1.686,0,0,1-1.248-.216,1.738,1.738,0,0,1-.874-1.761,1.885,1.885,0,0,1,1.309-1.648,26.823,26.823,0,0,1,6.278-1.2A4.37,4.37,0,0,1,253.157,68.859Zm28.54-7.347c-.71,1.395-2.4,2.421-5.017,3.049a1.686,1.686,0,0,1-1.25-.215,1.741,1.741,0,0,1-.875-1.762,1.888,1.888,0,0,1,1.308-1.648,26.948,26.948,0,0,1,6.277-1.2A4.372,4.372,0,0,1,281.7,61.512Z"/><path d="M185.824,101.65a4.067,4.067,0,0,0,.57-.04,16.55,16.55,0,0,0,8.548-4.5,4,4,0,1,0-5.564-5.747A8.8,8.8,0,0,1,185.21,93.7a4,4,0,0,0,.614,7.952Z"/></svg>