<?xml version="1.0" ?><!DOCTYPE svg  PUBLIC '-//W3C//DTD SVG 1.1//EN'  'http://www.w3.org/Graphics/SVG/1.1/DTD/svg11.dtd'><svg enable-background="new 0 0 128 128" id="Layer_1" version="1.1" viewBox="0 0 128 128" xml:space="preserve" xmlns="http://www.w3.org/2000/svg" xmlns:xlink="http://www.w3.org/1999/xlink"><g><g><path d="M36.1,48.8c1.6-2,3.2-3.9,4.8-5.9c1.6-1.9,3.3-3.9,4.9-5.8c1.7-1.9,3.4-3.8,5-5.7c1.7-1.9,3.4-3.8,5.1-5.6    l2.6-2.8c0.9-0.9,1.8-1.8,2.6-2.7c0.9-0.9,1.8-1.8,2.7-2.7c0.5-0.5,1.2-1,2-1.3c0.8-0.2,1.5-0.2,2.2-0.2l7.6,0.1    c2.5,0,5.1,0,7.6-0.1l0.9,0l-0.5,0.7c-1.1,1.6-1.9,3.4-2.5,5.2c-0.3,0.9-0.5,1.8-0.1,2.5c0.3,0.7,1.2,1.1,2.1,1.5    c1.7,0.8,3.5,1.4,5.4,1.7c1.9,0.3,3.8,0.4,5.7,0.4c1.9,0,3.8,0,5.9-0.1c2,0,3.9,0,5.9,0.1l5.9,0.1c1.1,0,2,0.1,3.1,0.2    c1,0.1,2.1,0.4,3.2,0.8l0.4,0.2c0.1,0,0.2,0.1,0.4,0.2c0.3,0.1,0.5,0.3,0.8,0.4c0.5,0.3,1,0.7,1.4,1.1c0.9,0.8,1.6,2,1.9,3.3l0,0    l0,0.1l0,0l0,0.1l0,0.2c0,0.1,0,0.2,0.1,0.4c0,0.4,0,0.8,0,1.1c-0.1,0.6-0.2,1.3-0.5,1.8c-0.5,1.2-1.2,2.1-2,2.9    c-0.8,0.8-1.6,1.5-2.5,2.1c-0.9,0.6-1.9,1.1-2.7,1.5c-0.9,0.4-1.9,0.8-2.8,1.2c-0.9,0.4-1.9,0.7-2.8,1.1c-1.9,0.6-3.8,1.2-5.8,1.6    c-1.9,0.4-3.9,0.8-5.8,1.1c-1.9,0.3-3.9,0.6-5.9,0.8c-2,0.2-3.9,0.4-5.9,0.6l0-0.3l5.7-1.3c1.9-0.5,3.8-0.9,5.7-1.4    c1.9-0.5,3.8-1,5.6-1.6c1.9-0.6,3.7-1.2,5.4-1.9c0.9-0.4,1.8-0.7,2.6-1.1c0.9-0.4,1.7-0.8,2.5-1.3c0.9-0.5,1.6-0.9,2.4-1.4    c0.7-0.5,1.4-1.1,2-1.7c1.2-1.2,1.8-2.7,1.5-3.9c-0.3-1.3-1.5-2.4-3-3c-1.5-0.6-3.4-0.8-5.3-0.9l-5.9-0.3c-2-0.1-3.9-0.2-5.9-0.3    c-1.9-0.1-3.9-0.1-5.9-0.3c-4-0.3-8.1-1-11.6-3.1c-0.8-0.5-1.8-1-2.4-2.1c-0.3-0.6-0.3-1.2-0.2-1.7c0.1-0.5,0.2-1,0.4-1.5    c0.7-1.9,1.5-3.7,2.6-5.4l0.4,0.7c-2.5,0.1-5.1,0.2-7.6,0.4l-7.6,0.6c-0.6,0-1.2,0.1-1.6,0.3c-0.4,0.2-0.7,0.5-1.1,0.9    c-0.8,0.9-1.6,1.9-2.5,2.9c-0.8,0.9-1.7,1.9-2.5,2.8l-2.6,2.8c-1.8,1.8-3.5,3.7-5.3,5.5c-1.8,1.8-3.5,3.6-5.3,5.4    c-1.8,1.8-3.6,3.6-5.4,5.3c-1.9,1.7-3.7,3.5-5.6,5.2L36.1,48.8z" fill="#010101"/></g><g><path d="M47,54.2c0,0,0.6-0.1,1.8-0.3c1.1-0.2,2.8-0.5,5-0.8c2.1-0.4,4.8-0.7,7.8-1.1c3-0.4,6.4-0.8,10.1-1.2    c3.7-0.4,7.7-0.8,12-1c4.3-0.2,8.8-0.2,13.4-0.3c4.7,0,9.5,0,14.4,0c2.4,0,4.9-0.1,7.4,0.2c1.3,0.1,2.5,0.4,3.8,0.8    c0.3,0.1,0.6,0.2,0.9,0.3c0.3,0.1,0.6,0.3,0.9,0.5c0.6,0.4,1.2,0.9,1.5,1.7c0,0.1,0.1,0.2,0.1,0.3c0,0.1,0,0.1,0,0.3    c0,0.3,0,0.5,0,0.7c-0.1,0.4-0.2,0.8-0.4,1.2c-0.4,0.7-1,1.3-1.7,1.6c-1.4,0.7-2.8,0.7-4,0.8c-2.5,0.2-4.9,0.3-7.4,0.5    c-4.9,0.3-9.7,0.6-14.3,0.8c-2.3,0.1-4.6,0.2-6.8,0.3c-1.1,0-2.2,0.1-3.3,0.1c-1.1,0-2.1,0.1-3.1,0.2c-2,0.2-3.7,0.7-5,1.7    c-0.6,0.5-1.1,1.1-1.4,1.8c-0.1,0.3-0.2,0.7-0.3,1c-0.1,0.3,0,0.8-0.1,1.4c-0.1,0.7-0.4,1.4-0.9,2c-0.5,0.5-1.1,0.8-1.6,1    C74.7,69,73.7,69,72.9,69c-1.7,0.1-3.4,0-4.9-0.1c-3.1-0.2-5.7-0.6-7.9-1c-2.1-0.4-3.8-0.9-4.9-1.2c-1.1-0.4-1.7-0.6-1.7-0.6    l0.1-0.3c0,0,0.6,0.1,1.8,0.3c1.1,0.2,2.8,0.4,5,0.6c2.1,0.2,4.8,0.4,7.7,0.3c1.5,0,3.1-0.1,4.7-0.3c0.9-0.1,1.6-0.2,2.2-0.4    c0.3-0.1,0.5-0.3,0.6-0.4c0.1-0.1,0.2-0.2,0.2-0.5c0-0.3,0-0.7,0-1.4c0-0.6,0.2-1.2,0.4-1.8c0.4-1.1,1.2-2.1,2.1-2.9    c1.8-1.7,4.3-2.3,6.5-2.6c2.3-0.3,4.4-0.3,6.6-0.4c2.2-0.1,4.5-0.2,6.8-0.2c4.7-0.1,9.5-0.2,14.3-0.4c2.4,0,4.9-0.1,7.4-0.1    c1.2,0,2.4,0,3.3-0.3c0.9-0.3,1.5-1.2,1.3-1.9c-0.1-0.4-0.4-0.7-0.8-1c-0.4-0.3-1-0.5-1.5-0.8c-1.1-0.4-2.3-0.7-3.5-0.9    c-2.4-0.4-4.8-0.4-7.3-0.4c-4.9,0-9.7,0.2-14.3,0.6c-4.6,0.4-9.1,0.9-13.3,1.2c-4.2,0.4-8.3,0.6-12,0.9    c-7.4,0.5-13.6,0.9-17.9,1.1c-2.2,0.1-3.9,0.2-5,0.2c-1.2,0-1.8,0-1.8,0L47,54.2z" fill="#010101"/></g><g><path d="M125.7,54.4c0,0,0.1,1.4,0.2,3.9c0,0.6,0,1.3,0,2.1c0,0.4,0,0.8,0,1.2c0,0.5,0,0.8-0.1,1.3    c-0.1,0.9-0.2,1.9-0.6,2.9c-0.4,1-0.9,2.2-2,3.1c-0.1,0.1-0.3,0.2-0.4,0.3c-0.1,0.1-0.1,0.1-0.3,0.2l-0.2,0.1    c-0.1,0.1-0.3,0.2-0.5,0.2c-0.2,0.1-0.3,0.1-0.5,0.2c-0.7,0.2-1.3,0.3-2,0.3c-1.3,0.1-2.5-0.1-3.7-0.2c-2.4-0.2-5-0.6-7.6-0.9    c-2.6-0.3-5.4-0.4-8.2-0.1c-2.8,0.3-5.6,0.9-8.2,1.9c-1.3,0.5-2.6,1.1-3.8,1.7c-1.2,0.6-2.4,1.3-3.5,2.1c-2.2,1.5-4.1,3.3-5.7,5.3    c-0.8,1-1.5,2.2-2.6,3.2c-0.6,0.5-1.2,1-2,1.4l-0.3,0.1l-0.3,0.1c-0.2,0.1-0.4,0.1-0.6,0.2c-0.4,0.1-0.8,0.1-1.1,0.2    c-1.4,0.1-2.5,0-3.7,0c-1.2-0.1-2.3-0.2-3.4-0.3c-2.2-0.3-4.1-0.7-5.9-1.2c-1.7-0.5-3.2-1-4.4-1.4c-1.2-0.5-2.1-0.9-2.7-1.2    c-0.6-0.3-0.9-0.5-0.9-0.5l0.1-0.3c0,0,0.4,0.1,1,0.2c0.7,0.1,1.6,0.4,2.8,0.6c2.4,0.4,5.9,1,10.1,1.1c1,0.1,2.1,0.1,3.3,0    c1.1,0,2.4,0,3.4-0.1c0.3,0,0.5-0.1,0.7-0.1c0.1,0,0.2-0.1,0.3-0.1l0.2-0.1c0,0,0.1,0,0.1-0.1c0.4-0.2,0.8-0.4,1.1-0.8    c0.8-0.7,1.5-1.8,2.4-2.8c1.8-2.2,4.1-4.1,6.6-5.6c2.5-1.5,5.3-2.5,8.2-3.2c2.8-0.7,5.7-1,8.5-1.3c2.8-0.3,5.6-0.4,8.3-0.6    c2.7-0.1,5.3-0.2,7.8-0.1c2.5,0.1,4.7,0.5,5.9-0.5c1.3-0.9,1.8-2.8,2.2-4.3c0.1-0.4,0.2-0.9,0.2-1.2c0.1-0.4,0.1-0.8,0.2-1.2    c0.1-0.7,0.2-1.4,0.3-2.1c0.4-2.5,0.7-3.9,0.7-3.9L125.7,54.4z" fill="#010101"/></g><g><path d="M26.2,56.4c-0.1,0-0.2,0.1-0.2,0.1c-0.1,0-0.2,0-0.3,0c-0.2,0-0.4-0.1-0.5-0.2l-0.1-0.1l0-0.3    c0.1-0.8,0.2-1.6,0.3-2.3c0.1-0.8,0.3-1.5,0.4-2.3c0.3-1.5,0.7-3,1.2-4.4l0.4-1.1l1.1,0.3c1.5,0.4,3,1,4.6,1.5    c0.8,0.2,1.5,0.5,2.3,0.6c0.8,0.1,1.6,0.2,2.4,0.3c1.6,0.1,3.2,0,4.8,0c1.6-0.1,3.2,0,4.8,0l1.1,0l0.2,1.3c0.2,1.3,0.4,2.7,0.5,4    c0.1,1.3,0.1,2.7,0,4c0,0.7-0.1,1.3-0.2,2c-0.1,0.7-0.2,1.3-0.3,2c-0.2,1.3-0.5,2.6-1,3.9l-0.3,0c-0.1-0.7-0.2-1.3-0.3-2    c-0.1-0.7-0.2-1.3-0.2-2c-0.1-1.3-0.3-2.6-0.4-3.9c-0.1-1.3-0.2-2.6-0.3-3.9c0-0.6-0.1-1.3-0.1-1.9L45.9,50l1.3,1.3l-2.4-0.3    c-0.8-0.1-1.6-0.3-2.4-0.4L40,49.9c-0.8-0.2-1.6-0.4-2.4-0.5c-0.4-0.1-0.8-0.1-1.2-0.2c-0.4-0.1-0.8-0.1-1.2-0.2    c-0.8-0.1-1.6-0.1-2.4-0.2c-1.6,0-3.3,0-4.9-0.3l1.5-0.9c-0.4,1.5-1,2.9-1.6,4.3c-0.3,0.7-0.6,1.4-1,2.1c-0.3,0.7-0.7,1.4-1.1,2.1    l-0.1-0.4c0,0.1,0.1,0.1,0.2,0.2c0,0,0.1,0.1,0.1,0.1c0.1,0,0.1,0,0.2,0L26.2,56.4z" fill="#010101"/></g><g><path d="M11,56.2c1.8,0.4,3.6,1,5.4,1.5c1.8,0.5,3.6,1.1,5.4,1.7c1.8,0.6,3.6,1.2,5.3,1.8c1.8,0.6,3.5,1.2,5.3,1.9    c0.9,0.3,1.8,0.6,2.6,1c0.9,0.3,1.7,0.7,2.6,1c1.7,0.7,3.5,1.4,5.2,2.2l1.3,0.6c0.4,0.2,0.8,0.3,1.4,0.6c0.3,0.2,0.6,0.3,0.8,0.7    c0.2,0.3,0.3,0.7,0.4,1c0.1,0.6,0,1.1,0,1.5c0,0.9,0,1.8,0.1,2.7c0.1,0.9,0.3,1.8,0.6,2.7l0.2,0.6l-0.6,0    c-1.4,0.1-2.8,0.3-4.2,0.7c-1.4,0.4-2.7,1-3.9,1.6l0.3-0.5c0.1,2.1-0.1,4.2,0,6.2l0.1,1.1l-1.1-0.3c-3.3-0.9-6.7-1.8-10-2.9    L18,80.5c-1.7-0.5-3.3-1.1-4.9-1.6c-1.6-0.5-3.3-1.1-4.9-1.7c-0.8-0.3-1.6-0.5-2.5-1c-0.5-0.2-0.9-0.4-1.4-0.8    c-0.2-0.2-0.4-0.3-0.7-0.5l-0.2-0.2l-0.1-0.1l-0.1-0.1c-0.1-0.1-0.1-0.1-0.2-0.3c-0.8-1-1.1-2-1.2-3c-0.2-1-0.2-1.9-0.2-2.8l0-1.2    l1.1,0c1.4-0.1,2.9-0.2,4.3-0.5c1.4-0.3,2.8-0.6,4.2-1.1l-0.5,0.7c0.1-1.3,0.1-2.7,0.1-4c0-1.4,0-2.7-0.1-4.1l0.3,0    c0.3,1.3,0.6,2.7,0.8,4c0.2,1.4,0.4,2.7,0.4,4.1l0,0.5l-0.5,0.2c-2.8,1.3-5.8,2.2-8.9,2.6L4,68.4c0.1,0.8,0.2,1.7,0.4,2.4    c0.2,0.7,0.5,1.4,0.8,1.7c0,0,0.1,0.1,0.2,0.2l0.1,0.1l0,0l0,0c0,0,0,0,0,0l0,0l0.1,0.1c0.1,0.1,0.2,0.2,0.4,0.3    c0.3,0.2,0.6,0.3,0.9,0.5c0.7,0.3,1.5,0.5,2.4,0.8c1.7,0.5,3.3,1.1,4.9,1.6c1.6,0.6,3.3,1.1,4.9,1.7l9.8,3.5    c3.3,1.2,6.5,2.5,9.7,3.7l-1.1,0.8c0.1-2.2,0.5-4.2,0.6-6.2l0-0.3l0.3-0.1c1.3-0.7,2.7-1.2,4.1-1.6c0.7-0.2,1.4-0.3,2.2-0.5    c0.7-0.1,1.5-0.2,2.2-0.3l-0.4,0.6c-0.3-0.9-0.6-1.8-0.8-2.8c-0.2-0.9-0.3-1.9-0.4-2.9c0-0.5,0-1-0.1-1.3c0-0.2-0.1-0.2-0.2-0.3    c0,0-0.1-0.1-0.3-0.1c-0.3-0.1-0.8-0.3-1.3-0.4l-1.3-0.4c-1.8-0.6-3.6-1.1-5.3-1.7c-0.9-0.3-1.8-0.6-2.6-0.9    c-0.9-0.3-1.8-0.6-2.6-1c-1.7-0.7-3.5-1.3-5.2-2.1c-1.7-0.7-3.5-1.4-5.2-2.2c-1.7-0.7-3.4-1.5-5.1-2.3c-1.7-0.8-3.4-1.6-5.1-2.4    L11,56.2z" fill="#010101"/></g><g><path d="M34.9,78c-0.5,0-1.1,0-1.6,0c-0.6-0.1-1.3-0.2-1.9-0.4c-0.6-0.2-1.2-0.3-1.8-0.5c-0.6-0.2-1.2-0.4-1.8-0.6    c-2.4-0.8-4.7-1.6-6.9-2.7c-1.1-0.5-2.2-1.1-3.3-1.8c-1.1-0.6-2.2-1.2-3.3-1.7c-0.5-0.2-1.1-0.4-1.7-0.5c-0.6-0.1-1.2-0.1-1.7,0    c-1.2,0.2-2.3,0.7-3.3,1.3l0-1.2l3.4,1.1c1.1,0.4,2.2,0.8,3.3,1.2c2.2,0.8,4.4,1.6,6.6,2.4c2.2,0.8,4.4,1.7,6.5,2.7    c1.1,0.5,2.2,1,3.2,1.4c1.1,0.5,2.2,1,3.2,1.5L33,80.7C33.5,79.7,34.1,78.7,34.9,78z M35.4,77.9c-0.5,1-0.9,2.1-1,3.2l-0.1,0.6    l-0.8-0.2c-1.2-0.2-2.3-0.5-3.5-0.8c-1.2-0.3-2.3-0.6-3.4-1c-2.3-0.7-4.5-1.4-6.7-2.3c-2.2-0.9-4.4-1.9-6.5-2.9    c-1.1-0.5-2.1-1.1-3.2-1.6L7,71.1l-1.3-0.7L7,69.9c1.2-0.5,2.5-0.8,3.8-1c0.6-0.1,1.3,0,2,0c0.7,0.1,1.3,0.3,1.9,0.4l1.8,0.6    l1.8,0.5c1.2,0.3,2.4,0.7,3.6,1.1c2.3,0.8,4.6,1.9,6.8,3c0.6,0.3,1.1,0.6,1.7,0.8c0.6,0.3,1.1,0.6,1.6,0.9    c1.1,0.6,2.1,1.1,3.3,1.5l0.2,0.1L35.4,77.9z" fill="#010101"/></g><g><path d="M11.6,66.3c0,0,0.6,0.1,1.5,0.2c1,0.2,2.3,0.4,4,0.8c0.8,0.2,1.7,0.4,2.6,0.6c0.9,0.2,1.9,0.5,2.9,0.8    c2,0.6,4.1,1.3,6.2,2.1c2.1,0.8,4.1,1.6,6,2.5c0.9,0.4,1.8,0.9,2.7,1.3c0.8,0.4,1.7,0.8,2.4,1.1c1.5,0.7,2.8,1.2,3.7,1.5    c0.9,0.3,1.5,0.5,1.5,0.5s-0.6,0.1-1.6,0.1c-1,0-2.4-0.1-4.1-0.5c-1.7-0.3-3.6-0.9-5.5-1.6c-2-0.7-4-1.4-6.1-2.2    c-2.1-0.8-4.1-1.6-6-2.4c-1.9-0.8-3.7-1.6-5.2-2.3c-1.5-0.7-2.8-1.3-3.6-1.8C12.1,66.6,11.6,66.3,11.6,66.3z" fill="#010101"/></g><g><path d="M11.1,56c0,0,0.6-0.3,1.6-0.5c0.5-0.1,1.2-0.3,1.9-0.4c0.7-0.1,1.5-0.3,2.4-0.4c0.9-0.1,1.9-0.2,2.9-0.2    c1.1,0,2.1,0.2,3.3,0.4c0.6,0.1,1.2,0.3,1.8,0.5c0.6,0.2,1.1,0.5,1.7,0.7c1.1,0.4,2.3,0.7,3.5,0.9c1.2,0.2,2.4,0.5,3.5,0.8    c1.1,0.3,2.3,0.7,3.3,1c2.2,0.7,4.1,1.6,5.7,2.4c0.8,0.4,1.5,0.8,2.2,1.2c0.6,0.4,1.2,0.7,1.6,1c0.9,0.5,1.4,0.8,1.4,0.8l0,0.3    c0,0-0.2,0-0.5,0c-0.3,0-0.7,0-1.3-0.1c-1.1-0.1-2.6-0.4-4.4-0.9c-1.8-0.5-3.8-1.1-5.8-2c-1-0.4-2.1-0.9-3.2-1.4    c-1.1-0.5-2.1-1.1-3.2-1.7c-1.1-0.6-2.1-1.2-3.2-1.6c-0.6-0.2-1.1-0.4-1.6-0.5c-0.5-0.1-1-0.1-1.6,0c-1,0.2-2.2,0.5-3.2,0.6    c-1,0.1-2,0.1-2.9,0.1c-0.9,0-1.7-0.1-2.5-0.2c-0.7-0.1-1.4-0.2-1.9-0.3c-1.1-0.2-1.7-0.4-1.7-0.4L11.1,56z" fill="#010101"/></g><g><path d="M70.4,67.5c0,0-0.3-0.6-0.8-1.6c-0.5-1-1.2-2.4-2-4.1c-0.8-1.7-1.7-3.8-2.6-5.9c-0.9-2.2-1.9-4.5-2.8-6.9    c-0.9-2.4-1.8-4.7-2.6-7c-0.8-2.2-1.5-4.3-2-6.2c-0.6-1.8-1-3.4-1.3-4.4c-0.3-1.1-0.4-1.7-0.4-1.7s0.4,0.5,0.9,1.5    c0.6,1,1.4,2.3,2.3,4c0.9,1.7,1.9,3.7,2.9,5.9c1,2.2,2,4.5,2.9,6.9c0.9,2.4,1.8,4.8,2.5,7c0.7,2.3,1.3,4.4,1.8,6.3    c0.5,1.8,0.8,3.4,1,4.5C70.3,66.9,70.4,67.5,70.4,67.5z" fill="#010101"/></g><g><path d="M38.5,85.7c0,0,0.2-0.2,0.5-0.4c0.3-0.2,0.8-0.5,1.4-0.8c1.2-0.6,2.8-1.2,4.4-1.5c1.6-0.3,3.3-0.4,4.6-0.3    c0.7,0.1,1.2,0.1,1.6,0.2c0.4,0.1,0.6,0.2,0.6,0.2s-0.2,0.2-0.5,0.4c-0.3,0.2-0.8,0.5-1.4,0.8c-1.2,0.6-2.8,1.2-4.4,1.5    c-1.6,0.3-3.3,0.4-4.6,0.3c-0.7-0.1-1.2-0.1-1.6-0.2C38.7,85.8,38.5,85.7,38.5,85.7z" fill="#010101"/></g><g><path d="M53.2,66.3c0,0,0.2,0.2,0.4,0.7c0.2,0.4,0.5,1.1,0.6,1.9c0.2,0.8,0.3,1.8,0.3,2.8c0,1-0.1,2.1-0.2,3.1    c-0.1,0.5-0.1,1-0.2,1.5c-0.1,0.5-0.2,0.9-0.3,1.4c-0.1,1-0.3,1.9-0.5,2.6c-0.2,0.8-0.4,1.4-0.6,1.9c-0.2,0.4-0.3,0.7-0.3,0.7    s-0.1-0.3-0.3-0.7c-0.1-0.5-0.3-1.1-0.5-1.9c-0.2-0.8-0.3-1.7-0.4-2.7c0-0.6,0-1.1,0-1.6c0-0.5,0.1-1,0.2-1.6    c0.3-2.1,0.8-4,1.1-5.5c0.2-0.8,0.3-1.4,0.4-1.8C53.1,66.6,53.2,66.3,53.2,66.3z" fill="#010101"/></g><g><path d="M46.1,68.6c0,0,0-0.1,0.1-0.4c0.1-0.2,0.2-0.5,0.4-0.8c0.3-0.5,0.9-1,1.6-1.3c0.7-0.3,1.4-0.3,2.1-0.1    c0.3,0.1,0.6,0.2,0.8,0.3c0.2,0.1,0.3,0.2,0.3,0.2s0,0.1-0.1,0.3c-0.1,0.2-0.2,0.5-0.4,0.7c-0.4,0.5-0.9,0.9-1.6,1.2    c-0.6,0.2-1.3,0.3-2,0.1c-0.3-0.1-0.6-0.2-0.8-0.2C46.2,68.7,46.1,68.6,46.1,68.6z" fill="#010101"/></g><g><path d="M51.7,83.4c0.3,1.4,0.5,2.7,0.7,4.1c0.2,1.4,0.3,2.7,0.4,4.1c0.2,2.7,0.3,5.4,0,8.2    c-0.1,1.4-0.3,2.7-0.4,4.1c-0.1,1.4-0.2,2.7-0.2,4.1c0,0.7,0,1.4,0.1,2c0,0.1,0,0.3,0.1,0.3c0,0,0.1,0.1,0.1,0.1    c0.1,0,0.5,0,0.8,0c1.4-0.1,2.7-0.2,4.1-0.3l-1.1,0.9c0-2.3,0.1-4.6,0.1-6.9l0-3.5l0-3.5l0.1-3.5c0-1.1,0.1-2.3,0.1-3.5    c0.1-2.4,0.4-4.8,1.5-7l0.3,0.1c-0.1,2.3,0.1,4.6,0.4,6.9c0.1,1.1,0.3,2.3,0.4,3.5c0.1,1.2,0.2,2.3,0.3,3.5c0.1,2.4,0,4.7-0.2,7.1    c-0.2,2.3-0.4,4.7-0.9,7l-0.2,1l-0.8-0.1c-1.4-0.2-2.7-0.4-4.1-0.6c-0.3-0.1-0.6,0-1.2-0.2c-0.3-0.1-0.5-0.4-0.6-0.7    c-0.1-0.3-0.1-0.5-0.1-0.7c0-0.7,0-1.4,0-2.1c0-1.4-0.1-2.7-0.2-4.1c-0.1-1.4-0.4-2.7-0.5-4.1c-0.3-2.7-0.3-5.4-0.1-8.2    c0.1-1.4,0.2-2.7,0.3-4.1c0.1-1.4,0.3-2.7,0.6-4.1L51.7,83.4z" fill="#010101"/></g><g><path d="M108.5,67.9c0.2,0.4,0.5,0.6,0.9,0.9c0.3,0.3,0.8,0.5,1.1,0.9c0.4,0.3,0.8,0.9,1,1.5    c0.2,0.6,0.2,1.1,0.3,1.6c0.2,1.8,0.3,3.7,0.3,5.5c-0.1,1.8-0.4,3.7-0.6,5.5c-0.1,0.9-0.1,1.8-0.1,2.8c0,0.5,0,0.9,0.1,1.4    c0,0.5,0.1,0.9,0.1,1.4l-0.6-0.6c1.6-0.1,3.1-0.3,4.7-0.3l-1.2,1.2c-0.1-0.9-0.2-1.7-0.3-2.6c-0.1-0.9-0.2-1.7-0.2-2.6    c-0.1-1.7-0.1-3.5,0-5.2c0-0.9,0.1-1.7,0.2-2.6c0-0.4,0.1-0.9,0.2-1.3c0.1-0.4,0.1-0.9,0.2-1.4c0.1-0.5,0.3-1,0.5-1.4    c0.2-0.5,0.6-0.9,1-1.3c0.9-0.7,1.7-0.7,2.2-1.4l0.3,0.1c-0.1,0.5-0.4,0.9-0.7,1.2c-0.3,0.3-0.6,0.6-0.8,0.9    c-0.3,0.6-0.4,1.3-0.4,2.1c0,0.4,0,0.8,0,1.2l0.1,1.3l0.1,2.6c0.1,1.7,0.1,3.4,0,5.1l-0.1,2.6c0,0.9,0,1.7-0.1,2.6l-0.1,1.4    l-1.1-0.2c-1.5-0.2-3.1-0.6-4.6-0.8l-0.6-0.1l0-0.5c0-0.5,0.1-0.9,0.1-1.4c0-0.5,0-0.9,0-1.4c0-0.9-0.1-1.8-0.2-2.8    c-0.2-1.8-0.7-3.7-0.8-5.5c-0.1-1.8-0.1-3.7,0.1-5.5c0-0.5,0.1-0.9,0.1-1.2c0-0.3-0.1-0.6-0.3-1l-0.7-1.2    c-0.1-0.2-0.2-0.5-0.3-0.7c-0.1-0.2-0.1-0.5-0.1-0.8L108.5,67.9z" fill="#010101"/></g><g><path d="M20.6,80c0.5,0.8,0.9,1.7,1.2,2.5c0.3,0.9,0.5,1.8,0.7,2.7c0.1,0.9,0.2,1.8,0.2,2.8c0,0.9-0.2,1.8-0.4,2.7    c-0.2,0.9-0.5,1.8-0.6,2.6c-0.1,0.9-0.2,1.8,0,2.6c0,0.2,0.1,0.5,0.1,0.6c0,0.1,0,0,0-0.1c-0.1-0.1,0,0,0-0.1l1.3-0.1    c0.9-0.1,1.8-0.2,2.7-0.2l-1.3,1.2c-0.1-1.3-0.2-2.5-0.2-3.8c-0.1-1.3,0-2.5,0.1-3.8c0.1-1.3,0.2-2.5,0.5-3.8l0-0.2    c0-0.2,0-0.2,0.1-0.3l0.1-0.5l0.2-0.9c0.2-0.6,0.3-1.3,0.6-1.9l0.3,0c0.2,0.6,0.3,1.3,0.4,1.9l0.2,1l0.1,0.5c0,0.1,0,0.2,0,0.2    l0,0.2c0.2,1.3,0.3,2.5,0.4,3.8c0.1,1.3,0.1,2.5,0,3.8c-0.1,1.3-0.2,2.5-0.3,3.8l-0.1,1.4l-1.2-0.2c-0.9-0.1-1.8-0.3-2.6-0.5    l-1.3-0.3c-0.1,0-0.4-0.1-0.6-0.2c-0.3-0.2-0.4-0.5-0.4-0.7c0-0.3,0-0.5,0-0.7c0-0.9,0.1-1.8,0-2.7c0-0.9-0.1-1.8-0.3-2.7    c-0.1-0.9-0.2-1.7-0.3-2.6c0-0.9,0-1.7,0-2.6l0-1.3c0-0.4,0-0.9,0-1.3c0-0.9,0.1-1.8,0.2-2.7L20.6,80z" fill="#010101"/></g><g><path d="M28.1,47.7c0,0,4.3,1.5,8.6,2.8c4.3,1.4,8.7,2.6,8.7,2.6s-4.5-0.5-9-1.2c-4.5-0.6-9-1.4-9-1.4L28.1,47.7z" fill="#010101"/></g><g><polygon fill="#010101" points="27.2,49.7 46.5,56.9 26.4,52.5   "/></g><g><path d="M27,51.7c0,0,0.9,0.3,2.2,0.7c1.3,0.5,3,1.1,4.7,1.7c3.4,1.3,6.7,2.8,6.7,2.8s-3.6-0.8-7.1-1.4    c-1.8-0.3-3.6-0.6-4.9-0.8c-1.3-0.2-2.2-0.3-2.2-0.3L27,51.7z" fill="#010101"/></g><g><polygon fill="#010101" points="26.2,53.3 38.2,58.3 25.4,56.1   "/></g><g><path d="M11.4,57c0,0,1.3,0.5,3.2,1.4c1.9,0.9,4.5,2.1,7,3.4c2.5,1.3,5,2.7,6.8,3.7c1.8,1.1,3,1.8,3,1.8    s-1.3-0.6-3.2-1.4c-1.9-0.8-4.5-1.9-7.1-2.8c-2.6-1-5.3-1.8-7.3-2.4c-2-0.6-3.3-1-3.3-1L11.4,57z" fill="#010101"/></g><g><path d="M10.7,60.1c0,0,0.1,0,0.3,0c0.3,0,0.6,0,0.9,0.1c0.3,0.1,0.7,0.2,0.9,0.4c0.3,0.1,0.5,0.3,0.9,0.5    c1.3,0.7,3,1.5,4.7,2.3c3.4,1.6,7,3.1,7,3.1s-3.8-0.7-7.5-1.7c-1.9-0.5-3.7-1-5.1-1.5c-0.3-0.1-0.7-0.2-0.9-0.3    c-0.3-0.1-0.4-0.1-0.5-0.1c-0.1,0-0.1,0,0,0c0,0,0,0,0.1,0c0,0,0,0,0,0c0,0,0,0,0,0L10.7,60.1z" fill="#010101"/></g><g><path d="M11,62.9c0,0,0,0,0.1,0c0.1,0,0.3,0,0.5,0c0.2,0,0.3,0,0.4,0.1c0.1,0,0.1,0,0.2,0.1    c0.3,0.1,0.7,0.3,1.2,0.4c1,0.4,2.3,0.8,3.7,1.3c1.3,0.5,2.7,1,3.7,1.5c1,0.5,1.5,0.9,1.5,0.9s-0.7-0.3-1.7-0.5    c-1-0.2-2.4-0.4-3.8-0.6c-1.4-0.1-2.8-0.3-3.9-0.4c-0.5,0-1-0.1-1.3-0.1c-0.1,0-0.1,0-0.2,0c0,0,0,0,0.1,0c0.1,0,0.2,0,0.3,0    c0,0,0.1,0,0.1,0l0,0c0,0,0,0,0,0L11,62.9z" fill="#010101"/></g><g><path d="M126.5,58.1c0,0-0.1,0.1-0.2,0.2c0,0.1-0.2,0.2-0.4,0.4c-0.2,0.2-0.3,0.3-0.5,0.5    c-0.8,0.6-2.1,1.2-3.6,1.5c-0.8,0.1-1.5,0.2-2.4,0.2c-0.8,0-1.6,0-2.5,0c-1.8-0.1-3.6-0.2-5.4-0.4c-3.6-0.4-7.2-0.9-9.9-0.9    c-1.4,0-2.5,0.1-3.3,0.2C97.5,59.9,97,60,97,60s0.4-0.1,1.2-0.3c0.8-0.2,1.9-0.4,3.3-0.5c1.4-0.1,3-0.2,4.7-0.2    c1.7,0,3.5,0,5.4,0.1c1.8,0,3.6,0,5.3-0.1c0.8,0,1.6-0.1,2.4-0.2c0.7-0.1,1.4-0.2,2-0.4c1.2-0.3,2-0.8,2.4-1.2    c0.1-0.1,0.2-0.2,0.2-0.3c0.1-0.1,0.1-0.1,0.2-0.2c0.1-0.2,0.2-0.3,0.2-0.3L126.5,58.1z" fill="#010101"/></g><g><path d="M126,62.3c0,0-0.1,0-0.2,0.1c-0.2,0.1-0.4,0.2-0.8,0.3c-0.4,0.2-0.8,0.3-1.3,0.4c-0.5,0.1-1.1,0.2-1.7,0.3    c-1.2,0.2-2.6,0.2-4.1,0.1c-1.5-0.1-3-0.4-4.5-0.7c-1.5-0.3-3-0.6-4.3-0.8c-1.4-0.2-2.7-0.3-3.8-0.3c-1.1,0-2.1,0.1-2.7,0.2    c-0.6,0.1-1,0.2-1,0.2s0.3-0.1,1-0.3c0.6-0.2,1.6-0.4,2.7-0.6c1.1-0.1,2.5-0.2,3.9-0.1c1.4,0.1,2.9,0.2,4.4,0.3    c1.5,0.1,3,0.2,4.3,0.1c1.4,0,2.6-0.2,3.6-0.5c0.5-0.1,0.9-0.3,1.3-0.4c0.4-0.2,0.7-0.3,0.9-0.4c0.2-0.1,0.5-0.3,0.6-0.3    c0.2-0.1,0.2-0.1,0.2-0.1L126,62.3z" fill="#010101"/></g><g><path d="M125.7,65.4c0,0-0.1,0.1-0.2,0.2c-0.1,0.1-0.5,0.4-0.8,0.5c-0.7,0.4-1.8,0.7-2.9,0.7    c-1.2,0.1-2.4-0.1-3.6-0.2c-1.3-0.1-2.6-0.3-4-0.4c-5.4-0.6-10.8-1.2-10.8-1.2s5.4-0.1,10.9-0.3c1.4,0,2.7-0.1,4-0.1    c1.3,0,2.4,0,3.3-0.2c0.9-0.2,1.5-0.4,1.8-0.7c0.2-0.2,0.1-0.1,0.3-0.3c0.1-0.1,0.2-0.2,0.2-0.2L125.7,65.4z" fill="#010101"/></g><g><path d="M66.5,71.8c0,0,0.2-0.1,0.5-0.2c0.4-0.1,0.8-0.3,1.4-0.5c1.1-0.3,2.5-0.6,3.9-0.8c1.4-0.2,2.8-0.3,3.9-0.3    c0.6,0,1.1,0,1.4,0.1c0.4,0,0.6,0.1,0.6,0.1s-0.1,0.2-0.4,0.5c-0.2,0.3-0.6,0.6-1.1,1c-0.5,0.4-1.1,0.7-1.8,1    c-0.3,0.1-0.7,0.3-1.1,0.4c-0.4,0.1-0.8,0.2-1.2,0.2c-0.8,0.1-1.6,0.1-2.3,0.1c-0.7-0.1-1.4-0.2-2-0.4c-0.6-0.2-1.1-0.4-1.4-0.6    C66.6,72,66.5,71.8,66.5,71.8z" fill="#010101"/></g><g><path d="M67.9,74.9c0,0,0.1-0.1,0.4-0.3c0.2-0.1,0.5-0.3,0.9-0.5c0.7-0.3,1.7-0.6,2.6-0.7c0.9-0.1,1.9-0.1,2.7,0    c0.4,0.1,0.8,0.2,1,0.2c0.3,0.1,0.4,0.1,0.4,0.1s-0.1,0.2-0.2,0.4c-0.2,0.2-0.4,0.5-0.7,0.8c-0.3,0.3-0.7,0.6-1.2,0.8    c-0.5,0.2-1,0.4-1.6,0.4c-0.5,0.1-1.1,0.1-1.6,0c-0.5-0.1-1-0.2-1.4-0.4c-0.4-0.2-0.7-0.4-0.9-0.6C68.1,75,67.9,74.9,67.9,74.9z" fill="#010101"/></g><g><path d="M68.9,78.4c0,0,0.1-0.1,0.3-0.3c0.2-0.2,0.4-0.4,0.7-0.6c0.6-0.4,1.4-0.7,2.1-0.8c0.8-0.1,1.6,0,2.3,0.2    c0.3,0.1,0.6,0.2,0.9,0.3c0.2,0.1,0.4,0.2,0.4,0.2s-0.1,0.1-0.2,0.4c-0.1,0.2-0.3,0.5-0.6,0.7c-0.5,0.5-1.4,0.9-2.3,1.1    c-0.9,0.1-1.8,0-2.5-0.4c-0.3-0.2-0.6-0.4-0.8-0.5C69,78.5,68.9,78.4,68.9,78.4z" fill="#010101"/></g><g><path d="M69.7,81.9c0,0,0-0.1,0.1-0.3c0.1-0.2,0.1-0.4,0.2-0.6c0.2-0.4,0.4-0.7,0.8-0.8c0.3-0.1,0.7,0,1.1,0.2    c0.2,0.1,0.4,0.2,0.5,0.4c0.1,0.1,0.2,0.2,0.2,0.2s0,0.1,0,0.3c0,0.2,0,0.4-0.1,0.7c-0.1,0.5-0.5,0.9-0.9,1    c-0.4,0.1-0.9,0-1.3-0.3c-0.2-0.1-0.4-0.3-0.5-0.5C69.7,82,69.7,81.9,69.7,81.9z" fill="#010101"/></g><g><polygon fill="#010101" points="48.4,62.2 79.3,60 48.7,65.1   "/></g></g></svg>