<?xml version="1.0" ?><svg height="64" viewBox="0 0 64 64" width="64" xmlns="http://www.w3.org/2000/svg"><path d="M9.702 5.645c-.474-.16-2.93 2.402-2.805 2.696.12.278.71.358 1.225.278.514-.08 2.37-2.418 2.37-2.418s-.316-.396-.79-.555zm.91 24.815c-.752.238-1.897 1.03-2.45 1.744-.553.714-1.738 2.577-1.66 2.933.08.357 1.305.714 1.305.714s.08-.514 1.106-2.18c1.027-1.664 2.212-1.862 2.37-2.02.157-.16-.406-1.274-.672-1.19zm51.95 8.72c.474-.395 1.58-8.76 1.422-11.297-.158-2.537-3.516-5.906-9.837-5.153-6.32.753-9.956 3.806-10.31 4.717S44.91 37.7 44.98 37.794c2.252 2.933 7.23 2.973 7.388 3.052.158.08 0 7.89 0 8.364s-2.49-1.665-3.042-1.863c-.553-.198-2.528.317-2.647.555-.118.238-.04 2.418-.04 2.537 0 .118.12.554.99.752.868.198 1.856-.238 1.856-.238l.08-.634s2.29 1.467 2.25 1.665-5.728 3.41-5.846 3.647c-.12.238-.277 1.784.158 2.3s2.212.475 2.568.158c.356-.317.04-1.665.04-1.665s4.86-3.25 5.096-3.21c.237.04 3.674 2.576 3.674 2.576l.04 1.032s.356 1.03.91 1.15c.552.12 1.62-.12 1.856-.396s.198-1.665.04-2.18c-.158-.515-4.11-3.41-4.11-3.41s1.305-.99 1.502-1.03.356.714.514.95c.158.24 1.343-.356 1.738-.673.395-.317-.395-2.696-.632-2.933-.237-.238-4.306 1.308-4.306 1.308l-.04-8.8s.75-.04 2.963-.396c2.212-.36 4.108-.834 4.582-1.23zm-7.9-14.19c5.41.16 6.952 1.903 7.11 2.894.158.99-1.896 2.34-6.48 2.616s-8.02-.277-8.572-2.34c-.113-.42 2.53-3.33 7.94-3.17zm2.606 13.28c-.12-.16-1.383-2.697-1.7-2.697-.315 0-.908.16-.83.396.08.237 1.858 2.576 1.502 2.655-.356.08-.988.04-.988.04s-1.027-2.18-1.383-2.378c-.357-.198-.95 0-.83.238.118.238 1.303 2.34 1.105 2.378-.198.04-1.66.198-3.753-.476-2.094-.674-3.12-1.19-3.16-1.467-.04-.277-.317-5.51-.16-5.55 0 0 2.41 1.308 7.942.99s6.282-.792 6.282-.792-.316 4.123-.474 4.083c-.158-.04-1.58-2.22-1.58-2.22s-1.027.358-.87.635 2.134 2.854 1.897 3.092c-.238.238-.594.515-.712.317s-1.936-2.894-2.173-2.894-.75.555-.75.555 2.132 2.894 1.895 2.933c-.234.043-1.143.32-1.262.16zm-16.83.118c-.158-8.8-6.637-12.606-6.637-12.606s1.66-.674 1.976-1.03c.316-.358 2.212-9.118 1.7-11.1s-3.043-3.766-9.048-3.528-8.652 2.418-9.008 3.488c-.356 1.07 1.106 8.126 1.106 8.126s-6.677 2.418-6.914 2.577c-.237.16-1.422-13.795-1.422-13.993s.948-.436 3.2-1.308c2.252-.872 3.477-2.06 4.938-3.29s1.54-2.26 1.146-2.775c-.395-.516-9.52.435-9.52.435S11.2 1.522 9.78 2.115 8.95 3.98 8.95 3.98.458 10.877.458 11.314c0 .436.988.595 3.99.515s5.49-.675 5.49-.675L11.36 24.87c-2.963.794-7.704 4.44-9.442 8.127s-2.884 8.364-.79 14.43 6.48 7.927 6.48 7.927l-3.675 4.36s-1.067.04-1.896.753c-.83.714-.75 1.705.553 2.26s3.32.16 3.99-.277c.672-.436-.316-1.586-.316-1.744s3.714-4.48 3.714-4.48l1.185.358s.91 2.022 1.54 3.052 1.62 1.467 2.45 1.27c.83-.2 3.12-3.33 3.12-3.33s2.727.118 6.006-.358 4.977-1.23 4.977-1.23l2.647 2.617s-.237.832-.356 1.07c-.12.238.198.634 1.106 1.546.91.913 3.516.358 4.07-.118.552-.476.79-1.784-.04-2.656s-1.937-.634-1.937-.634l-3.2-2.894s1.54-.476 3.714-2.22c2.176-1.743 5.337-5.51 5.178-14.31zm-6.36-17.164c-.08-.16-.83-1.784-1.185-1.784s-1.067.555-1.067.555 2.173 3.488 1.896 3.568c-.277.08-1.067 0-1.146-.12-.08-.118-1.462-2.932-1.738-3.012-.277-.078-.988.318-.988.318s1.778 3.052 1.58 3.132c-.198.08-.75.04-.83-.08-.08-.118-.988-2.496-1.225-2.536-.237-.04-.988.198-.87.396s1.186 2.22 1.028 2.18-1.975-1.506-4.03-1.665-3.003-.277-3.042-.436c-.04-.16-.75-4.877-.552-4.996.365-.22 2.924 1.07 6.558.912 3.635-.16 6.598-1.506 6.756-1.387.16.118-1.065 5.113-1.144 4.954zm-6.124-9.355c4.188-.2 6.953.713 7.27 1.466s-3.636 2.458-7.626 2.458-5.452-1.11-5.808-1.823c-.102-.207 1.976-1.903 6.164-2.1zM3.38 10.36c-.406-.013 5.492-5.43 5.927-5.43s.87.356 1.62-.08c.75-.436.948-.714.948-.714s7.94-.238 7.98 0c.04.238-.948 1.705-5.333 3.647s-8.652 2.657-11.14 2.577zm21.61 33.18c.2.238 4.19 4.083 4.15 4.28s-.554 1.626-.712 1.547c-.158-.08-3.753-4.163-3.95-4.243-.2-.08-.99.595-.752.95.237.358 4.267 4.44 4.267 4.64 0 .197-.988 1.505-.988 1.505s-3.832-4.995-4.03-4.995c-.198 0-.87.714-.672.99.198.278 4.188 4.718 3.99 4.996-.198.277-1.185.714-1.185.714s-3.437-4.678-3.674-4.678c-.237 0-.83.475-.71.792.118.317 3.752 4.28 3.436 4.4-.316.12-1.66.595-1.7.436s-2.527-3.964-2.764-4.043c-.237-.08-.948.357-.87.476.08.12 2.608 3.807 2.37 3.846-.236.04-1.698 0-1.698 0s-1.778-2.814-1.936-2.854c-.158-.04-.91.12-.91.396s1.66 2.577 1.384 2.656c-.277.08-4.978-.476-4.978-.476s-1.146-1.308-1.62-3.013c-.474-1.705-.316-2.696-.316-2.696s2.49-.318 2.568-2.3c.08-1.982-1.738-2.854-3.674-2.894S7.29 45.918 7.33 46.91c.04.99 1.185 1.822 1.185 1.822s0 1.942.277 3.013.553 1.823.553 1.823-5.017-2.814-6.163-8.443-.12-15.34 9.324-18.076c3.646-1.057 9.995-.12 13.63 2.932s4.346 10.584 4.346 10.584-2.45-2.894-2.845-2.973-.553.595-.553.595 3.28 3.766 3.358 4.083-.158 1.745-.237 1.626c-.08-.12-3.398-4.162-3.674-4.202-.276-.04-.71.753-.552.95.158.2 4.07 4.243 4.03 4.48s-.632 1.23-.632 1.23-3.635-3.727-3.793-3.767c-.157-.036-.79.717-.592.955zm7.23 8.522c-1.184.95-2.883 1.506-2.883 1.506s4.543-7.016 3.91-14.072-3.04-9.672-5.332-11.456c-2.29-1.784-8.455-3.092-8.613-3.21-.158-.12 2.133-1.23 2.41-1.27 0 0 8.336.793 11.97 5.233S38.7 36.13 37.477 42.59c-1.225 6.462-4.07 8.523-5.255 9.474zm16.633-18.55c-.12.197-.08 2.496-.08 2.496s.554.317.83.317c.278 0 .2-2.418.16-2.577-.04-.158-.828-.373-.91-.237z"/></svg>