<?xml version="1.0" ?><!DOCTYPE svg  PUBLIC '-//W3C//DTD SVG 1.1//EN'  'http://www.w3.org/Graphics/SVG/1.1/DTD/svg11.dtd'><svg enable-background="new 0 0 65 65" height="65px" id="Layer_1" version="1.1" viewBox="0 0 65 65" width="65px" xml:space="preserve" xmlns="http://www.w3.org/2000/svg" xmlns:xlink="http://www.w3.org/1999/xlink"><path d="M32.503,2.466c-17.709,0-32.117,12.811-32.117,28.557c0,6.693,2.63,13.133,7.421,18.254L2.286,60.364  c-0.016,0.031-0.023,0.064-0.037,0.097c-0.021,0.052-0.044,0.104-0.06,0.158c-0.013,0.045-0.02,0.09-0.028,0.135  c-0.01,0.051-0.021,0.101-0.025,0.152c-0.004,0.049-0.002,0.098-0.001,0.146c0.001,0.048,0,0.097,0.005,0.146  c0.006,0.054,0.019,0.106,0.031,0.159c0.008,0.036,0.01,0.071,0.021,0.106c0.002,0.006,0.006,0.01,0.008,0.016  c0.043,0.137,0.108,0.265,0.188,0.385c0.017,0.024,0.032,0.048,0.05,0.07c0.083,0.11,0.179,0.211,0.292,0.296  c0.016,0.012,0.033,0.02,0.048,0.031c0.059,0.04,0.116,0.082,0.182,0.114c0.043,0.021,0.089,0.031,0.134,0.048  c0.039,0.016,0.076,0.03,0.116,0.042c0.139,0.04,0.278,0.067,0.418,0.067l0,0c0,0,0,0,0,0c0.002,0,0.005-0.001,0.007-0.001  c0.14-0.001,0.278-0.022,0.411-0.061c0.004-0.001,0.009-0.001,0.013-0.002l16.493-4.94c3.802,1.356,7.817,2.051,11.95,2.051  c17.706,0,32.111-12.811,32.111-28.557C64.614,15.277,50.209,2.466,32.503,2.466z M32.503,56.58c-3.95,0-7.782-0.684-11.39-2.032  c-0.013-0.005-0.025-0.006-0.038-0.01c-0.055-0.02-0.111-0.031-0.168-0.044c-0.039-0.009-0.078-0.02-0.117-0.024  c-0.056-0.008-0.112-0.009-0.168-0.01c-0.042-0.001-0.084-0.004-0.126-0.001c-0.05,0.003-0.1,0.013-0.149,0.021  c-0.049,0.009-0.099,0.016-0.146,0.029c-0.014,0.004-0.028,0.004-0.042,0.008L6.515,58.604l4.45-8.937  c0.014-0.028,0.021-0.058,0.032-0.086c0.008-0.018,0.013-0.034,0.02-0.053c0.065-0.17,0.098-0.345,0.1-0.52  c0-0.011-0.001-0.021-0.001-0.032c-0.003-0.184-0.038-0.362-0.105-0.531c-0.004-0.01-0.008-0.019-0.013-0.028  c-0.073-0.174-0.178-0.332-0.313-0.469c-0.003-0.004-0.004-0.009-0.008-0.012c-4.702-4.674-7.291-10.68-7.291-16.914  c0-14.092,13.062-25.557,29.117-25.557c16.052,0,29.111,11.465,29.111,25.557C61.614,45.115,48.555,56.58,32.503,56.58z"/><circle cx="40.758" cy="23.626" r="2.98"/><circle cx="24.24" cy="23.626" r="2.98"/><path d="M41.746,38.084c-5.614,2.43-12.873,2.431-18.492,0c-0.762-0.331-1.643,0.021-1.972,0.781  c-0.329,0.761,0.021,1.644,0.782,1.973c3.17,1.371,6.804,2.057,10.438,2.057s7.267-0.686,10.436-2.057  c0.761-0.329,1.11-1.212,0.781-1.973C43.39,38.105,42.509,37.754,41.746,38.084z"/></svg>