<?xml version="1.0" ?><svg height="32" id="svg7727" version="1.1" viewBox="0 0 32 32" width="32" xmlns="http://www.w3.org/2000/svg" xmlns:cc="http://creativecommons.org/ns#" xmlns:dc="http://purl.org/dc/elements/1.1/" xmlns:inkscape="http://www.inkscape.org/namespaces/inkscape" xmlns:rdf="http://www.w3.org/1999/02/22-rdf-syntax-ns#" xmlns:sodipodi="http://sodipodi.sourceforge.net/DTD/sodipodi-0.dtd" xmlns:svg="http://www.w3.org/2000/svg"><defs id="defs7729"><pattern height="6" id="EMFhbasepattern" patternUnits="userSpaceOnUse" width="6" x="0" y="0"/><pattern height="6" id="EMFhbasepattern-6" patternUnits="userSpaceOnUse" width="6" x="0" y="0"/><pattern height="6" id="EMFhbasepattern-9" patternUnits="userSpaceOnUse" width="6" x="0" y="0"/><pattern height="6" id="EMFhbasepattern-0" patternUnits="userSpaceOnUse" width="6" x="0" y="0"/><pattern height="6" id="EMFhbasepattern-1" patternUnits="userSpaceOnUse" width="6" x="0" y="0"/><pattern height="6" id="EMFhbasepattern-2" patternUnits="userSpaceOnUse" width="6" x="0" y="0"/><pattern height="6" id="EMFhbasepattern-5" patternUnits="userSpaceOnUse" width="6" x="0" y="0"/><pattern height="6" id="EMFhbasepattern-19" patternUnits="userSpaceOnUse" width="6" x="0" y="0"/><pattern height="6" id="EMFhbasepattern-17" patternUnits="userSpaceOnUse" width="6" x="0" y="0"/><pattern height="6" id="EMFhbasepattern-8" patternUnits="userSpaceOnUse" width="6" x="0" y="0"/><pattern height="6" id="EMFhbasepattern-22" patternUnits="userSpaceOnUse" width="6" x="0" y="0"/><pattern height="6" id="EMFhbasepattern-60" patternUnits="userSpaceOnUse" width="6" x="0" y="0"/><pattern height="6" id="EMFhbasepattern-54" patternUnits="userSpaceOnUse" width="6" x="0" y="0"/><pattern height="6" id="EMFhbasepattern-4" patternUnits="userSpaceOnUse" width="6" x="0" y="0"/><pattern height="6" id="EMFhbasepattern-48" patternUnits="userSpaceOnUse" width="6" x="0" y="0"/><pattern height="6" id="EMFhbasepattern-04" patternUnits="userSpaceOnUse" width="6" x="0" y="0"/><pattern height="6" id="EMFhbasepattern-14" patternUnits="userSpaceOnUse" width="6" x="0" y="0"/><pattern height="6" id="EMFhbasepattern-18" patternUnits="userSpaceOnUse" width="6" x="0" y="0"/><pattern height="6" id="EMFhbasepattern-50" patternUnits="userSpaceOnUse" width="6" x="0" y="0"/><pattern height="6" id="EMFhbasepattern-91" patternUnits="userSpaceOnUse" width="6" x="0" y="0"/><pattern height="6" id="EMFhbasepattern-05" patternUnits="userSpaceOnUse" width="6" x="0" y="0"/><pattern height="6" id="EMFhbasepattern-57" patternUnits="userSpaceOnUse" width="6" x="0" y="0"/><pattern height="6" id="EMFhbasepattern-59" patternUnits="userSpaceOnUse" width="6" x="0" y="0"/><pattern height="6" id="EMFhbasepattern-11" patternUnits="userSpaceOnUse" width="6" x="0" y="0"/><pattern height="6" id="EMFhbasepattern-7" patternUnits="userSpaceOnUse" width="6" x="0" y="0"/><pattern height="6" id="EMFhbasepattern-96" patternUnits="userSpaceOnUse" width="6" x="0" y="0"/><pattern height="6" id="EMFhbasepattern-95" patternUnits="userSpaceOnUse" width="6" x="0" y="0"/></defs><g id="layer1" transform="translate(0,-1020.3622)"><g id="g19259" transform="translate(-3427.852,-18.038485)"><path d="m 3456.3155,1057.8953 a 12.375,12.375 0 0 1 -12.375,12.375 12.375,12.375 0 0 1 -12.375,-12.375 12.375,12.375 0 0 1 12.375,-12.375 12.375,12.375 0 0 1 12.375,12.375 z" id="path19189" style="opacity:1;fill:#b4ea7a;fill-opacity:1;stroke:none;stroke-width:1;stroke-linecap:round;stroke-linejoin:round;stroke-miterlimit:4;stroke-dasharray:none;stroke-dashoffset:0;stroke-opacity:1"/><g id="g19257" style="stroke:#3a3640;stroke-opacity:1" transform="translate(3427.852,18.16887)"><g id="g19215" style="stroke:#3a3640;stroke-opacity:1"><g id="g19213" style="stroke:#3a3640;stroke-opacity:1"><g id="g19211" style="stroke:#3a3640;stroke-opacity:1" transform="translate(-1.1791203,-0.91995)"><g id="g19205" style="stroke:#3a3640;stroke-opacity:1" transform="matrix(-1,0,0,1,60.911759,-1.58)"><path d="m 52.250002,1023.3622 6.75,0" id="path19191" style="fill:none;fill-rule:evenodd;stroke:#3a3640;stroke-width:1px;stroke-linecap:round;stroke-linejoin:round;stroke-opacity:1"/><g id="g19197" style="stroke:#3a3640;stroke-opacity:1" transform="matrix(0.81915204,0.57357643,0.57357643,-0.81915204,-581.53753,1844.7066)"><path d="m 1032.3622,-54 a 1.5000001,2.5 0 0 1 -1.5,2.5 1.5000001,2.5 0 0 1 -1.5,-2.5 1.5000001,2.5 0 0 1 1.5,-2.5 1.5000001,2.5 0 0 1 1.5,2.5 z" id="path19193" style="opacity:1;fill:none;fill-opacity:1;stroke:#3a3640;stroke-width:1;stroke-linecap:round;stroke-linejoin:round;stroke-miterlimit:4;stroke-dasharray:none;stroke-opacity:1" transform="matrix(0,1,-1,0,0,0)"/><path d="m 1031.1122,-51.500042 5.248,-0.0062 a 1.0781168,2.5 0 0 0 1.0019,-2.51776 1.0781168,2.5 0 0 0 -1.0226,-2.472687 l -5.4773,-0.0033" id="path19195" style="opacity:1;fill:none;fill-opacity:1;stroke:#3a3640;stroke-width:1;stroke-linecap:round;stroke-linejoin:round;stroke-miterlimit:4;stroke-dasharray:none;stroke-opacity:1" transform="matrix(0,1,-1,0,0,0)"/></g><g id="g19203" style="stroke:#3a3640;stroke-opacity:1"><path d="m 53.750002,1023.3622 0,3.75" id="path19199" style="fill:none;fill-rule:evenodd;stroke:#3a3640;stroke-width:1px;stroke-linecap:butt;stroke-linejoin:miter;stroke-opacity:1"/><path d="m 57.500002,1023.1747 0,7.4375" id="path19201" style="fill:none;fill-rule:evenodd;stroke:#3a3640;stroke-width:1px;stroke-linecap:butt;stroke-linejoin:miter;stroke-opacity:1"/></g></g><path d="m 6.7500003,1031.6122 7.1791207,17.6699" id="path19207" style="fill:none;fill-rule:evenodd;stroke:#3a3640;stroke-width:1px;stroke-linecap:round;stroke-linejoin:round;stroke-opacity:1"/><path d="m 9.0000004,1030.1122 19.0000006,16.25" id="path19209" style="fill:none;fill-rule:evenodd;stroke:#3a3640;stroke-width:1px;stroke-linecap:round;stroke-linejoin:round;stroke-opacity:1"/></g></g></g><g id="g19241" style="stroke:#3a3640;stroke-opacity:1" transform="matrix(-1,0,0,1,32,0)"><g id="g19239" style="stroke:#3a3640;stroke-opacity:1"><g id="g19237" style="stroke:#3a3640;stroke-opacity:1" transform="translate(-1.1791203,-0.91995)"><g id="g19231" style="stroke:#3a3640;stroke-opacity:1" transform="matrix(-1,0,0,1,60.911759,-1.58)"><path d="m 52.250002,1023.3622 6.75,0" id="path19217" style="fill:none;fill-rule:evenodd;stroke:#3a3640;stroke-width:1px;stroke-linecap:round;stroke-linejoin:round;stroke-opacity:1"/><g id="g19223" style="stroke:#3a3640;stroke-opacity:1" transform="matrix(0.81915204,0.57357643,0.57357643,-0.81915204,-581.53753,1844.7066)"><path d="m 1032.3622,-54 a 1.5000001,2.5 0 0 1 -1.5,2.5 1.5000001,2.5 0 0 1 -1.5,-2.5 1.5000001,2.5 0 0 1 1.5,-2.5 1.5000001,2.5 0 0 1 1.5,2.5 z" id="path19219" style="opacity:1;fill:none;fill-opacity:1;stroke:#3a3640;stroke-width:1;stroke-linecap:round;stroke-linejoin:round;stroke-miterlimit:4;stroke-dasharray:none;stroke-opacity:1" transform="matrix(0,1,-1,0,0,0)"/><path d="m 1031.1122,-51.500042 5.248,-0.0062 a 1.0781168,2.5 0 0 0 1.0019,-2.51776 1.0781168,2.5 0 0 0 -1.0226,-2.472687 l -5.4773,-0.0033" id="path19221" style="opacity:1;fill:none;fill-opacity:1;stroke:#3a3640;stroke-width:1;stroke-linecap:round;stroke-linejoin:round;stroke-miterlimit:4;stroke-dasharray:none;stroke-opacity:1" transform="matrix(0,1,-1,0,0,0)"/></g><g id="g19229" style="stroke:#3a3640;stroke-opacity:1"><path d="m 53.750002,1023.3622 0,3.75" id="path19225" style="fill:none;fill-rule:evenodd;stroke:#3a3640;stroke-width:1px;stroke-linecap:butt;stroke-linejoin:miter;stroke-opacity:1"/><path d="m 57.500002,1023.1747 0,7.4375" id="path19227" style="fill:none;fill-rule:evenodd;stroke:#3a3640;stroke-width:1px;stroke-linecap:butt;stroke-linejoin:miter;stroke-opacity:1"/></g></g><path d="m 6.7500003,1031.6122 7.1791197,17.6699" id="path19233" style="fill:none;fill-rule:evenodd;stroke:#3a3640;stroke-width:1px;stroke-linecap:round;stroke-linejoin:round;stroke-opacity:1"/><path d="m 9.0000004,1030.1122 19.0000006,16.25" id="path19235" style="fill:none;fill-rule:evenodd;stroke:#3a3640;stroke-width:1px;stroke-linecap:round;stroke-linejoin:round;stroke-opacity:1"/></g></g></g><path d="m 6.5,1040.1122 a 1,1 0 0 1 -1,1 1,1 0 0 1 -1,-1 1,1 0 0 1 1,-1 1,1 0 0 1 1,1 z" id="path19243" style="opacity:1;fill:none;fill-opacity:1;stroke:#3a3640;stroke-width:1;stroke-linecap:round;stroke-linejoin:round;stroke-miterlimit:4;stroke-dasharray:none;stroke-opacity:1"/><path d="m 25.000002,1046.3622 a 1,1 0 0 1 -1,1 1,1 0 0 1 -1,-1 1,1 0 0 1 1,-1 1,1 0 0 1 1,1 z" id="path19245" style="opacity:1;fill:none;fill-opacity:1;stroke:#3a3640;stroke-width:1;stroke-linecap:round;stroke-linejoin:round;stroke-miterlimit:4;stroke-dasharray:none;stroke-opacity:1"/><path d="m 19.250069,1042.6123 -1.666712,-0.7144 -0.833356,-1.7857 -0.833356,1.7857 -1.666712,0.7144 1.666712,0.7143 0.833356,1.7858 0.833356,-1.7858 z" id="path19247" style="fill:none;fill-rule:evenodd;stroke:#3a3640;stroke-width:1.00000262;stroke-linecap:round;stroke-linejoin:round;stroke-miterlimit:4;stroke-dasharray:none;stroke-opacity:1"/><path d="m 28.500002,1036.1122 a 1,1 0 0 1 -1,1 1,1 0 0 1 -1,-1 1,1 0 0 1 1,-1 1,1 0 0 1 1,1 z" id="path19249" style="opacity:1;fill:none;fill-opacity:1;stroke:#3a3640;stroke-width:1;stroke-linecap:round;stroke-linejoin:round;stroke-miterlimit:4;stroke-dasharray:none;stroke-opacity:1"/><path d="m 10,1046.1122 a 0.5,0.5 0 0 1 -0.5,0.5 0.5,0.5 0 0 1 -0.5,-0.5 0.5,0.5 0 0 1 0.5,-0.5 0.5,0.5 0 0 1 0.5,0.5 z" id="path19251" style="opacity:1;fill:#3a3640;fill-opacity:1;stroke:none;stroke-width:0.5;stroke-linecap:round;stroke-linejoin:round;stroke-miterlimit:4;stroke-dasharray:none;stroke-opacity:1"/><path d="m 19,1049.8622 a 0.5,0.5 0 0 1 -0.5,0.5 0.5,0.5 0 0 1 -0.5,-0.5 0.5,0.5 0 0 1 0.5,-0.5 0.5,0.5 0 0 1 0.5,0.5 z" id="path19253" style="opacity:1;fill:#3a3640;fill-opacity:1;stroke:none;stroke-width:0.5;stroke-linecap:round;stroke-linejoin:round;stroke-miterlimit:4;stroke-dasharray:none;stroke-opacity:1"/><path d="m 4.2500002,1046.6122 a 0.5,0.5 0 0 1 -0.5,0.5 0.5,0.5 0 0 1 -0.5,-0.5 0.5,0.5 0 0 1 0.5,-0.5 0.5,0.5 0 0 1 0.5,0.5 z" id="path19255" style="opacity:1;fill:#3a3640;fill-opacity:1;stroke:none;stroke-width:0.5;stroke-linecap:round;stroke-linejoin:round;stroke-miterlimit:4;stroke-dasharray:none;stroke-opacity:1"/></g></g></g></svg>