<?xml version="1.0" encoding="utf-8"?>
<svg id="master-artboard" viewBox="0 0 1400 1400" version="1.1" xmlns="http://www.w3.org/2000/svg" x="0px" y="0px" width="1400px" height="1400px" enable-background="new 0 0 1400 1400">
<path d="M 0 0 H 1400 V 1400 H 0 V 0 Z" fill="#BFBFBF"/>
<g>
	<g>
		<path d="M 272.299988 95.099998 H 1127.700012 V 1304.900047 H 272.299988 V 95.099998 Z" fill="#FDF7C6"/>
		
			<path d="M 116.699997 293.899994 H 1283.299973 V 1106.199982 H 116.699997 V 293.899994 Z" transform="matrix(-1.836970e-16 1 -1 -1.836970e-16 1399.9993 1.409622e-04)" fill="#11273C" style="fill: rgb(0, 0, 0);"/>
	</g>
	<g>
		<path fill="#FD6900" d="M607.6,487.4c0.2,0,0.3,0,0.5,0c33.1,0,59.9-26.8,59.9-59.9c0-33.1-26.8-59.9-59.9-59.9&#10;&#9;&#9;&#9;c-0.2,0-0.3,0-0.5,0V487.4z"/>
		<path fill="#FD6900" d="M611.2,780.9c0-0.2,0-0.3,0-0.5c0-33.1-26.8-59.9-59.9-59.9s-59.9,26.8-59.9,59.9c0,0.2,0,0.3,0,0.5H611.2&#10;&#9;&#9;&#9;z"/>
		<path fill="#FDC800" d="M947.8,610.7c0-4.3-3.5-7.8-7.8-7.8h-77.6c-4.7,0-8.6-3.8-8.6-8.6v-0.8c0-4.7,3.8-8.6,8.6-8.6h20.3&#10;&#9;&#9;&#9;c4.3,0,7.8-3.5,7.8-7.8l0,0c0-4.3-3.5-7.8-7.8-7.8h-13.6c-4.7,0-8.6-3.8-8.6-8.6l0,0c0-4.7,3.8-8.6,8.6-8.6h53.7&#10;&#9;&#9;&#9;c4.3,0,7.8-3.5,7.8-7.8l0,0c0-4.3-3.5-7.8-7.8-7.8h-69.4c-4.5,0-8.2-3.7-8.2-8.2l0,0c0-4.5,3.7-8.2,8.2-8.2h29.3&#10;&#9;&#9;&#9;c4.3,0,7.8-3.5,7.8-7.8v0c0-4.3-3.5-7.8-7.8-7.8H659.1c-4.3,0-7.8,3.5-7.8,7.8v0c0,4.3,3.5,7.8,7.8,7.8h62.2&#10;&#9;&#9;&#9;c4.5,0,8.2,3.7,8.2,8.2l0,0c0,4.5-3.7,8.2-8.2,8.2h-22.1c-4.3,0-7.8,3.5-7.8,7.8l0,0c0,4.3,3.5,7.8,7.8,7.8h72.6&#10;&#9;&#9;&#9;c4.7,0,8.6,3.8,8.6,8.6l0,0c0,4.7-3.8,8.6-8.6,8.6H565.7c-4.3,0-7.8,3.5-7.8,7.8l0,0c0,4.3,3.5,7.8,7.8,7.8h106&#10;&#9;&#9;&#9;c4.7,0,8.6,3.8,8.6,8.6v0.8c0,4.7-3.8,8.6-8.6,8.6h-13c-4.3,0-7.8,3.5-7.8,7.8l0,0c0,4.3,3.5,7.8,7.8,7.8H940&#10;&#9;&#9;&#9;C944.3,618.5,947.8,615,947.8,610.7L947.8,610.7z"/>
		<path fill="#03B1D8" d="M776.2,345.5c0-2.7-2.2-4.9-4.9-4.9h-48.9c-3,0-5.4-2.4-5.4-5.4v-0.5c0-3,2.4-5.4,5.4-5.4h12.8&#10;&#9;&#9;&#9;c2.7,0,4.9-2.2,4.9-4.9v0c0-2.7-2.2-4.9-4.9-4.9h-8.6c-3,0-5.4-2.4-5.4-5.4l0,0c0-3,2.4-5.4,5.4-5.4h33.8c2.7,0,4.9-2.2,4.9-4.9&#10;&#9;&#9;&#9;l0,0c0-2.7-2.2-4.9-4.9-4.9h-43.7c-2.8,0-5.2-2.3-5.2-5.2l0,0c0-2.8,2.3-5.2,5.2-5.2h18.4c2.7,0,4.9-2.2,4.9-4.9v0&#10;&#9;&#9;&#9;c0-2.7-2.2-4.9-4.9-4.9H594.5c-2.7,0-4.9,2.2-4.9,4.9v0c0,2.7,2.2,4.9,4.9,4.9h39.2c2.8,0,5.2,2.3,5.2,5.2l0,0&#10;&#9;&#9;&#9;c0,2.8-2.3,5.2-5.2,5.2h-13.9c-2.7,0-4.9,2.2-4.9,4.9l0,0c0,2.7,2.2,4.9,4.9,4.9h45.7c3,0,5.4,2.4,5.4,5.4l0,0&#10;&#9;&#9;&#9;c0,3-2.4,5.4-5.4,5.4H535.7c-2.7,0-4.9,2.2-4.9,4.9v0c0,2.7,2.2,4.9,4.9,4.9h66.7c3,0,5.4,2.4,5.4,5.4v0.5c0,3-2.4,5.4-5.4,5.4&#10;&#9;&#9;&#9;h-8.2c-2.7,0-4.9,2.2-4.9,4.9l0,0c0,2.7,2.2,4.9,4.9,4.9h177.1C774,350.4,776.2,348.2,776.2,345.5L776.2,345.5z"/>
		<path fill="#FDC800" d="M859.9,841.7c0-4.5-3.6-8.1-8.1-8.1h-81.3c-5,0-9-4-9-9v-0.9c0-5,4-9,9-9h21.3c4.5,0,8.1-3.6,8.1-8.1l0,0&#10;&#9;&#9;&#9;c0-4.5-3.6-8.1-8.1-8.1h-14.2c-5,0-9-4-9-9l0,0c0-5,4-9,9-9h56.2c4.5,0,8.1-3.6,8.1-8.1l0,0c0-4.5-3.6-8.1-8.1-8.1h-72.6&#10;&#9;&#9;&#9;c-4.7,0-8.6-3.8-8.6-8.6l0,0c0-4.7,3.8-8.6,8.6-8.6h30.6c4.5,0,8.1-3.6,8.1-8.1l0,0c0-4.5-3.6-8.1-8.1-8.1H557.7&#10;&#9;&#9;&#9;c-4.5,0-8.1,3.6-8.1,8.1l0,0c0,4.5,3.6,8.1,8.1,8.1h65.1c4.7,0,8.6,3.8,8.6,8.6l0,0c0,4.7-3.8,8.6-8.6,8.6h-23.1&#10;&#9;&#9;&#9;c-4.5,0-8.1,3.6-8.1,8.1l0,0c0,4.5,3.6,8.1,8.1,8.1h76c5,0,9,4,9,9l0,0c0,5-4,9-9,9H459.8c-4.5,0-8.1,3.6-8.1,8.1l0,0&#10;&#9;&#9;&#9;c0,4.5,3.6,8.1,8.1,8.1h111c5,0,9,4,9,9v0.9c0,5-4,9-9,9h-13.6c-4.5,0-8.1,3.6-8.1,8.1l0,0c0,4.5,3.6,8.1,8.1,8.1h294.6&#10;&#9;&#9;&#9;C856.3,849.8,859.9,846.2,859.9,841.7L859.9,841.7z"/>
		<path fill="#FDC800" d="M971.9,983.2c0-4.5-3.6-8.1-8.1-8.1h-81.3c-5,0-9-4-9-9v-0.9c0-5,4-9,9-9h21.3c4.5,0,8.1-3.6,8.1-8.1l0,0&#10;&#9;&#9;&#9;c0-4.5-3.6-8.1-8.1-8.1h-14.2c-5,0-9-4-9-9l0,0c0-5,4-9,9-9h56.2c4.5,0,8.1-3.6,8.1-8.1l0,0c0-4.5-3.6-8.1-8.1-8.1h-72.6&#10;&#9;&#9;&#9;c-4.7,0-8.6-3.8-8.6-8.6l0,0c0-4.7,3.8-8.6,8.6-8.6h30.6c4.5,0,8.1-3.6,8.1-8.1v0c0-4.5-3.6-8.1-8.1-8.1H669.7&#10;&#9;&#9;&#9;c-4.5,0-8.1,3.6-8.1,8.1v0c0,4.5,3.6,8.1,8.1,8.1h65.1c4.7,0,8.6,3.8,8.6,8.6l0,0c0,4.7-3.8,8.6-8.6,8.6h-23.1&#10;&#9;&#9;&#9;c-4.5,0-8.1,3.6-8.1,8.1l0,0c0,4.5,3.6,8.1,8.1,8.1h76c5,0,9,4,9,9l0,0c0,5-4,9-9,9H571.8c-4.5,0-8.1,3.6-8.1,8.1l0,0&#10;&#9;&#9;&#9;c0,4.5,3.6,8.1,8.1,8.1h111c5,0,9,4,9,9v0.9c0,5-4,9-9,9h-13.6c-4.5,0-8.1,3.6-8.1,8.1l0,0c0,4.5,3.6,8.1,8.1,8.1h294.6&#10;&#9;&#9;&#9;C968.3,991.3,971.9,987.7,971.9,983.2L971.9,983.2z"/>
		<path fill="#FD6900" d="M959.1,796.8c0-4.5-3.6-8.1-8.1-8.1h-81.3c-5,0-9-4-9-9v-0.9c0-5,4-9,9-9h21.3c4.5,0,8.1-3.6,8.1-8.1l0,0&#10;&#9;&#9;&#9;c0-4.5-3.6-8.1-8.1-8.1h-14.2c-5,0-9-4-9-9l0,0c0-5,4-9,9-9h56.2c4.5,0,8.1-3.6,8.1-8.1l0,0c0-4.5-3.6-8.1-8.1-8.1h-72.6&#10;&#9;&#9;&#9;c-4.7,0-8.6-3.8-8.6-8.6l0,0c0-4.7,3.8-8.6,8.6-8.6h30.6c4.5,0,8.1-3.6,8.1-8.1l0,0c0-4.5-3.6-8.1-8.1-8.1H656.8&#10;&#9;&#9;&#9;c-4.5,0-8.1,3.6-8.1,8.1l0,0c0,4.5,3.6,8.1,8.1,8.1H722c4.7,0,8.6,3.8,8.6,8.6l0,0c0,4.7-3.8,8.6-8.6,8.6h-23.1&#10;&#9;&#9;&#9;c-4.5,0-8.1,3.6-8.1,8.1l0,0c0,4.5,3.6,8.1,8.1,8.1h76c5,0,9,4,9,9l0,0c0,5-4,9-9,9H559c-4.5,0-8.1,3.6-8.1,8.1l0,0&#10;&#9;&#9;&#9;c0,4.5,3.6,8.1,8.1,8.1h111c5,0,9,4,9,9v0.9c0,5-4,9-9,9h-13.6c-4.5,0-8.1,3.6-8.1,8.1l0,0c0,4.5,3.6,8.1,8.1,8.1h294.6&#10;&#9;&#9;&#9;C955.4,804.9,959.1,801.3,959.1,796.8L959.1,796.8z"/>
		<path fill="#FD6900" d="M817.3,621c0-4.2-3.4-7.5-7.5-7.5h-75.1c-4.6,0-8.3-3.7-8.3-8.3v-0.8c0-4.6,3.7-8.3,8.3-8.3h19.6&#10;&#9;&#9;&#9;c4.2,0,7.5-3.4,7.5-7.5l0,0c0-4.2-3.4-7.5-7.5-7.5h-13.1c-4.6,0-8.3-3.7-8.3-8.3l0,0c0-4.6,3.7-8.3,8.3-8.3h52&#10;&#9;&#9;&#9;c4.2,0,7.5-3.4,7.5-7.5l0,0c0-4.2-3.4-7.5-7.5-7.5H726c-4.4,0-7.9-3.5-7.9-7.9l0,0c0-4.4,3.5-7.9,7.9-7.9h28.3&#10;&#9;&#9;&#9;c4.2,0,7.5-3.4,7.5-7.5l0,0c0-4.2-3.4-7.5-7.5-7.5H538c-4.2,0-7.5,3.4-7.5,7.5l0,0c0,4.2,3.4,7.5,7.5,7.5h60.2&#10;&#9;&#9;&#9;c4.4,0,7.9,3.5,7.9,7.9l0,0c0,4.4-3.5,7.9-7.9,7.9h-21.4c-4.2,0-7.5,3.4-7.5,7.5l0,0c0,4.2,3.4,7.5,7.5,7.5h70.3&#10;&#9;&#9;&#9;c4.6,0,8.3,3.7,8.3,8.3l0,0c0,4.6-3.7,8.3-8.3,8.3H447.5c-4.2,0-7.5,3.4-7.5,7.5l0,0c0,4.2,3.4,7.5,7.5,7.5h102.6&#10;&#9;&#9;&#9;c4.6,0,8.3,3.7,8.3,8.3v0.8c0,4.6-3.7,8.3-8.3,8.3h-12.6c-4.2,0-7.5,3.4-7.5,7.5l0,0c0,4.2,3.4,7.5,7.5,7.5h272.3&#10;&#9;&#9;&#9;C814,628.6,817.3,625.2,817.3,621L817.3,621z"/>
		<g>
			<path fill="#03B1D8" d="M687.6,343.5c4.4,0.9,8.8,1.5,13.3,1.7l77.9-53.1c1.5-4.2,2.5-8.6,3.3-13L687.6,343.5z"/>
			<path fill="#03B1D8" d="M656.4,329.2c2.6,1.9,5.2,3.7,8,5.3l117.8-80.3c-0.5-3.1-1.2-6.3-2-9.4L656.4,329.2z"/>
			<path fill="#03B1D8" d="M670.2,337.6c3.2,1.5,6.6,2.9,10,3.9l102.7-70.1c0.2-3.6,0.2-7.1,0-10.7L670.2,337.6z"/>
			<path fill="#03B1D8" d="M626.3,253.6l94.4-64.4c-4.4-0.9-8.8-1.5-13.3-1.7l-77.9,53.1C628.1,244.9,627,249.2,626.3,253.6z"/>
			<path fill="#03B1D8" d="M639,310.8c0.8,1.2,1.7,2.4,2.6,3.6l130.1-88.8c-0.8-1.3-1.6-2.5-2.4-3.7c-0.8-1.2-1.7-2.4-2.6-3.6&#10;&#9;&#9;&#9;&#9;l-130.1,88.8C637.4,308.3,638.2,309.6,639,310.8z"/>
			<path fill="#03B1D8" d="M696.7,187.8c-12.8,1.2-25.6,5.6-37,13.4c-11.4,7.8-20.1,18-25.9,29.5L696.7,187.8z"/>
			<path fill="#03B1D8" d="M625.4,261.3c-0.2,3.6-0.2,7.1,0,10.7l112.7-76.9c-3.2-1.5-6.6-2.9-10-3.9L625.4,261.3z"/>
			<path fill="#03B1D8" d="M711.7,344.9c12.8-1.2,25.6-5.6,37-13.4c11.4-7.8,20.1-18,25.9-29.5L711.7,344.9z"/>
			<path fill="#03B1D8" d="M645.3,318.9c2,2.3,4.2,4.4,6.4,6.4L778.2,239c-1-2.8-2.2-5.6-3.6-8.3L645.3,318.9z"/>
			<path fill="#03B1D8" d="M626.2,278.5c0.5,3.1,1.2,6.3,2,9.4l123.7-84.4c-2.6-1.9-5.2-3.7-8-5.3L626.2,278.5z"/>
			<path fill="#03B1D8" d="M630.2,293.7c1,2.8,2.2,5.6,3.6,8.3L763,213.8c-2-2.3-4.2-4.4-6.4-6.4L630.2,293.7z"/>
		</g>
		<path fill="#03B1D8" d="M430.4,1014.5c0-4.5,3.6-8.1,8.1-8.1h81.3c5,0,9-4,9-9v-0.9c0-5-4-9-9-9h-21.3c-4.5,0-8.1-3.6-8.1-8.1v0&#10;&#9;&#9;&#9;c0-4.5,3.6-8.1,8.1-8.1h14.2c5,0,9-4,9-9l0,0c0-5-4-9-9-9h-56.2c-4.5,0-8.1-3.6-8.1-8.1l0,0c0-4.5,3.6-8.1,8.1-8.1h72.6&#10;&#9;&#9;&#9;c4.7,0,8.6-3.8,8.6-8.6v0c0-4.7-3.8-8.6-8.6-8.6h-30.6c-4.5,0-8.1-3.6-8.1-8.1l0,0c0-4.5,3.6-8.1,8.1-8.1h234.1&#10;&#9;&#9;&#9;c4.5,0,8.1,3.6,8.1,8.1l0,0c0,4.5-3.6,8.1-8.1,8.1h-65.1c-4.7,0-8.6,3.8-8.6,8.6v0c0,4.7,3.8,8.6,8.6,8.6h23.1&#10;&#9;&#9;&#9;c4.5,0,8.1,3.6,8.1,8.1l0,0c0,4.5-3.6,8.1-8.1,8.1h-76c-5,0-9,4-9,9l0,0c0,5,4,9,9,9h215.9c4.5,0,8.1,3.6,8.1,8.1v0&#10;&#9;&#9;&#9;c0,4.5-3.6,8.1-8.1,8.1h-111c-5,0-9,4-9,9v0.9c0,5,4,9,9,9h13.6c4.5,0,8.1,3.6,8.1,8.1l0,0c0,4.5-3.6,8.1-8.1,8.1H438.6&#10;&#9;&#9;&#9;C434.1,1022.7,430.4,1019,430.4,1014.5L430.4,1014.5z"/>
		<path fill="#03B1D8" d="M876.7,531.1c0-4.5-3.6-8.1-8.1-8.1h-81.3c-5,0-9-4-9-9v-0.9c0-5,4-9,9-9h21.3c4.5,0,8.1-3.6,8.1-8.1v0&#10;&#9;&#9;&#9;c0-4.5-3.6-8.1-8.1-8.1h-14.2c-5,0-9-4-9-9l0,0c0-5,4-9,9-9h56.2c4.5,0,8.1-3.6,8.1-8.1l0,0c0-4.5-3.6-8.1-8.1-8.1h-72.6&#10;&#9;&#9;&#9;c-4.7,0-8.6-3.8-8.6-8.6v0c0-4.7,3.8-8.6,8.6-8.6h30.6c4.5,0,8.1-3.6,8.1-8.1l0,0c0-4.5-3.6-8.1-8.1-8.1H574.5&#10;&#9;&#9;&#9;c-4.5,0-8.1,3.6-8.1,8.1l0,0c0,4.5,3.6,8.1,8.1,8.1h65.1c4.7,0,8.6,3.8,8.6,8.6v0c0,4.7-3.8,8.6-8.6,8.6h-23.1&#10;&#9;&#9;&#9;c-4.5,0-8.1,3.6-8.1,8.1l0,0c0,4.5,3.6,8.1,8.1,8.1h76c5,0,9,4,9,9l0,0c0,5-4,9-9,9H476.6c-4.5,0-8.1,3.6-8.1,8.1v0&#10;&#9;&#9;&#9;c0,4.5,3.6,8.1,8.1,8.1h111c5,0,9,4,9,9v0.9c0,5-4,9-9,9h-13.6c-4.5,0-8.1,3.6-8.1,8.1l0,0c0,4.5,3.6,8.1,8.1,8.1h294.6&#10;&#9;&#9;&#9;C873.1,539.2,876.7,535.6,876.7,531.1L876.7,531.1z"/>
		<path fill="#03B1D8" d="M646.6,571.4c-6.2-11.7-16.6-21.3-30.2-26.4c-27.1-10.2-58,2.1-70.7,28.1c-14.2,29-1.3,63.8,27.9,76.8&#10;&#9;&#9;&#9;c14.7,6.5,30.6,6.3,44.4,0.6c10.4-4.2,22-5,32.6-1.5c8,2.7,17.1,1.9,25.1-3c11.6-7.3,16.7-21.9,12.1-34.8&#10;&#9;&#9;&#9;c-3.1-8.6-9.6-14.8-17.3-17.7C660,589.3,651.8,581.3,646.6,571.4z"/>
		<path fill="#FDF7C6" d="M744,691.4c13.1,7.4,28.9,10.3,45.1,6.8c32.2-6.9,54.2-37.5,50.4-70.2c-4.2-36.5-37.8-61.9-73.7-56.3&#10;&#9;&#9;&#9;c-18,2.8-33.1,12.8-42.8,26.6c-7.3,10.4-17.9,18.3-30.3,21.4c-9.3,2.4-17.6,8.7-22.1,18.3c-6.7,14.1-2.6,31.2,9.8,40.7&#10;&#9;&#9;&#9;c8.2,6.4,18.3,8.3,27.4,6.4C720.1,682.4,732.9,685.1,744,691.4z"/>
		<path fill="#03B1D8" d="M732.3,680.3c-10.4-2.5-21.8-1.3-32.1,4.3c-20.6,11-29.6,36.3-20.5,57.9c10.1,24.1,38,34.7,61.5,23.9&#10;&#9;&#9;&#9;c11.7-5.5,20.1-15.3,24-26.6c2.9-8.6,8.6-16,16.4-20.6c5.9-3.4,10.3-9.4,11.5-16.8c1.8-10.9-4.4-21.8-14.7-25.9&#10;&#9;&#9;&#9;c-6.9-2.7-14.1-2-20,1.1C750.3,681.6,741.1,682.3,732.3,680.3z"/>
		<path fill="#FD6900" d="M702.9,226.1c-10.4-2.5-21.8-1.3-32.1,4.3c-20.6,11-29.6,36.3-20.5,57.9c10.1,24.1,38,34.7,61.5,23.9&#10;&#9;&#9;&#9;c11.7-5.5,20.1-15.3,24-26.6c2.9-8.6,8.6-16,16.4-20.6c5.9-3.4,10.3-9.4,11.5-16.8c1.8-10.9-4.4-21.8-14.7-25.9&#10;&#9;&#9;&#9;c-6.9-2.7-14.1-2-20,1.1C721,227.5,711.7,228.2,702.9,226.1z"/>
		<path fill="#FDF7C6" d="M553,936.1c11.6,6.5,25.5,9,39.7,6c28.3-6,47.7-33,44.4-61.8c-3.7-32.1-33.3-54.5-64.9-49.6&#10;&#9;&#9;&#9;c-15.9,2.4-29.1,11.2-37.7,23.4c-6.4,9.2-15.8,16.1-26.6,18.8c-8.2,2.1-15.5,7.6-19.5,16.1c-5.9,12.4-2.2,27.5,8.6,35.9&#10;&#9;&#9;&#9;c7.3,5.6,16.1,7.3,24.2,5.6C532,928.2,543.3,930.6,553,936.1z"/>
		<path fill="#FD6900" d="M783.3,1007.5c11.6,6.5,25.5,9,39.7,6c28.3-6,47.7-33,44.4-61.8c-3.7-32.1-33.3-54.5-64.9-49.6&#10;&#9;&#9;&#9;c-15.9,2.4-29.1,11.2-37.7,23.4c-6.4,9.2-15.8,16.1-26.6,18.8c-8.2,2.1-15.5,7.6-19.5,16.1c-5.9,12.4-2.2,27.5,8.6,35.9&#10;&#9;&#9;&#9;c7.3,5.6,16.1,7.3,24.2,5.6C762.3,999.6,773.5,1002,783.3,1007.5z"/>
		<path fill="#FDC800" d="M655.2,948c-6.2,16-6.8,34.3-0.2,51.9c13.1,35.1,51.3,54.8,87.5,45.1c40.4-10.8,63.4-52.9,51.2-92.5&#10;&#9;&#9;&#9;c-6.1-19.8-19.9-35.2-37.1-43.8c-12.9-6.5-23.6-17.2-29.2-30.5c-4.2-10.1-12.7-18.4-24.3-21.9c-17-5.2-35.6,2.3-44.3,17.8&#10;&#9;&#9;&#9;c-5.8,10.4-6.3,21.9-2.6,32C661.3,919.6,660.3,934.5,655.2,948z"/>
		<g>
			<path fill="#03B1D8" d="M587.6,882.5c4.4,0.9,8.8,1.5,13.3,1.7l77.9-53.1c1.5-4.2,2.5-8.6,3.3-13L587.6,882.5z"/>
			<path fill="#03B1D8" d="M556.4,868.2c2.6,1.9,5.2,3.7,8,5.3l117.8-80.3c-0.5-3.1-1.2-6.3-2-9.4L556.4,868.2z"/>
			<path fill="#03B1D8" d="M570.2,876.6c3.2,1.5,6.6,2.9,10,3.9l102.7-70.1c0.2-3.6,0.2-7.1,0-10.7L570.2,876.6z"/>
			<path fill="#03B1D8" d="M526.3,792.7l94.4-64.4c-4.4-0.9-8.8-1.5-13.3-1.7l-77.9,53.1C528.1,783.9,527,788.2,526.3,792.7z"/>
			<path fill="#03B1D8" d="M539,849.9c0.8,1.2,1.7,2.4,2.6,3.6l130.1-88.8c-0.8-1.3-1.6-2.5-2.4-3.7c-0.8-1.2-1.7-2.4-2.6-3.6&#10;&#9;&#9;&#9;&#9;l-130.1,88.8C537.4,847.4,538.2,848.6,539,849.9z"/>
			<path fill="#03B1D8" d="M596.7,726.9c-12.8,1.2-25.6,5.6-37,13.4c-11.4,7.8-20.1,18-25.9,29.5L596.7,726.9z"/>
			<path fill="#03B1D8" d="M525.4,800.3c-0.2,3.6-0.2,7.1,0,10.7l112.7-76.9c-3.2-1.5-6.6-2.9-10-3.9L525.4,800.3z"/>
			<path fill="#03B1D8" d="M611.7,883.9c12.8-1.2,25.6-5.6,37-13.4c11.4-7.8,20.1-18,25.9-29.5L611.7,883.9z"/>
			<path fill="#03B1D8" d="M545.3,858c2,2.3,4.2,4.4,6.4,6.4l126.5-86.3c-1-2.8-2.2-5.6-3.6-8.3L545.3,858z"/>
			<path fill="#03B1D8" d="M526.2,817.6c0.5,3.1,1.2,6.3,2,9.4l123.7-84.4c-2.6-1.9-5.2-3.7-8-5.3L526.2,817.6z"/>
			<path fill="#03B1D8" d="M530.1,832.7c1,2.8,2.2,5.6,3.6,8.3L663,752.8c-2-2.3-4.2-4.4-6.4-6.4L530.1,832.7z"/>
		</g>
		<g>
			<path fill="#FDC800" d="M687.5,448.5c4.4,0.9,8.8,1.5,13.3,1.7l77.9-53.1c1.5-4.2,2.5-8.6,3.3-13L687.5,448.5z"/>
			<path fill="#FDC800" d="M656.3,434.2c2.6,1.9,5.2,3.7,8,5.3L782,359.1c-0.5-3.1-1.2-6.3-2-9.4L656.3,434.2z"/>
			<path fill="#FDC800" d="M670.1,442.6c3.2,1.5,6.6,2.9,10,3.9l102.7-70.1c0.2-3.6,0.2-7.1,0-10.7L670.1,442.6z"/>
			<path fill="#FDC800" d="M626.2,358.6l94.4-64.4c-4.4-0.9-8.8-1.5-13.3-1.7l-77.9,53.1C628,349.8,626.9,354.2,626.2,358.6z"/>
			<path fill="#FDC800" d="M638.9,415.8c0.8,1.2,1.7,2.4,2.6,3.6l130.1-88.8c-0.8-1.3-1.6-2.5-2.4-3.7c-0.8-1.2-1.7-2.4-2.6-3.6&#10;&#9;&#9;&#9;&#9;l-130.1,88.8C637.2,413.3,638,414.6,638.9,415.8z"/>
			<path fill="#FDC800" d="M696.5,292.8c-12.8,1.2-25.6,5.6-37,13.4c-11.4,7.8-20.1,18-25.9,29.5L696.5,292.8z"/>
			<path fill="#FDC800" d="M625.3,366.2c-0.2,3.6-0.2,7.1,0,10.7L738,300.1c-3.2-1.5-6.6-2.9-10-3.9L625.3,366.2z"/>
			<path fill="#FDC800" d="M711.5,449.9c12.8-1.2,25.6-5.6,37-13.4c11.4-7.8,20.1-18,25.9-29.5L711.5,449.9z"/>
			<path fill="#FDC800" d="M645.2,423.9c2,2.3,4.2,4.4,6.4,6.4L778.1,344c-1-2.8-2.2-5.6-3.6-8.3L645.2,423.9z"/>
			<path fill="#FDC800" d="M626.1,383.5c0.5,3.1,1.2,6.3,2,9.4l123.7-84.4c-2.6-1.9-5.2-3.7-8-5.3L626.1,383.5z"/>
			<path fill="#FDC800" d="M630,398.7c1,2.8,2.2,5.6,3.6,8.3l129.3-88.2c-2-2.3-4.2-4.4-6.4-6.4L630,398.7z"/>
		</g>
		<g>
			<path fill="#FDC800" d="M767.8,905.4c4.4,0.9,8.8,1.5,13.3,1.7l77.9-53.1c1.5-4.2,2.5-8.6,3.3-13L767.8,905.4z"/>
			<path fill="#FDC800" d="M736.6,891c2.6,1.9,5.2,3.7,8,5.3L862.3,816c-0.5-3.1-1.2-6.3-2-9.4L736.6,891z"/>
			<path fill="#FDC800" d="M750.4,899.4c3.2,1.5,6.6,2.9,10,3.9l102.7-70.1c0.2-3.6,0.2-7.1,0-10.7L750.4,899.4z"/>
			<path fill="#FDC800" d="M706.5,815.5l94.4-64.4c-4.4-0.9-8.8-1.5-13.3-1.7l-77.9,53.1C708.3,806.7,707.2,811.1,706.5,815.5z"/>
			<path fill="#FDC800" d="M719.2,872.7c0.8,1.2,1.7,2.4,2.6,3.6l130.1-88.8c-0.8-1.3-1.6-2.5-2.4-3.7c-0.8-1.2-1.7-2.4-2.6-3.6&#10;&#9;&#9;&#9;&#9;l-130.1,88.8C717.5,870.2,718.3,871.4,719.2,872.7z"/>
			<path fill="#FDC800" d="M776.9,749.7c-12.8,1.2-25.6,5.6-37,13.4c-11.4,7.8-20.1,18-25.9,29.5L776.9,749.7z"/>
			<path fill="#FDC800" d="M705.6,823.1c-0.2,3.6-0.2,7.1,0,10.7L818.3,757c-3.2-1.5-6.6-2.9-10-3.9L705.6,823.1z"/>
			<path fill="#FDC800" d="M791.9,906.8c12.8-1.2,25.6-5.6,37-13.4c11.4-7.8,20.1-18,25.9-29.5L791.9,906.8z"/>
			<path fill="#FDC800" d="M725.5,880.8c2,2.3,4.2,4.4,6.4,6.4l126.5-86.3c-1-2.8-2.2-5.6-3.6-8.3L725.5,880.8z"/>
			<path fill="#FDC800" d="M706.4,840.4c0.5,3.1,1.2,6.3,2,9.4l123.7-84.4c-2.6-1.9-5.2-3.7-8-5.3L706.4,840.4z"/>
			<path fill="#FDC800" d="M710.3,855.5c1,2.8,2.2,5.6,3.6,8.3l129.3-88.2c-2-2.3-4.2-4.4-6.4-6.4L710.3,855.5z"/>
		</g>
		<path fill="#03B1D8" d="M773.1,853.8c-6.2-11.7-16.6-21.3-30.2-26.4c-27.1-10.2-58,2.1-70.7,28.1c-14.2,29-1.3,63.8,27.9,76.8&#10;&#9;&#9;&#9;c14.7,6.5,30.6,6.3,44.4,0.6c10.4-4.2,22-5,32.6-1.5c8,2.7,17.1,1.9,25.1-3c11.6-7.3,16.7-21.9,12.1-34.8&#10;&#9;&#9;&#9;c-3.1-8.6-9.6-14.8-17.3-17.7C786.5,871.8,778.3,863.7,773.1,853.8z"/>
		<g>
			<path fill="#FD6900" d="M658.3,1085.9c4.4,0.9,8.8,1.5,13.3,1.7l77.9-53.1c1.5-4.2,2.5-8.6,3.3-13L658.3,1085.9z"/>
			<path fill="#FD6900" d="M627,1071.6c2.6,1.9,5.2,3.7,8,5.3l117.8-80.3c-0.5-3.1-1.2-6.3-2-9.4L627,1071.6z"/>
			<path fill="#FD6900" d="M640.8,1080c3.2,1.5,6.6,2.9,10,3.9l102.7-70.1c0.2-3.6,0.2-7.1,0-10.7L640.8,1080z"/>
			<path fill="#FD6900" d="M596.9,996l94.4-64.4c-4.4-0.9-8.8-1.5-13.3-1.7L600.2,983C598.8,987.2,597.7,991.6,596.9,996z"/>
			<path fill="#FD6900" d="M609.6,1053.2c0.8,1.2,1.7,2.4,2.6,3.6L742.4,968c-0.8-1.3-1.6-2.5-2.4-3.7c-0.8-1.2-1.7-2.4-2.6-3.6&#10;&#9;&#9;&#9;&#9;l-130.1,88.8C608,1050.7,608.8,1052,609.6,1053.2z"/>
			<path fill="#FD6900" d="M667.3,930.2c-12.8,1.2-25.6,5.6-37,13.4c-11.4,7.8-20.1,18-25.9,29.5L667.3,930.2z"/>
			<path fill="#FD6900" d="M596.1,1003.6c-0.2,3.6-0.2,7.1,0,10.7l112.7-76.9c-3.2-1.5-6.6-2.9-10-3.9L596.1,1003.6z"/>
			<path fill="#FD6900" d="M682.3,1087.3c12.8-1.2,25.6-5.6,37-13.4c11.4-7.8,20.1-18,25.9-29.5L682.3,1087.3z"/>
			<path fill="#FD6900" d="M616,1061.3c2,2.3,4.2,4.4,6.4,6.4l126.5-86.3c-1-2.8-2.2-5.6-3.6-8.3L616,1061.3z"/>
			<path fill="#FD6900" d="M596.8,1020.9c0.5,3.1,1.2,6.3,2,9.4l123.7-84.4c-2.6-1.9-5.2-3.7-8-5.3L596.8,1020.9z"/>
			<path fill="#FD6900" d="M600.8,1036.1c1,2.8,2.2,5.6,3.6,8.3l129.3-88.2c-2-2.3-4.2-4.4-6.4-6.4L600.8,1036.1z"/>
		</g>
		<path fill="#FDF7C6" d="M706.2,509.5c0-0.2,0-0.3,0-0.5c0-33.1-26.8-59.9-59.9-59.9c-33.1,0-59.9,26.8-59.9,59.9&#10;&#9;&#9;&#9;c0,0.2,0,0.3,0,0.5H706.2z"/>
		<path fill="#FD6900" d="M711.5,575.5c0.2,0,0.3,0,0.5,0c33.1,0,59.9-26.8,59.9-59.9c0-33.1-26.8-59.9-59.9-59.9&#10;&#9;&#9;&#9;c-0.2,0-0.3,0-0.5,0V575.5z"/>
		<g>
			<path fill="#FDC800" d="M728.4,545.9c0,0-37.6,41.9-83.9,41.9s-83.9-41.9-83.9-41.9s37.6-41.9,83.9-41.9S728.4,545.9,728.4,545.9&#10;&#9;&#9;&#9;&#9;z"/>
			<path fill="#03B1D8" d="M644.5,504c-46.3,0-83.9,41.9-83.9,41.9h167.8C728.4,545.9,690.8,504,644.5,504z"/>
			<path d="M 677 545.900024 A 32.5 32.5 0 0 1 644.5 578.400024 A 32.5 32.5 0 0 1 612 545.900024 A 32.5 32.5 0 0 1 644.5 513.400024 A 32.5 32.5 0 0 1 677 545.900024 Z" fill="#11273C"/>
		</g>
		<g>
			<path fill="#FDC800" d="M676.4,959.4c0,0-37.6,41.9-83.9,41.9c-46.3,0-83.9-41.9-83.9-41.9s37.6-41.9,83.9-41.9&#10;&#9;&#9;&#9;&#9;C638.8,917.5,676.4,959.4,676.4,959.4z"/>
			<path fill="#FD6900" d="M592.5,917.5c-46.3,0-83.9,41.9-83.9,41.9h167.8C676.4,959.4,638.8,917.5,592.5,917.5z"/>
			
				<path d="M 625 959.400024 A 32.5 32.5 0 0 1 592.5 991.900024 A 32.5 32.5 0 0 1 560 959.400024 A 32.5 32.5 0 0 1 592.5 926.900024 A 32.5 32.5 0 0 1 625 959.400024 Z" transform="matrix(0.9217 -0.388 0.388 0.9217 -325.8496 305.0733)" fill="#FDF7C6"/>
		</g>
		<g>
			<path fill="#FDC800" d="M934,883c0,0-37.6,41.9-83.9,41.9c-46.3,0-83.9-41.9-83.9-41.9s37.6-41.9,83.9-41.9&#10;&#9;&#9;&#9;&#9;C896.4,841.1,934,883,934,883z"/>
			<path fill="#03B1D8" d="M850.1,841.1c-46.3,0-83.9,41.9-83.9,41.9H934C934,883,896.4,841.1,850.1,841.1z"/>
			<path d="M 882.599976 883 A 32.5 32.5 0 0 1 850.099976 915.5 A 32.5 32.5 0 0 1 817.599976 883 A 32.5 32.5 0 0 1 850.099976 850.5 A 32.5 32.5 0 0 1 882.599976 883 Z" fill="#11273C"/>
		</g>
		<g>
			<path fill="#FDC800" d="M843.5,415.9c0,0-39.4,44.1-88.1,44.1c-48.7,0-88.1-44.1-88.1-44.1s39.4-44.1,88.1-44.1&#10;&#9;&#9;&#9;&#9;C804.1,371.9,843.5,415.9,843.5,415.9z"/>
			<path fill="#03B1D8" d="M755.4,371.9c-48.7,0-88.1,44.1-88.1,44.1h176.2C843.5,415.9,804.1,371.9,755.4,371.9z"/>
			<path d="M 789.600025 415.899994 A 34.200001 34.200001 0 0 1 755.400024 450.099995 A 34.200001 34.200001 0 0 1 721.200024 415.899994 A 34.200001 34.200001 0 0 1 755.400024 381.699993 A 34.200001 34.200001 0 0 1 789.600025 415.899994 Z" fill="#11273C"/>
		</g>
		<g>
			<path fill="#FDC800" d="M741.8,693.6c0,0-51.4,57.4-114.7,57.4s-114.7-57.4-114.7-57.4s51.4-57.4,114.7-57.4&#10;&#9;&#9;&#9;&#9;S741.8,693.6,741.8,693.6z"/>
			<path fill="#FD6900" d="M627.1,636.2c-63.4,0-114.7,57.4-114.7,57.4h229.4C741.8,693.6,690.5,636.2,627.1,636.2z"/>
			<path d="M 671.599976 693.599976 A 44.5 44.5 0 0 1 627.099976 738.099976 A 44.5 44.5 0 0 1 582.599976 693.599976 A 44.5 44.5 0 0 1 627.099976 649.099976 A 44.5 44.5 0 0 1 671.599976 693.599976 Z" fill="#FDF7C6"/>
		</g>
		<g>
			<path fill="#FDC800" d="M812.8,320.2c0,0-32.9,36.7-73.4,36.7c-40.6,0-73.4-36.7-73.4-36.7s32.9-36.7,73.4-36.7&#10;&#9;&#9;&#9;&#9;C779.9,283.5,812.8,320.2,812.8,320.2z"/>
			<path fill="#03B1D8" d="M739.4,283.5c-40.6,0-73.4,36.7-73.4,36.7h146.9C812.8,320.2,779.9,283.5,739.4,283.5z"/>
			
				<path d="M 767.900024 320.200012 A 28.5 28.5 0 0 1 739.400024 348.700012 A 28.5 28.5 0 0 1 710.900024 320.200012 A 28.5 28.5 0 0 1 739.400024 291.700012 A 28.5 28.5 0 0 1 767.900024 320.200012 Z" transform="matrix(0.7071 -0.7071 0.7071 0.7071 -9.8469 616.5785)" fill="#FD6900"/>
		</g>
		<g>
			<path fill="#11273C" d="M720.8,530.6l-37.4,0.5l-0.2,15.3l37.9-0.5L720.8,530.6z M701.4,541.1c-1.3,0-2.3-1-2.3-2.3&#10;&#9;&#9;&#9;&#9;c0-1.3,1-2.3,2.3-2.3c1.3,0,2.3,1,2.3,2.3C703.7,540.1,702.7,541.1,701.4,541.1z"/>
			<path d="M 721.9000244140625 599.5999755859375 L 682.4000244140625 600.0999755859375 L 682.2999877929688 611.7000122070312 L 722 611.0999755859375 Z" fill="#11273C"/>
			<path d="M 721.5999755859375 584 L 682.7000122070312 584.5 L 682.5 597 L 721.7999877929688 596.5 Z" fill="#11273C"/>
			<path fill="#11273C" d="M721.4,566.9l-38.5,0.5l-0.2,13.9l38.9-0.5L721.4,566.9z M693.2,576.7c-1.3,0-2.3-1-2.3-2.3&#10;&#9;&#9;&#9;&#9;c0-1.3,1-2.3,2.3-2.3c1.3,0,2.3,1,2.3,2.3C695.5,575.6,694.5,576.7,693.2,576.7z M712,576.4c-1.3,0-2.3-1-2.3-2.3&#10;&#9;&#9;&#9;&#9;c0-1.3,1-2.3,2.3-2.3c1.3,0,2.3,1,2.3,2.3C714.3,575.4,713.2,576.4,712,576.4z"/>
			<path d="M 721.0999755859375 549 L 683.0999755859375 549.5 L 682.9000244140625 564.2999877929688 L 721.2999877929688 563.7999877929688 Z" fill="#11273C"/>
			<path fill="#11273C" d="M718.8,391.9l-33.4,0.5l-0.3,23.5l34.1-0.5L718.8,391.9z M702.5,405.3c-1.3,0-2.3-1-2.3-2.3&#10;&#9;&#9;&#9;&#9;c0-1.3,1-2.3,2.3-2.3c1.3,0,2.3,1,2.3,2.3C704.8,404.2,703.8,405.3,702.5,405.3z"/>
			<path d="M 719.2000122070312 418.6000061035156 L 685 419 L 684.7000122070312 440.70001220703125 L 719.5 440.29998779296875 Z" fill="#11273C"/>
			<path fill="#11273C" d="M720.2,489.5L684,490l-0.3,17.8l36.8-0.5L720.2,489.5z M702.4,500.7c-1.3,0-2.3-1-2.3-2.3&#10;&#9;&#9;&#9;&#9;c0-1.3,1-2.3,2.3-2.3c1.3,0,2.3,1,2.3,2.3C704.7,499.6,703.7,500.7,702.4,500.7z"/>
			<path d="M 720.5 510.3999938964844 L 683.7000122070312 510.8999938964844 L 683.5 528 L 720.7999877929688 527.4000244140625 Z" fill="#11273C"/>
			<path d="M 719.9000244140625 467.1000061035156 L 684.2999877929688 467.6000061035156 L 684 486.8999938964844 L 720.2000122070312 486.29998779296875 Z" fill="#11273C"/>
			<path fill="#11273C" d="M719.6,443.4l-34.9,0.5l-0.3,20.6l35.5-0.5L719.6,443.4z M703.2,455.4c-1.3,0-2.3-1-2.3-2.3&#10;&#9;&#9;&#9;&#9;c0-1.3,1-2.3,2.3-2.3c1.3,0,2.3,1,2.3,2.3C705.5,454.4,704.4,455.4,703.2,455.4z"/>
			<path d="M 718.4000244140625 363.79998779296875 L 685.7999877929688 364.20001220703125 L 685.4000244140625 389.20001220703125 L 718.7999877929688 388.79998779296875 Z" fill="#11273C"/>
			<path fill="#11273C" d="M812.1,800.4c-14.1-18.3-18.5-42.4-11.7-64.6c2.4-7.9,4-29.5,4.4-37.8c1.9-47.2-28-69.4-82.6-74.8&#10;&#9;&#9;&#9;&#9;l-0.1-8.9l-39.9,0.6l-0.1,7.9c-53.3,4.1-83.2,25.3-82.8,71.9c0.1,8.3,1,29.9,3.2,37.9c6.1,22.4,0.9,46.4-13.8,64.2&#10;&#9;&#9;&#9;&#9;c-20.3,24.5-30.8,53.8-30.6,84.8c0.3,36.1,15.3,63.6,44.6,81.8c23.4,14.5,55.9,22.5,94.6,23.5c38.7,0.3,71.5-6.7,95.4-20.5&#10;&#9;&#9;&#9;&#9;c29.9-17.2,45.7-44.2,47.2-80.3C841.2,855.2,831.6,825.5,812.1,800.4z M701.2,618.6c1.3,0,2.3,1,2.3,2.3c0,1.3-1,2.3-2.3,2.3&#10;&#9;&#9;&#9;&#9;c-1.3,0-2.3-1-2.3-2.3C698.9,619.7,699.9,618.6,701.2,618.6z M681.3,625.9l41.6-0.6l0,3.1l-41.7,0.6L681.3,625.9z M681.2,638.6&#10;&#9;&#9;&#9;&#9;l41.9-0.6l0,3.1l-42,0.6L681.2,638.6z M703.8,647.5c0,1.3-1,2.3-2.3,2.3c-1.3,0-2.3-1-2.3-2.3c0-1.3,1-2.3,2.3-2.3&#10;&#9;&#9;&#9;&#9;C702.8,645.2,703.8,646.2,703.8,647.5z M681,652l42.3-0.6l0,3.1l-42.4,0.6L681,652z M680.8,663.7l42.6-0.6l0,3.1l-42.7,0.6&#10;&#9;&#9;&#9;&#9;L680.8,663.7z M680.7,674.7l0.9,0l42.1-0.6l0,3.1l-0.9,0l-42.1,0.6L680.7,674.7z M680.5,684.9l0.9,0l42.3-0.6l0,3.1l-0.9,0&#10;&#9;&#9;&#9;&#9;l-42.4,0.6L680.5,684.9z M700.9,708.4c23.8-0.2,43.2,19,43.3,42.7c0.2,23.8-19,43.2-42.7,43.3c-23.8,0.2-43.2-19-43.3-42.7&#10;&#9;&#9;&#9;&#9;C658,728,677.1,708.6,700.9,708.4z M746,893.1l0-3.1l-94.3-1.5l-0.1,4.7l94.3,1.5l-0.1,5.7l-94.3-1.5l0.4-23.3l94.3,1.5&#10;&#9;&#9;&#9;&#9;L746,893.1z"/>
			<g>
				<path d="M 686.2000122070312 336.20001220703125 L 685.7999877929688 361.1000061035156 L 718.2999877929688 360.6000061035156 L 718 335.79998779296875 Z" fill="#11273C"/>
				<path fill="#11273C" d="M732.7,255.7c0.2,0.4,0.5,0.6,1,0.6l1.4,0l0.9,2.6c0.4,1,1.3,1.7,2.4,1.7l5.8,0c1.5,0,2.8-1.3,2.8-2.8&#10;&#9;&#9;&#9;&#9;&#9;l-0.1-7.3c0-1.5-1.3-2.8-2.8-2.8l-5.9,0c-1,0-2,0.6-2.3,1.6l-0.8,2.2c-0.1,0.2-0.1,0.3-0.1,0.5l-1.3,0c-0.4,0-0.8,0.3-1,0.6&#10;&#9;&#9;&#9;&#9;&#9;l-3,0l0-8.7c0-4.8-3.9-8.6-8.7-8.6l-37.6-0.1c-4.8,0-8.6,3.9-8.5,8.7l0.2,9l-2.9,0c-0.2-0.4-0.5-0.6-1-0.6l-1.3,0&#10;&#9;&#9;&#9;&#9;&#9;c-0.1-0.2-0.1-0.4-0.2-0.5l-0.9-2.2c-0.4-1-1.3-1.6-2.3-1.6l-5.9,0c-1.5,0-2.8,1.3-2.8,2.8l0.1,7.3c0,1.5,1.3,2.8,2.8,2.8l5.8,0&#10;&#9;&#9;&#9;&#9;&#9;c1.1,0,2-0.7,2.3-1.7l0.9-2.6l1.4,0c0.4,0,0.8-0.3,1-0.6l2.9,0l0.4,19.1l-1.5,0c-0.2-0.4-0.5-0.6-1-0.6l-1.3,0&#10;&#9;&#9;&#9;&#9;&#9;c-0.1-0.2-0.1-0.4-0.2-0.5l-0.9-2.2c-0.4-1-1.3-1.6-2.3-1.6l-5.9,0c-1.5,0-2.8,1.3-2.8,2.8l0.1,7.3c0,1.5,1.3,2.8,2.8,2.8l5.8,0&#10;&#9;&#9;&#9;&#9;&#9;c1.1,0,2-0.7,2.3-1.7l0.9-2.6l1.4,0c0.4,0,0.8-0.3,1-0.6l1.5,0l0.4,19.1l-0.1,0c-0.2-0.4-0.5-0.6-1-0.6l-1.3,0&#10;&#9;&#9;&#9;&#9;&#9;c-0.1-0.2-0.1-0.4-0.2-0.5l-0.9-2.2c-0.4-1-1.3-1.6-2.3-1.6l-5.9,0c-1.5,0-2.8,1.3-2.8,2.8l0.1,7.3c0,1.5,1.3,2.8,2.8,2.8l5.8,0&#10;&#9;&#9;&#9;&#9;&#9;c1.1,0,2-0.7,2.3-1.7l0.9-2.6l1.4,0c0.4,0,0.8-0.3,1-0.6l0.1,0l0.2,8.8c0,3.5,1,6.9,2.6,9.9l7.3,13.2l0,0l31.8-0.4l0,0.5&#10;&#9;&#9;&#9;&#9;&#9;l8.2-13.1c2.1-3.4,3.3-7.3,3.3-11.3l0-8l0.2,0c0.2,0.4,0.5,0.6,1,0.6l1.4,0l0.9,2.6c0.4,1,1.3,1.7,2.4,1.7l5.8,0&#10;&#9;&#9;&#9;&#9;&#9;c1.5,0,2.8-1.3,2.8-2.8l-0.1-7.3c0-1.5-1.3-2.8-2.8-2.8l-5.9,0c-1,0-2,0.6-2.3,1.6l-0.8,2.2c-0.1,0.2-0.1,0.3-0.1,0.5l-1.3,0&#10;&#9;&#9;&#9;&#9;&#9;c-0.4,0-0.8,0.3-1,0.6l-0.1,0l0.1-19l1.6,0c0.2,0.4,0.5,0.6,1,0.6l1.4,0l0.9,2.6c0.4,1,1.3,1.7,2.4,1.7l5.8,0&#10;&#9;&#9;&#9;&#9;&#9;c1.5,0,2.8-1.3,2.8-2.8l-0.1-7.3c0-1.5-1.3-2.8-2.8-2.8l-5.9,0c-1,0-2,0.6-2.3,1.6l-0.8,2.2c-0.1,0.2-0.1,0.3-0.1,0.5l-1.3,0&#10;&#9;&#9;&#9;&#9;&#9;c-0.4,0-0.8,0.3-1,0.6l-1.6,0l0.1-19L732.7,255.7z M687.2,249.6c2.8,0,5.1,2.3,5.2,5.1c0,2.8-2.3,5.1-5.1,5.2&#10;&#9;&#9;&#9;&#9;&#9;c-2.8,0-5.1-2.3-5.2-5.1C682.1,251.9,684.4,249.6,687.2,249.6z M687.9,273c2.8,0,5.1,2.3,5.2,5.1c0,2.8-2.3,5.1-5.1,5.2&#10;&#9;&#9;&#9;&#9;&#9;c-2.8,0-5.1-2.3-5.2-5.1C682.8,275.3,685.1,273,687.9,273z M688.7,306.7c-2.8,0-5.1-2.3-5.2-5.1c0-2.8,2.3-5.1,5.1-5.2&#10;&#9;&#9;&#9;&#9;&#9;c2.8,0,5.1,2.3,5.2,5.1C693.8,304.4,691.5,306.7,688.7,306.7z M716.8,306.5c-2.8,0-5.1-2.3-5.2-5.1c0-2.8,2.3-5.1,5.1-5.2&#10;&#9;&#9;&#9;&#9;&#9;c2.8,0,5.1,2.3,5.2,5.1C721.9,304.2,719.6,306.5,716.8,306.5z M717.2,283.1c-2.8,0-5.1-2.3-5.2-5.1c0-2.8,2.3-5.1,5.1-5.2&#10;&#9;&#9;&#9;&#9;&#9;c2.8,0,5.1,2.3,5.2,5.1C722.3,280.7,720,283,717.2,283.1z M717.6,259.6c-2.8,0-5.1-2.3-5.2-5.1c0-2.8,2.3-5.1,5.1-5.2&#10;&#9;&#9;&#9;&#9;&#9;c2.8,0,5.1,2.3,5.2,5.1C722.7,257.3,720.4,259.6,717.6,259.6z"/>
			</g>
		</g>
	</g>
	
</g>
</svg>