<?xml version="1.0" encoding="utf-8"?>
<!-- Generator: Adobe Illustrator 24.0.1, SVG Export Plug-In . SVG Version: 6.00 Build 0)  -->
<svg version="1.1" id="master-artboard" xmlns="http://www.w3.org/2000/svg" xmlns:xlink="http://www.w3.org/1999/xlink" x="0px"
	 y="0px" viewBox="0 0 1400 1400" style="enable-background:new 0 0 1400 1400;" xml:space="preserve">
<style type="text/css">
	.st0{fill:#BFBFBF;}
	.st1{fill:#FD6900;}
	.st2{fill:#FDC800;}
	.st3{fill:#03B1D8;}
	.st4{fill:#FDF7C6;}
	.st5{fill:#11273C;}
</style>
<path class="st0" d="M0,0h1400v1400H0V0z"/>
<g>
	<g>
		<path class="st1" d="M607.6,487.4c0.2,0,0.3,0,0.5,0c33.1,0,59.9-26.8,59.9-59.9s-26.8-59.9-59.9-59.9c-0.2,0-0.3,0-0.5,0V487.4z"
			/>
		<path class="st1" d="M611.2,780.9c0-0.2,0-0.3,0-0.5c0-33.1-26.8-59.9-59.9-59.9s-59.9,26.8-59.9,59.9c0,0.2,0,0.3,0,0.5H611.2z"
			/>
		<path class="st2" d="M947.8,610.7c0-4.3-3.5-7.8-7.8-7.8h-77.6c-4.7,0-8.6-3.8-8.6-8.6v-0.8c0-4.7,3.8-8.6,8.6-8.6h20.3
			c4.3,0,7.8-3.5,7.8-7.8l0,0c0-4.3-3.5-7.8-7.8-7.8h-13.6c-4.7,0-8.6-3.8-8.6-8.6l0,0c0-4.7,3.8-8.6,8.6-8.6h53.7
			c4.3,0,7.8-3.5,7.8-7.8l0,0c0-4.3-3.5-7.8-7.8-7.8h-69.4c-4.5,0-8.2-3.7-8.2-8.2l0,0c0-4.5,3.7-8.2,8.2-8.2h29.3
			c4.3,0,7.8-3.5,7.8-7.8l0,0c0-4.3-3.5-7.8-7.8-7.8H659.1c-4.3,0-7.8,3.5-7.8,7.8l0,0c0,4.3,3.5,7.8,7.8,7.8h62.2
			c4.5,0,8.2,3.7,8.2,8.2l0,0c0,4.5-3.7,8.2-8.2,8.2h-22.1c-4.3,0-7.8,3.5-7.8,7.8l0,0c0,4.3,3.5,7.8,7.8,7.8h72.6
			c4.7,0,8.6,3.8,8.6,8.6l0,0c0,4.7-3.8,8.6-8.6,8.6H565.7c-4.3,0-7.8,3.5-7.8,7.8l0,0c0,4.3,3.5,7.8,7.8,7.8h106
			c4.7,0,8.6,3.8,8.6,8.6v0.8c0,4.7-3.8,8.6-8.6,8.6h-13c-4.3,0-7.8,3.5-7.8,7.8l0,0c0,4.3,3.5,7.8,7.8,7.8H940
			C944.3,618.5,947.8,615,947.8,610.7L947.8,610.7z"/>
		<path class="st3" d="M776.2,345.5c0-2.7-2.2-4.9-4.9-4.9h-48.9c-3,0-5.4-2.4-5.4-5.4v-0.5c0-3,2.4-5.4,5.4-5.4h12.8
			c2.7,0,4.9-2.2,4.9-4.9l0,0c0-2.7-2.2-4.9-4.9-4.9h-8.6c-3,0-5.4-2.4-5.4-5.4l0,0c0-3,2.4-5.4,5.4-5.4h33.8c2.7,0,4.9-2.2,4.9-4.9
			l0,0c0-2.7-2.2-4.9-4.9-4.9h-43.7c-2.8,0-5.2-2.3-5.2-5.2l0,0c0-2.8,2.3-5.2,5.2-5.2h18.4c2.7,0,4.9-2.2,4.9-4.9l0,0
			c0-2.7-2.2-4.9-4.9-4.9H594.5c-2.7,0-4.9,2.2-4.9,4.9l0,0c0,2.7,2.2,4.9,4.9,4.9h39.2c2.8,0,5.2,2.3,5.2,5.2l0,0
			c0,2.8-2.3,5.2-5.2,5.2h-13.9c-2.7,0-4.9,2.2-4.9,4.9l0,0c0,2.7,2.2,4.9,4.9,4.9h45.7c3,0,5.4,2.4,5.4,5.4l0,0
			c0,3-2.4,5.4-5.4,5.4H535.7c-2.7,0-4.9,2.2-4.9,4.9l0,0c0,2.7,2.2,4.9,4.9,4.9h66.7c3,0,5.4,2.4,5.4,5.4v0.5c0,3-2.4,5.4-5.4,5.4
			h-8.2c-2.7,0-4.9,2.2-4.9,4.9l0,0c0,2.7,2.2,4.9,4.9,4.9h177.1C774,350.4,776.2,348.2,776.2,345.5L776.2,345.5z"/>
		<path class="st2" d="M859.9,841.7c0-4.5-3.6-8.1-8.1-8.1h-81.3c-5,0-9-4-9-9v-0.9c0-5,4-9,9-9h21.3c4.5,0,8.1-3.6,8.1-8.1l0,0
			c0-4.5-3.6-8.1-8.1-8.1h-14.2c-5,0-9-4-9-9l0,0c0-5,4-9,9-9h56.2c4.5,0,8.1-3.6,8.1-8.1l0,0c0-4.5-3.6-8.1-8.1-8.1h-72.6
			c-4.7,0-8.6-3.8-8.6-8.6l0,0c0-4.7,3.8-8.6,8.6-8.6h30.6c4.5,0,8.1-3.6,8.1-8.1l0,0c0-4.5-3.6-8.1-8.1-8.1H557.7
			c-4.5,0-8.1,3.6-8.1,8.1l0,0c0,4.5,3.6,8.1,8.1,8.1h65.1c4.7,0,8.6,3.8,8.6,8.6l0,0c0,4.7-3.8,8.6-8.6,8.6h-23.1
			c-4.5,0-8.1,3.6-8.1,8.1l0,0c0,4.5,3.6,8.1,8.1,8.1h76c5,0,9,4,9,9l0,0c0,5-4,9-9,9H459.8c-4.5,0-8.1,3.6-8.1,8.1l0,0
			c0,4.5,3.6,8.1,8.1,8.1h111c5,0,9,4,9,9v0.9c0,5-4,9-9,9h-13.6c-4.5,0-8.1,3.6-8.1,8.1l0,0c0,4.5,3.6,8.1,8.1,8.1h294.6
			C856.3,849.8,859.9,846.2,859.9,841.7L859.9,841.7z"/>
		<path class="st2" d="M971.9,983.2c0-4.5-3.6-8.1-8.1-8.1h-81.3c-5,0-9-4-9-9v-0.9c0-5,4-9,9-9h21.3c4.5,0,8.1-3.6,8.1-8.1l0,0
			c0-4.5-3.6-8.1-8.1-8.1h-14.2c-5,0-9-4-9-9l0,0c0-5,4-9,9-9h56.2c4.5,0,8.1-3.6,8.1-8.1l0,0c0-4.5-3.6-8.1-8.1-8.1h-72.6
			c-4.7,0-8.6-3.8-8.6-8.6l0,0c0-4.7,3.8-8.6,8.6-8.6h30.6c4.5,0,8.1-3.6,8.1-8.1l0,0c0-4.5-3.6-8.1-8.1-8.1H669.7
			c-4.5,0-8.1,3.6-8.1,8.1l0,0c0,4.5,3.6,8.1,8.1,8.1h65.1c4.7,0,8.6,3.8,8.6,8.6l0,0c0,4.7-3.8,8.6-8.6,8.6h-23.1
			c-4.5,0-8.1,3.6-8.1,8.1l0,0c0,4.5,3.6,8.1,8.1,8.1h76c5,0,9,4,9,9l0,0c0,5-4,9-9,9H571.8c-4.5,0-8.1,3.6-8.1,8.1l0,0
			c0,4.5,3.6,8.1,8.1,8.1h111c5,0,9,4,9,9v0.9c0,5-4,9-9,9h-13.6c-4.5,0-8.1,3.6-8.1,8.1l0,0c0,4.5,3.6,8.1,8.1,8.1h294.6
			C968.3,991.3,971.9,987.7,971.9,983.2L971.9,983.2z"/>
		<path class="st1" d="M959.1,796.8c0-4.5-3.6-8.1-8.1-8.1h-81.3c-5,0-9-4-9-9v-0.9c0-5,4-9,9-9H891c4.5,0,8.1-3.6,8.1-8.1l0,0
			c0-4.5-3.6-8.1-8.1-8.1h-14.2c-5,0-9-4-9-9l0,0c0-5,4-9,9-9H933c4.5,0,8.1-3.6,8.1-8.1l0,0c0-4.5-3.6-8.1-8.1-8.1h-72.6
			c-4.7,0-8.6-3.8-8.6-8.6l0,0c0-4.7,3.8-8.6,8.6-8.6H891c4.5,0,8.1-3.6,8.1-8.1l0,0c0-4.5-3.6-8.1-8.1-8.1H656.8
			c-4.5,0-8.1,3.6-8.1,8.1l0,0c0,4.5,3.6,8.1,8.1,8.1H722c4.7,0,8.6,3.8,8.6,8.6l0,0c0,4.7-3.8,8.6-8.6,8.6h-23.1
			c-4.5,0-8.1,3.6-8.1,8.1l0,0c0,4.5,3.6,8.1,8.1,8.1h76c5,0,9,4,9,9l0,0c0,5-4,9-9,9H559c-4.5,0-8.1,3.6-8.1,8.1l0,0
			c0,4.5,3.6,8.1,8.1,8.1h111c5,0,9,4,9,9v0.9c0,5-4,9-9,9h-13.6c-4.5,0-8.1,3.6-8.1,8.1l0,0c0,4.5,3.6,8.1,8.1,8.1H951
			C955.4,804.9,959.1,801.3,959.1,796.8L959.1,796.8z"/>
		<path class="st1" d="M817.3,621c0-4.2-3.4-7.5-7.5-7.5h-75.1c-4.6,0-8.3-3.7-8.3-8.3v-0.8c0-4.6,3.7-8.3,8.3-8.3h19.6
			c4.2,0,7.5-3.4,7.5-7.5l0,0c0-4.2-3.4-7.5-7.5-7.5h-13.1c-4.6,0-8.3-3.7-8.3-8.3l0,0c0-4.6,3.7-8.3,8.3-8.3h52
			c4.2,0,7.5-3.4,7.5-7.5l0,0c0-4.2-3.4-7.5-7.5-7.5H726c-4.4,0-7.9-3.5-7.9-7.9l0,0c0-4.4,3.5-7.9,7.9-7.9h28.3
			c4.2,0,7.5-3.4,7.5-7.5l0,0c0-4.2-3.4-7.5-7.5-7.5H538c-4.2,0-7.5,3.4-7.5,7.5l0,0c0,4.2,3.4,7.5,7.5,7.5h60.2
			c4.4,0,7.9,3.5,7.9,7.9l0,0c0,4.4-3.5,7.9-7.9,7.9h-21.4c-4.2,0-7.5,3.4-7.5,7.5l0,0c0,4.2,3.4,7.5,7.5,7.5h70.3
			c4.6,0,8.3,3.7,8.3,8.3l0,0c0,4.6-3.7,8.3-8.3,8.3H447.5c-4.2,0-7.5,3.4-7.5,7.5l0,0c0,4.2,3.4,7.5,7.5,7.5h102.6
			c4.6,0,8.3,3.7,8.3,8.3v0.8c0,4.6-3.7,8.3-8.3,8.3h-12.6c-4.2,0-7.5,3.4-7.5,7.5l0,0c0,4.2,3.4,7.5,7.5,7.5h272.3
			C814,628.6,817.3,625.2,817.3,621L817.3,621z"/>
		<g>
			<path class="st3" d="M687.6,343.5c4.4,0.9,8.8,1.5,13.3,1.7l77.9-53.1c1.5-4.2,2.5-8.6,3.3-13L687.6,343.5z"/>
			<path class="st3" d="M656.4,329.2c2.6,1.9,5.2,3.7,8,5.3l117.8-80.3c-0.5-3.1-1.2-6.3-2-9.4L656.4,329.2z"/>
			<path class="st3" d="M670.2,337.6c3.2,1.5,6.6,2.9,10,3.9l102.7-70.1c0.2-3.6,0.2-7.1,0-10.7L670.2,337.6z"/>
			<path class="st3" d="M626.3,253.6l94.4-64.4c-4.4-0.9-8.8-1.5-13.3-1.7l-77.9,53.1C628.1,244.9,627,249.2,626.3,253.6z"/>
			<path class="st3" d="M639,310.8c0.8,1.2,1.7,2.4,2.6,3.6l130.1-88.8c-0.8-1.3-1.6-2.5-2.4-3.7c-0.8-1.2-1.7-2.4-2.6-3.6
				l-130.1,88.8C637.4,308.3,638.2,309.6,639,310.8z"/>
			<path class="st3" d="M696.7,187.8c-12.8,1.2-25.6,5.6-37,13.4c-11.4,7.8-20.1,18-25.9,29.5L696.7,187.8z"/>
			<path class="st3" d="M625.4,261.3c-0.2,3.6-0.2,7.1,0,10.7l112.7-76.9c-3.2-1.5-6.6-2.9-10-3.9L625.4,261.3z"/>
			<path class="st3" d="M711.7,344.9c12.8-1.2,25.6-5.6,37-13.4s20.1-18,25.9-29.5L711.7,344.9z"/>
			<path class="st3" d="M645.3,318.9c2,2.3,4.2,4.4,6.4,6.4L778.2,239c-1-2.8-2.2-5.6-3.6-8.3L645.3,318.9z"/>
			<path class="st3" d="M626.2,278.5c0.5,3.1,1.2,6.3,2,9.4l123.7-84.4c-2.6-1.9-5.2-3.7-8-5.3L626.2,278.5z"/>
			<path class="st3" d="M630.2,293.7c1,2.8,2.2,5.6,3.6,8.3L763,213.8c-2-2.3-4.2-4.4-6.4-6.4L630.2,293.7z"/>
		</g>
		<path class="st3" d="M430.4,1014.5c0-4.5,3.6-8.1,8.1-8.1h81.3c5,0,9-4,9-9v-0.9c0-5-4-9-9-9h-21.3c-4.5,0-8.1-3.6-8.1-8.1l0,0
			c0-4.5,3.6-8.1,8.1-8.1h14.2c5,0,9-4,9-9l0,0c0-5-4-9-9-9h-56.2c-4.5,0-8.1-3.6-8.1-8.1l0,0c0-4.5,3.6-8.1,8.1-8.1h72.6
			c4.7,0,8.6-3.8,8.6-8.6l0,0c0-4.7-3.8-8.6-8.6-8.6h-30.6c-4.5,0-8.1-3.6-8.1-8.1l0,0c0-4.5,3.6-8.1,8.1-8.1h234.1
			c4.5,0,8.1,3.6,8.1,8.1l0,0c0,4.5-3.6,8.1-8.1,8.1h-65.1c-4.7,0-8.6,3.8-8.6,8.6l0,0c0,4.7,3.8,8.6,8.6,8.6h23.1
			c4.5,0,8.1,3.6,8.1,8.1l0,0c0,4.5-3.6,8.1-8.1,8.1h-76c-5,0-9,4-9,9l0,0c0,5,4,9,9,9h215.9c4.5,0,8.1,3.6,8.1,8.1l0,0
			c0,4.5-3.6,8.1-8.1,8.1h-111c-5,0-9,4-9,9v0.9c0,5,4,9,9,9h13.6c4.5,0,8.1,3.6,8.1,8.1l0,0c0,4.5-3.6,8.1-8.1,8.1H438.6
			C434.1,1022.7,430.4,1019,430.4,1014.5L430.4,1014.5z"/>
		<path class="st3" d="M876.7,531.1c0-4.5-3.6-8.1-8.1-8.1h-81.3c-5,0-9-4-9-9v-0.9c0-5,4-9,9-9h21.3c4.5,0,8.1-3.6,8.1-8.1l0,0
			c0-4.5-3.6-8.1-8.1-8.1h-14.2c-5,0-9-4-9-9l0,0c0-5,4-9,9-9h56.2c4.5,0,8.1-3.6,8.1-8.1l0,0c0-4.5-3.6-8.1-8.1-8.1H778
			c-4.7,0-8.6-3.8-8.6-8.6l0,0c0-4.7,3.8-8.6,8.6-8.6h30.6c4.5,0,8.1-3.6,8.1-8.1l0,0c0-4.5-3.6-8.1-8.1-8.1H574.5
			c-4.5,0-8.1,3.6-8.1,8.1l0,0c0,4.5,3.6,8.1,8.1,8.1h65.1c4.7,0,8.6,3.8,8.6,8.6l0,0c0,4.7-3.8,8.6-8.6,8.6h-23.1
			c-4.5,0-8.1,3.6-8.1,8.1l0,0c0,4.5,3.6,8.1,8.1,8.1h76c5,0,9,4,9,9l0,0c0,5-4,9-9,9H476.6c-4.5,0-8.1,3.6-8.1,8.1l0,0
			c0,4.5,3.6,8.1,8.1,8.1h111c5,0,9,4,9,9v0.9c0,5-4,9-9,9H574c-4.5,0-8.1,3.6-8.1,8.1l0,0c0,4.5,3.6,8.1,8.1,8.1h294.6
			C873.1,539.2,876.7,535.6,876.7,531.1L876.7,531.1z"/>
		<path class="st3" d="M646.6,571.4c-6.2-11.7-16.6-21.3-30.2-26.4c-27.1-10.2-58,2.1-70.7,28.1c-14.2,29-1.3,63.8,27.9,76.8
			c14.7,6.5,30.6,6.3,44.4,0.6c10.4-4.2,22-5,32.6-1.5c8,2.7,17.1,1.9,25.1-3c11.6-7.3,16.7-21.9,12.1-34.8
			c-3.1-8.6-9.6-14.8-17.3-17.7C660,589.3,651.8,581.3,646.6,571.4z"/>
		<path class="st4" d="M744,691.4c13.1,7.4,28.9,10.3,45.1,6.8c32.2-6.9,54.2-37.5,50.4-70.2c-4.2-36.5-37.8-61.9-73.7-56.3
			c-18,2.8-33.1,12.8-42.8,26.6c-7.3,10.4-17.9,18.3-30.3,21.4c-9.3,2.4-17.6,8.7-22.1,18.3c-6.7,14.1-2.6,31.2,9.8,40.7
			c8.2,6.4,18.3,8.3,27.4,6.4C720.1,682.4,732.9,685.1,744,691.4z"/>
		<path class="st3" d="M732.3,680.3c-10.4-2.5-21.8-1.3-32.1,4.3c-20.6,11-29.6,36.3-20.5,57.9c10.1,24.1,38,34.7,61.5,23.9
			c11.7-5.5,20.1-15.3,24-26.6c2.9-8.6,8.6-16,16.4-20.6c5.9-3.4,10.3-9.4,11.5-16.8c1.8-10.9-4.4-21.8-14.7-25.9
			c-6.9-2.7-14.1-2-20,1.1C750.3,681.6,741.1,682.3,732.3,680.3z"/>
		<path class="st1" d="M702.9,226.1c-10.4-2.5-21.8-1.3-32.1,4.3c-20.6,11-29.6,36.3-20.5,57.9c10.1,24.1,38,34.7,61.5,23.9
			c11.7-5.5,20.1-15.3,24-26.6c2.9-8.6,8.6-16,16.4-20.6c5.9-3.4,10.3-9.4,11.5-16.8c1.8-10.9-4.4-21.8-14.7-25.9
			c-6.9-2.7-14.1-2-20,1.1C721,227.5,711.7,228.2,702.9,226.1z"/>
		<path class="st4" d="M553,936.1c11.6,6.5,25.5,9,39.7,6c28.3-6,47.7-33,44.4-61.8c-3.7-32.1-33.3-54.5-64.9-49.6
			c-15.9,2.4-29.1,11.2-37.7,23.4c-6.4,9.2-15.8,16.1-26.6,18.8c-8.2,2.1-15.5,7.6-19.5,16.1c-5.9,12.4-2.2,27.5,8.6,35.9
			c7.3,5.6,16.1,7.3,24.2,5.6C532,928.2,543.3,930.6,553,936.1z"/>
		<path class="st1" d="M783.3,1007.5c11.6,6.5,25.5,9,39.7,6c28.3-6,47.7-33,44.4-61.8c-3.7-32.1-33.3-54.5-64.9-49.6
			c-15.9,2.4-29.1,11.2-37.7,23.4c-6.4,9.2-15.8,16.1-26.6,18.8c-8.2,2.1-15.5,7.6-19.5,16.1c-5.9,12.4-2.2,27.5,8.6,35.9
			c7.3,5.6,16.1,7.3,24.2,5.6C762.3,999.6,773.5,1002,783.3,1007.5z"/>
		<path class="st2" d="M655.2,948c-6.2,16-6.8,34.3-0.2,51.9c13.1,35.1,51.3,54.8,87.5,45.1c40.4-10.8,63.4-52.9,51.2-92.5
			c-6.1-19.8-19.9-35.2-37.1-43.8c-12.9-6.5-23.6-17.2-29.2-30.5c-4.2-10.1-12.7-18.4-24.3-21.9c-17-5.2-35.6,2.3-44.3,17.8
			c-5.8,10.4-6.3,21.9-2.6,32C661.3,919.6,660.3,934.5,655.2,948z"/>
		<g>
			<path class="st3" d="M587.6,882.5c4.4,0.9,8.8,1.5,13.3,1.7l77.9-53.1c1.5-4.2,2.5-8.6,3.3-13L587.6,882.5z"/>
			<path class="st3" d="M556.4,868.2c2.6,1.9,5.2,3.7,8,5.3l117.8-80.3c-0.5-3.1-1.2-6.3-2-9.4L556.4,868.2z"/>
			<path class="st3" d="M570.2,876.6c3.2,1.5,6.6,2.9,10,3.9l102.7-70.1c0.2-3.6,0.2-7.1,0-10.7L570.2,876.6z"/>
			<path class="st3" d="M526.3,792.7l94.4-64.4c-4.4-0.9-8.8-1.5-13.3-1.7l-77.9,53.1C528.1,783.9,527,788.2,526.3,792.7z"/>
			<path class="st3" d="M539,849.9c0.8,1.2,1.7,2.4,2.6,3.6l130.1-88.8c-0.8-1.3-1.6-2.5-2.4-3.7c-0.8-1.2-1.7-2.4-2.6-3.6
				l-130.1,88.8C537.4,847.4,538.2,848.6,539,849.9z"/>
			<path class="st3" d="M596.7,726.9c-12.8,1.2-25.6,5.6-37,13.4c-11.4,7.8-20.1,18-25.9,29.5L596.7,726.9z"/>
			<path class="st3" d="M525.4,800.3c-0.2,3.6-0.2,7.1,0,10.7l112.7-76.9c-3.2-1.5-6.6-2.9-10-3.9L525.4,800.3z"/>
			<path class="st3" d="M611.7,883.9c12.8-1.2,25.6-5.6,37-13.4c11.4-7.8,20.1-18,25.9-29.5L611.7,883.9z"/>
			<path class="st3" d="M545.3,858c2,2.3,4.2,4.4,6.4,6.4l126.5-86.3c-1-2.8-2.2-5.6-3.6-8.3L545.3,858z"/>
			<path class="st3" d="M526.2,817.6c0.5,3.1,1.2,6.3,2,9.4l123.7-84.4c-2.6-1.9-5.2-3.7-8-5.3L526.2,817.6z"/>
			<path class="st3" d="M530.1,832.7c1,2.8,2.2,5.6,3.6,8.3L663,752.8c-2-2.3-4.2-4.4-6.4-6.4L530.1,832.7z"/>
		</g>
		<g>
			<path class="st2" d="M687.5,448.5c4.4,0.9,8.8,1.5,13.3,1.7l77.9-53.1c1.5-4.2,2.5-8.6,3.3-13L687.5,448.5z"/>
			<path class="st2" d="M656.3,434.2c2.6,1.9,5.2,3.7,8,5.3L782,359.1c-0.5-3.1-1.2-6.3-2-9.4L656.3,434.2z"/>
			<path class="st2" d="M670.1,442.6c3.2,1.5,6.6,2.9,10,3.9l102.7-70.1c0.2-3.6,0.2-7.1,0-10.7L670.1,442.6z"/>
			<path class="st2" d="M626.2,358.6l94.4-64.4c-4.4-0.9-8.8-1.5-13.3-1.7l-77.9,53.1C628,349.8,626.9,354.2,626.2,358.6z"/>
			<path class="st2" d="M638.9,415.8c0.8,1.2,1.7,2.4,2.6,3.6l130.1-88.8c-0.8-1.3-1.6-2.5-2.4-3.7c-0.8-1.2-1.7-2.4-2.6-3.6
				l-130.1,88.8C637.2,413.3,638,414.6,638.9,415.8z"/>
			<path class="st2" d="M696.5,292.8c-12.8,1.2-25.6,5.6-37,13.4s-20.1,18-25.9,29.5L696.5,292.8z"/>
			<path class="st2" d="M625.3,366.2c-0.2,3.6-0.2,7.1,0,10.7L738,300.1c-3.2-1.5-6.6-2.9-10-3.9L625.3,366.2z"/>
			<path class="st2" d="M711.5,449.9c12.8-1.2,25.6-5.6,37-13.4s20.1-18,25.9-29.5L711.5,449.9z"/>
			<path class="st2" d="M645.2,423.9c2,2.3,4.2,4.4,6.4,6.4L778.1,344c-1-2.8-2.2-5.6-3.6-8.3L645.2,423.9z"/>
			<path class="st2" d="M626.1,383.5c0.5,3.1,1.2,6.3,2,9.4l123.7-84.4c-2.6-1.9-5.2-3.7-8-5.3L626.1,383.5z"/>
			<path class="st2" d="M630,398.7c1,2.8,2.2,5.6,3.6,8.3l129.3-88.2c-2-2.3-4.2-4.4-6.4-6.4L630,398.7z"/>
		</g>
		<g>
			<path class="st2" d="M767.8,905.4c4.4,0.9,8.8,1.5,13.3,1.7L859,854c1.5-4.2,2.5-8.6,3.3-13L767.8,905.4z"/>
			<path class="st2" d="M736.6,891c2.6,1.9,5.2,3.7,8,5.3L862.3,816c-0.5-3.1-1.2-6.3-2-9.4L736.6,891z"/>
			<path class="st2" d="M750.4,899.4c3.2,1.5,6.6,2.9,10,3.9l102.7-70.1c0.2-3.6,0.2-7.1,0-10.7L750.4,899.4z"/>
			<path class="st2" d="M706.5,815.5l94.4-64.4c-4.4-0.9-8.8-1.5-13.3-1.7l-77.9,53.1C708.3,806.7,707.2,811.1,706.5,815.5z"/>
			<path class="st2" d="M719.2,872.7c0.8,1.2,1.7,2.4,2.6,3.6l130.1-88.8c-0.8-1.3-1.6-2.5-2.4-3.7c-0.8-1.2-1.7-2.4-2.6-3.6
				L716.8,869C717.5,870.2,718.3,871.4,719.2,872.7z"/>
			<path class="st2" d="M776.9,749.7c-12.8,1.2-25.6,5.6-37,13.4c-11.4,7.8-20.1,18-25.9,29.5L776.9,749.7z"/>
			<path class="st2" d="M705.6,823.1c-0.2,3.6-0.2,7.1,0,10.7L818.3,757c-3.2-1.5-6.6-2.9-10-3.9L705.6,823.1z"/>
			<path class="st2" d="M791.9,906.8c12.8-1.2,25.6-5.6,37-13.4c11.4-7.8,20.1-18,25.9-29.5L791.9,906.8z"/>
			<path class="st2" d="M725.5,880.8c2,2.3,4.2,4.4,6.4,6.4l126.5-86.3c-1-2.8-2.2-5.6-3.6-8.3L725.5,880.8z"/>
			<path class="st2" d="M706.4,840.4c0.5,3.1,1.2,6.3,2,9.4l123.7-84.4c-2.6-1.9-5.2-3.7-8-5.3L706.4,840.4z"/>
			<path class="st2" d="M710.3,855.5c1,2.8,2.2,5.6,3.6,8.3l129.3-88.2c-2-2.3-4.2-4.4-6.4-6.4L710.3,855.5z"/>
		</g>
		<path class="st3" d="M773.1,853.8c-6.2-11.7-16.6-21.3-30.2-26.4c-27.1-10.2-58,2.1-70.7,28.1c-14.2,29-1.3,63.8,27.9,76.8
			c14.7,6.5,30.6,6.3,44.4,0.6c10.4-4.2,22-5,32.6-1.5c8,2.7,17.1,1.9,25.1-3c11.6-7.3,16.7-21.9,12.1-34.8
			c-3.1-8.6-9.6-14.8-17.3-17.7C786.5,871.8,778.3,863.7,773.1,853.8z"/>
		<g>
			<path class="st1" d="M658.3,1085.9c4.4,0.9,8.8,1.5,13.3,1.7l77.9-53.1c1.5-4.2,2.5-8.6,3.3-13L658.3,1085.9z"/>
			<path class="st1" d="M627,1071.6c2.6,1.9,5.2,3.7,8,5.3l117.8-80.3c-0.5-3.1-1.2-6.3-2-9.4L627,1071.6z"/>
			<path class="st1" d="M640.8,1080c3.2,1.5,6.6,2.9,10,3.9l102.7-70.1c0.2-3.6,0.2-7.1,0-10.7L640.8,1080z"/>
			<path class="st1" d="M596.9,996l94.4-64.4c-4.4-0.9-8.8-1.5-13.3-1.7L600.2,983C598.8,987.2,597.7,991.6,596.9,996z"/>
			<path class="st1" d="M609.6,1053.2c0.8,1.2,1.7,2.4,2.6,3.6L742.4,968c-0.8-1.3-1.6-2.5-2.4-3.7c-0.8-1.2-1.7-2.4-2.6-3.6
				l-130.1,88.8C608,1050.7,608.8,1052,609.6,1053.2z"/>
			<path class="st1" d="M667.3,930.2c-12.8,1.2-25.6,5.6-37,13.4c-11.4,7.8-20.1,18-25.9,29.5L667.3,930.2z"/>
			<path class="st1" d="M596.1,1003.6c-0.2,3.6-0.2,7.1,0,10.7l112.7-76.9c-3.2-1.5-6.6-2.9-10-3.9L596.1,1003.6z"/>
			<path class="st1" d="M682.3,1087.3c12.8-1.2,25.6-5.6,37-13.4s20.1-18,25.9-29.5L682.3,1087.3z"/>
			<path class="st1" d="M616,1061.3c2,2.3,4.2,4.4,6.4,6.4l126.5-86.3c-1-2.8-2.2-5.6-3.6-8.3L616,1061.3z"/>
			<path class="st1" d="M596.8,1020.9c0.5,3.1,1.2,6.3,2,9.4l123.7-84.4c-2.6-1.9-5.2-3.7-8-5.3L596.8,1020.9z"/>
			<path class="st1" d="M600.8,1036.1c1,2.8,2.2,5.6,3.6,8.3l129.3-88.2c-2-2.3-4.2-4.4-6.4-6.4L600.8,1036.1z"/>
		</g>
		<path class="st4" d="M706.2,509.5c0-0.2,0-0.3,0-0.5c0-33.1-26.8-59.9-59.9-59.9c-33.1,0-59.9,26.8-59.9,59.9c0,0.2,0,0.3,0,0.5
			H706.2z"/>
		<path class="st1" d="M711.5,575.5c0.2,0,0.3,0,0.5,0c33.1,0,59.9-26.8,59.9-59.9s-26.8-59.9-59.9-59.9c-0.2,0-0.3,0-0.5,0V575.5z"
			/>
		<g>
			<path class="st2" d="M728.4,545.9c0,0-37.6,41.9-83.9,41.9s-83.9-41.9-83.9-41.9s37.6-41.9,83.9-41.9S728.4,545.9,728.4,545.9z"
				/>
			<path class="st3" d="M644.5,504c-46.3,0-83.9,41.9-83.9,41.9h167.8C728.4,545.9,690.8,504,644.5,504z"/>
			<path class="st5" d="M677,545.9c0,17.95-14.55,32.5-32.5,32.5S612,563.85,612,545.9s14.55-32.5,32.5-32.5S677,527.95,677,545.9z"
				/>
		</g>
		<g>
			<path class="st2" d="M676.4,959.4c0,0-37.6,41.9-83.9,41.9c-46.3,0-83.9-41.9-83.9-41.9s37.6-41.9,83.9-41.9
				S676.4,959.4,676.4,959.4z"/>
			<path class="st1" d="M592.5,917.5c-46.3,0-83.9,41.9-83.9,41.9h167.8C676.4,959.4,638.8,917.5,592.5,917.5z"/>
			<path class="st4" d="M622.46,946.85c6.96,16.54-0.8,35.6-17.35,42.57l0,0c-16.54,6.96-35.6-0.8-42.57-17.35l0,0
				c-6.96-16.54,0.8-35.6,17.35-42.57l0,0C596.44,922.54,615.5,930.31,622.46,946.85L622.46,946.85z"/>
		</g>
		<g>
			<path class="st2" d="M934,883c0,0-37.6,41.9-83.9,41.9c-46.3,0-83.9-41.9-83.9-41.9s37.6-41.9,83.9-41.9S934,883,934,883z"/>
			<path class="st3" d="M850.1,841.1c-46.3,0-83.9,41.9-83.9,41.9H934C934,883,896.4,841.1,850.1,841.1z"/>
			<path class="st5" d="M882.6,883c0,17.95-14.55,32.5-32.5,32.5s-32.5-14.55-32.5-32.5s14.55-32.5,32.5-32.5
				S882.6,865.05,882.6,883z"/>
		</g>
		<g>
			<path class="st2" d="M843.5,415.9c0,0-39.4,44.1-88.1,44.1c-48.7,0-88.1-44.1-88.1-44.1s39.4-44.1,88.1-44.1
				C804.1,371.9,843.5,415.9,843.5,415.9z"/>
			<path class="st3" d="M755.4,371.9c-48.7,0-88.1,44.1-88.1,44.1h176.2C843.5,415.9,804.1,371.9,755.4,371.9z"/>
			<path class="st5" d="M789.6,415.9c0,18.89-15.31,34.2-34.2,34.2l0,0c-18.89,0-34.2-15.31-34.2-34.2v0
				c0-18.89,15.31-34.2,34.2-34.2l0,0C774.29,381.7,789.6,397.01,789.6,415.9L789.6,415.9z"/>
		</g>
		<g>
			<path class="st2" d="M741.8,693.6c0,0-51.4,57.4-114.7,57.4s-114.7-57.4-114.7-57.4s51.4-57.4,114.7-57.4
				S741.8,693.6,741.8,693.6z"/>
			<path class="st1" d="M627.1,636.2c-63.4,0-114.7,57.4-114.7,57.4h229.4C741.8,693.6,690.5,636.2,627.1,636.2z"/>
			<path class="st4" d="M671.6,693.6c0,24.58-19.92,44.5-44.5,44.5s-44.5-19.92-44.5-44.5s19.92-44.5,44.5-44.5
				S671.6,669.02,671.6,693.6z"/>
		</g>
		<g>
			<path class="st2" d="M812.8,320.2c0,0-32.9,36.7-73.4,36.7c-40.6,0-73.4-36.7-73.4-36.7s32.9-36.7,73.4-36.7
				C779.9,283.5,812.8,320.2,812.8,320.2z"/>
			<path class="st3" d="M739.4,283.5c-40.6,0-73.4,36.7-73.4,36.7h146.9C812.8,320.2,779.9,283.5,739.4,283.5z"/>
			<path class="st1" d="M759.55,300.01c11.13,11.13,11.13,29.17,0,40.3c-11.13,11.13-29.17,11.13-40.3,0
				c-11.13-11.13-11.13-29.17,0-40.3S748.42,288.88,759.55,300.01z"/>
		</g>
		<g>
			<path class="st5" d="M720.8,530.6l-37.4,0.5l-0.2,15.3l37.9-0.5L720.8,530.6z M701.4,541.1c-1.3,0-2.3-1-2.3-2.3s1-2.3,2.3-2.3
				s2.3,1,2.3,2.3S702.7,541.1,701.4,541.1z"/>
			<path class="st5" d="M721.9,599.6l-39.5,0.5l-0.1,11.6l39.7-0.6L721.9,599.6z"/>
			<path class="st5" d="M721.6,584l-38.9,0.5l-0.2,12.5l39.3-0.5L721.6,584z"/>
			<path class="st5" d="M721.4,566.9l-38.5,0.5l-0.2,13.9l38.9-0.5L721.4,566.9z M693.2,576.7c-1.3,0-2.3-1-2.3-2.3s1-2.3,2.3-2.3
				s2.3,1,2.3,2.3C695.5,575.6,694.5,576.7,693.2,576.7z M712,576.4c-1.3,0-2.3-1-2.3-2.3s1-2.3,2.3-2.3s2.3,1,2.3,2.3
				S713.2,576.4,712,576.4z"/>
			<path class="st5" d="M721.1,549l-38,0.5l-0.2,14.8l38.4-0.5L721.1,549z"/>
			<path class="st5" d="M718.8,391.9l-33.4,0.5l-0.3,23.5l34.1-0.5L718.8,391.9z M702.5,405.3c-1.3,0-2.3-1-2.3-2.3s1-2.3,2.3-2.3
				s2.3,1,2.3,2.3C704.8,404.2,703.8,405.3,702.5,405.3z"/>
			<path class="st5" d="M719.2,418.6L685,419l-0.3,21.7l34.8-0.4L719.2,418.6z"/>
			<path class="st5" d="M720.2,489.5L684,490l-0.3,17.8l36.8-0.5L720.2,489.5z M702.4,500.7c-1.3,0-2.3-1-2.3-2.3s1-2.3,2.3-2.3
				s2.3,1,2.3,2.3C704.7,499.6,703.7,500.7,702.4,500.7z"/>
			<path class="st5" d="M720.5,510.4l-36.8,0.5l-0.2,17.1l37.3-0.6L720.5,510.4z"/>
			<path class="st5" d="M719.9,467.1l-35.6,0.5l-0.3,19.3l36.2-0.6L719.9,467.1z"/>
			<path class="st5" d="M719.6,443.4l-34.9,0.5l-0.3,20.6l35.5-0.5L719.6,443.4z M703.2,455.4c-1.3,0-2.3-1-2.3-2.3s1-2.3,2.3-2.3
				s2.3,1,2.3,2.3S704.4,455.4,703.2,455.4z"/>
			<path class="st5" d="M718.4,363.8l-32.6,0.4l-0.4,25l33.4-0.4L718.4,363.8z"/>
			<path class="st5" d="M812.1,800.4c-14.1-18.3-18.5-42.4-11.7-64.6c2.4-7.9,4-29.5,4.4-37.8c1.9-47.2-28-69.4-82.6-74.8l-0.1-8.9
				l-39.9,0.6l-0.1,7.9c-53.3,4.1-83.2,25.3-82.8,71.9c0.1,8.3,1,29.9,3.2,37.9c6.1,22.4,0.9,46.4-13.8,64.2
				c-20.3,24.5-30.8,53.8-30.6,84.8c0.3,36.1,15.3,63.6,44.6,81.8c23.4,14.5,55.9,22.5,94.6,23.5c38.7,0.3,71.5-6.7,95.4-20.5
				c29.9-17.2,45.7-44.2,47.2-80.3C841.2,855.2,831.6,825.5,812.1,800.4z M701.2,618.6c1.3,0,2.3,1,2.3,2.3s-1,2.3-2.3,2.3
				s-2.3-1-2.3-2.3C698.9,619.7,699.9,618.6,701.2,618.6z M681.3,625.9l41.6-0.6v3.1l-41.7,0.6L681.3,625.9z M681.2,638.6l41.9-0.6
				v3.1l-42,0.6L681.2,638.6z M703.8,647.5c0,1.3-1,2.3-2.3,2.3s-2.3-1-2.3-2.3s1-2.3,2.3-2.3S703.8,646.2,703.8,647.5z M681,652
				l42.3-0.6v3.1l-42.4,0.6L681,652z M680.8,663.7l42.6-0.6v3.1l-42.7,0.6L680.8,663.7z M680.7,674.7h0.9l42.1-0.6v3.1h-0.9
				l-42.1,0.6V674.7z M680.5,684.9h0.9l42.3-0.6v3.1h-0.9l-42.4,0.6L680.5,684.9z M700.9,708.4c23.8-0.2,43.2,19,43.3,42.7
				c0.2,23.8-19,43.2-42.7,43.3c-23.8,0.2-43.2-19-43.3-42.7C658,728,677.1,708.6,700.9,708.4z M746,893.1V890l-94.3-1.5l-0.1,4.7
				l94.3,1.5l-0.1,5.7l-94.3-1.5l0.4-23.3l94.3,1.5L746,893.1z"/>
			<g>
				<path class="st5" d="M686.2,336.2l-0.4,24.9l32.5-0.5l-0.3-24.8L686.2,336.2z"/>
				<path class="st5" d="M732.7,255.7c0.2,0.4,0.5,0.6,1,0.6h1.4l0.9,2.6c0.4,1,1.3,1.7,2.4,1.7h5.8c1.5,0,2.8-1.3,2.8-2.8l-0.1-7.3
					c0-1.5-1.3-2.8-2.8-2.8h-5.9c-1,0-2,0.6-2.3,1.6l-0.8,2.2c-0.1,0.2-0.1,0.3-0.1,0.5h-1.3c-0.4,0-0.8,0.3-1,0.6h-3v-8.7
					c0-4.8-3.9-8.6-8.7-8.6l-37.6-0.1c-4.8,0-8.6,3.9-8.5,8.7l0.2,9h-2.9c-0.2-0.4-0.5-0.6-1-0.6h-1.3c-0.1-0.2-0.1-0.4-0.2-0.5
					l-0.9-2.2c-0.4-1-1.3-1.6-2.3-1.6h-5.9c-1.5,0-2.8,1.3-2.8,2.8l0.1,7.3c0,1.5,1.3,2.8,2.8,2.8h5.8c1.1,0,2-0.7,2.3-1.7l0.9-2.6
					h1.4c0.4,0,0.8-0.3,1-0.6h2.9l0.4,19.1h-1.5c-0.2-0.4-0.5-0.6-1-0.6h-1.3c-0.1-0.2-0.1-0.4-0.2-0.5l-0.9-2.2
					c-0.4-1-1.3-1.6-2.3-1.6h-5.9c-1.5,0-2.8,1.3-2.8,2.8l0.1,7.3c0,1.5,1.3,2.8,2.8,2.8h5.8c1.1,0,2-0.7,2.3-1.7l0.9-2.6h1.4
					c0.4,0,0.8-0.3,1-0.6h1.5l0.4,19.1h-0.1c-0.2-0.4-0.5-0.6-1-0.6h-1.3c-0.1-0.2-0.1-0.4-0.2-0.5l-0.9-2.2c-0.4-1-1.3-1.6-2.3-1.6
					H664c-1.5,0-2.8,1.3-2.8,2.8l0.1,7.3c0,1.5,1.3,2.8,2.8,2.8h5.8c1.1,0,2-0.7,2.3-1.7l0.9-2.6h1.4c0.4,0,0.8-0.3,1-0.6h0.1
					l0.2,8.8c0,3.5,1,6.9,2.6,9.9l7.3,13.2l0,0l31.8-0.4v0.5l8.2-13.1c2.1-3.4,3.3-7.3,3.3-11.3v-8h0.2c0.2,0.4,0.5,0.6,1,0.6h1.4
					l0.9,2.6c0.4,1,1.3,1.7,2.4,1.7h5.8c1.5,0,2.8-1.3,2.8-2.8l-0.1-7.3c0-1.5-1.3-2.8-2.8-2.8h-5.9c-1,0-2,0.6-2.3,1.6l-0.8,2.2
					c-0.1,0.2-0.1,0.3-0.1,0.5h-1.3c-0.4,0-0.8,0.3-1,0.6h-0.1l0.1-19h1.6c0.2,0.4,0.5,0.6,1,0.6h1.4l0.9,2.6c0.4,1,1.3,1.7,2.4,1.7
					h5.8c1.5,0,2.8-1.3,2.8-2.8l-0.1-7.3c0-1.5-1.3-2.8-2.8-2.8h-5.9c-1,0-2,0.6-2.3,1.6l-0.8,2.2c-0.1,0.2-0.1,0.3-0.1,0.5h-1.3
					c-0.4,0-0.8,0.3-1,0.6h-1.6l0.1-19L732.7,255.7z M687.2,249.6c2.8,0,5.1,2.3,5.2,5.1c0,2.8-2.3,5.1-5.1,5.2
					c-2.8,0-5.1-2.3-5.2-5.1C682.1,251.9,684.4,249.6,687.2,249.6z M687.9,273c2.8,0,5.1,2.3,5.2,5.1c0,2.8-2.3,5.1-5.1,5.2
					c-2.8,0-5.1-2.3-5.2-5.1C682.8,275.3,685.1,273,687.9,273z M688.7,306.7c-2.8,0-5.1-2.3-5.2-5.1c0-2.8,2.3-5.1,5.1-5.2
					c2.8,0,5.1,2.3,5.2,5.1C693.8,304.4,691.5,306.7,688.7,306.7z M716.8,306.5c-2.8,0-5.1-2.3-5.2-5.1c0-2.8,2.3-5.1,5.1-5.2
					c2.8,0,5.1,2.3,5.2,5.1C721.9,304.2,719.6,306.5,716.8,306.5z M717.2,283.1c-2.8,0-5.1-2.3-5.2-5.1c0-2.8,2.3-5.1,5.1-5.2
					c2.8,0,5.1,2.3,5.2,5.1C722.3,280.7,720,283,717.2,283.1z M717.6,259.6c-2.8,0-5.1-2.3-5.2-5.1c0-2.8,2.3-5.1,5.1-5.2
					c2.8,0,5.1,2.3,5.2,5.1C722.7,257.3,720.4,259.6,717.6,259.6z"/>
			</g>
		</g>
	</g>
</g>
</svg>
