<?xml version="1.0" ?><svg enable-background="new 0 0 512 512" version="1.1" viewBox="0 0 512 512" xml:space="preserve" xmlns="http://www.w3.org/2000/svg" xmlns:xlink="http://www.w3.org/1999/xlink"><g id="Colors"><g><g><g><path d="M392.427,362.058l-57.567,7.07c-5.459,0.67-10.474-3.247-11.144-8.706l-10.849-88.336      c-0.67-5.459,3.247-10.474,8.706-11.144l57.567-7.07c5.459-0.67,10.474,3.247,11.144,8.706l10.849,88.336      C401.804,356.373,397.886,361.388,392.427,362.058z" fill="#A7AEC1"/></g></g><g><g><path d="M333.623,374.205c-3.323,0-6.538-1.104-9.209-3.191c-3.164-2.472-5.174-6.017-5.661-9.983l-10.85-88.336      c-0.487-3.965,0.605-7.892,3.077-11.055s6.017-5.174,9.982-5.661l57.567-7.071c3.964-0.485,7.893,0.605,11.056,3.078      c3.164,2.472,5.174,6.017,5.661,9.983l10.85,88.336c0.487,3.965-0.605,7.892-3.077,11.055s-6.017,5.174-9.982,5.661      l-57.567,7.071C334.853,374.167,334.236,374.205,333.623,374.205z M380.356,258.796c-0.201,0-0.404,0.013-0.607,0.038      l-57.567,7.071c-1.314,0.161-2.494,0.833-3.321,1.892c-0.826,1.059-1.193,2.365-1.031,3.68l10.85,88.337      c0.161,1.314,0.833,2.494,1.892,3.321c1.058,0.827,2.361,1.192,3.681,1.032l57.567-7.071l0,0      c1.314-0.161,2.494-0.833,3.321-1.892c0.826-1.059,1.193-2.365,1.031-3.68l-10.85-88.337c-0.161-1.314-0.833-2.494-1.892-3.321      C382.534,259.167,381.462,258.796,380.356,258.796z" fill="#3F456B"/></g></g><g><g><rect fill="#767C93" height="42" transform="matrix(0.9925 -0.1219 0.1219 0.9925 -33.5693 45.5201)" width="38" x="336.232" y="276.108"/></g></g><g><g><g><path d="M381.653,336.846c0.436,3.548-2.086,6.778-5.635,7.213c-3.548,0.436-6.778-2.087-7.213-5.635       s2.088-6.779,5.635-7.214C377.988,330.774,381.217,333.298,381.653,336.846z" fill="#3F456B"/></g></g><g><g><path d="M352.869,340.381c0.436,3.548-2.086,6.778-5.635,7.213c-3.548,0.436-6.778-2.087-7.213-5.635       s2.088-6.779,5.635-7.214C349.205,334.309,352.433,336.833,352.869,340.381z" fill="#3F456B"/></g></g></g><g><g><path d="M338.934,325.268c-1.11,0-2.194-0.37-3.078-1.06c-1.045-0.816-1.723-2.014-1.885-3.331l-5.119-41.687      c-0.336-2.741,1.612-5.235,4.354-5.572l37.716-4.632c2.749-0.332,5.235,1.613,5.572,4.354l5.12,41.687      c0.161,1.316-0.206,2.643-1.022,3.688s-2.015,1.723-3.331,1.885l-37.717,4.632C339.34,325.255,339.136,325.268,338.934,325.268z       M339.387,282.934l3.9,31.761l27.791-3.413l-3.901-31.761L339.387,282.934z" fill="#3F456B"/></g></g></g><g><g><g><path d="M144,451c-2.762,0-5-2.239-5-5V322c0-2.761,2.238-5,5-5s5,2.239,5,5v124      C149,448.761,146.762,451,144,451z" fill="#3F456B"/></g></g><g><g><g><ellipse cx="187.665" cy="213.03" fill="#A7AEC1" rx="53" ry="52" transform="matrix(0.2716 -0.9624 0.9624 0.2716 -68.3236 335.7876)"/></g></g><g opacity="0.3"><g><path d="M141.709,196.382c0,0-7.97,32.234,37.905,45.18c45.875,12.945,56.598-21.067,56.598-21.067       s-8.725,58.842-62.941,43.543S141.709,196.382,141.709,196.382z" fill="#3F456B"/></g></g><g opacity="0.2"><g><ellipse cx="194.113" cy="184.197" fill="#FFFFFF" rx="23.5" ry="34.125" transform="matrix(0.2716 -0.9624 0.9624 0.2716 -35.878 320.9905)"/></g></g><g><g><path d="M204.24,283.167l-32.408,92.682l-55.301-15.605l20.821-95.952c0,0,2.211-17.04,15.685-13.238       c11.549,3.259,46.196,13.036,46.196,13.036S210.782,267.349,204.24,283.167z" fill="#9398AA"/></g></g><g><g><rect fill="#DAE1EA" height="34" transform="matrix(0.9624 0.2716 -0.2716 0.9624 80.8404 -36.2851)" width="66" x="138.518" y="256.933"/></g></g><g opacity="0.3"><g><polyline fill="#3F456B" points="184.958,262.14 152.345,370.35 171.306,375.7 210.026,270.028 185.216,262.213      "/></g></g><g><g><path d="M163.279,320.032c-3.135,1.718-7.068,0.57-8.787-2.566c-1.718-3.135-0.569-7.069,2.566-8.787       c3.135-1.718,7.07-0.569,8.788,2.566C167.564,314.381,166.413,318.315,163.279,320.032z" fill="#3F456B"/></g></g><g><g><path d="M206.804,269.878c-2.111,0-4.074-1.348-4.758-3.466c-0.848-2.628,0.596-5.446,3.224-6.294       c13.1-4.227,22.396-15.776,27.629-34.325c4.165-14.76,4.244-26.399,0.241-35.581c-4.759-10.916-15.369-18.563-32.438-23.379       c-16.452-4.643-29.747-3.596-39.519,3.108c-8.388,5.753-14.696,15.956-18.751,30.324c-5.711,20.238-3.666,35.009,6.253,45.157       c1.931,1.975,1.895,5.141-0.08,7.071s-5.139,1.894-7.071-0.081c-12.64-12.933-15.494-30.878-8.727-54.863       c10.306-36.519,34.723-50.466,70.61-40.34c19.856,5.603,32.941,15.362,38.89,29.007c4.964,11.385,5.034,25.219,0.217,42.293       c-6.112,21.661-17.933,35.882-34.184,41.126C207.83,269.8,207.312,269.878,206.804,269.878z" fill="#3F456B"/></g></g><g><g><path d="M196.739,303.715c-0.45,0-0.907-0.061-1.36-0.189l-61.595-17.381c-2.658-0.75-4.205-3.512-3.455-6.17       c0.751-2.658,3.522-4.204,6.17-3.454l61.595,17.381c2.658,0.75,4.205,3.512,3.455,6.17       C200.927,302.275,198.921,303.715,196.739,303.715z" fill="#3F456B"/></g></g><g opacity="0.3"><g><rect fill="#3F456B" height="15" transform="matrix(0.9624 0.2716 -0.2716 0.9624 103.6257 -26.4625)" width="61" x="116.922" y="353.668"/></g></g><g><g><path d="M171.834,380.85c-0.45,0-0.906-0.061-1.359-0.189l-55.301-15.605c-2.561-0.722-4.106-3.322-3.52-5.917       l25.438-112.313c0.304-1.337,1.143-2.492,2.321-3.193c1.179-0.701,2.596-0.887,3.913-0.515l66.888,18.875       c1.32,0.373,2.43,1.271,3.067,2.484c0.639,1.214,0.751,2.637,0.31,3.935l-37.025,109.043       C175.862,379.529,173.925,380.85,171.834,380.85z M122.456,356.721l46.167,13.028l33.806-99.562l-56.746-16.013       L122.456,356.721z" fill="#3F456B"/></g></g></g></g><g opacity="0.7"><g><g><g><g><path d="M256.032,34.441c-2.755,0-4.992-2.229-5-4.985l-0.04-13.54c-0.008-2.761,2.224-5.006,4.985-5.015        c0.005,0,0.01,0,0.015,0c2.755,0,4.992,2.229,5,4.985l0.04,13.54c0.008,2.761-2.224,5.006-4.985,5.015        C256.042,34.441,256.037,34.441,256.032,34.441z" fill="#3F456B"/></g></g></g><g><g><g><path d="M297.402,75.048c-2.752,0-4.988-2.224-5-4.978c-0.012-2.762,2.217-5.01,4.979-5.022l13-0.057        c0.007,0,0.015,0,0.021,0c2.752,0,4.988,2.224,5,4.978c0.012,2.762-2.217,5.01-4.979,5.022l-13,0.057        C297.417,75.048,297.409,75.048,297.402,75.048z" fill="#3F456B"/></g></g></g><g><g><g><path d="M291.708,54.579c-1.724,0-3.399-0.892-4.328-2.488c-1.388-2.388-0.577-5.448,1.811-6.835l11.556-6.717        c2.39-1.39,5.447-0.576,6.836,1.81c1.388,2.388,0.577,5.448-1.811,6.835l-11.556,6.717        C293.425,54.36,292.561,54.579,291.708,54.579z" fill="#3F456B"/></g></g></g><g><g><g><path d="M276.719,39.827c-0.844,0-1.698-0.214-2.482-0.664c-2.396-1.374-3.224-4.429-1.851-6.825l6.7-11.685        c1.374-2.396,4.431-3.224,6.825-1.85c2.396,1.374,3.224,4.429,1.851,6.825l-6.7,11.685        C280.138,38.925,278.452,39.827,276.719,39.827z" fill="#3F456B"/></g></g></g></g><g><g><g><g><path d="M256.118,33.119c-2.75,0-4.985-2.223-4.999-4.976l-0.059-12.218c-0.014-2.761,2.215-5.011,4.976-5.024        c0.009,0,0.017,0,0.025,0c2.75,0,4.985,2.223,4.999,4.976l0.059,12.218c0.014,2.761-2.215,5.011-4.976,5.024        C256.135,33.119,256.127,33.119,256.118,33.119z" fill="#3F456B"/></g></g></g><g><g><g><path d="M234.939,38.604c-1.724,0-3.399-0.891-4.327-2.488l-6.263-10.774c-1.389-2.387-0.578-5.448,1.81-6.835        c2.387-1.39,5.447-0.578,6.835,1.81l6.263,10.774c1.389,2.387,0.578,5.448-1.81,6.835        C236.657,38.385,235.792,38.604,234.939,38.604z" fill="#3F456B"/></g></g></g><g><g><g><path d="M220.176,54.102c-0.844,0-1.698-0.214-2.482-0.664L206.466,47c-2.396-1.374-3.224-4.429-1.851-6.825        c1.374-2.396,4.431-3.223,6.825-1.85l11.228,6.438c2.396,1.374,3.224,4.429,1.851,6.825        C223.595,53.2,221.909,54.102,220.176,54.102z" fill="#3F456B"/></g></g></g><g><g><g><path d="M201.969,74.567c-2.752,0-4.988-2.224-5-4.978c-0.012-2.762,2.217-5.01,4.979-5.022l13-0.057        c0.007,0,0.015,0,0.021,0c2.752,0,4.988,2.224,5,4.978c0.012,2.762-2.217,5.01-4.979,5.022l-13,0.057        C201.983,74.567,201.976,74.567,201.969,74.567z" fill="#3F456B"/></g></g></g></g></g><g opacity="0.5"><g><g><g><path d="M362.466,90.837c-1.279,0-2.56-0.488-3.535-1.464c-1.953-1.953-1.953-5.119,0-7.071l8.018-8.017       c1.951-1.952,5.119-1.952,7.07,0c1.953,1.953,1.953,5.119,0,7.071l-8.018,8.017C365.025,90.349,363.745,90.837,362.466,90.837z       " fill="#3F456B"/></g></g><g><g><path d="M335.104,118.18c-1.279,0-2.56-0.488-3.535-1.464c-1.953-1.953-1.953-5.118,0-7.071l8.017-8.017       c1.951-1.952,5.119-1.952,7.07,0c1.953,1.953,1.953,5.118,0,7.071l-8.017,8.017C337.663,117.691,336.383,118.18,335.104,118.18       z" fill="#3F456B"/></g></g></g><g><g><g><path d="M370.473,118.19c-1.279,0-2.56-0.488-3.535-1.464l-8.017-8.017c-1.953-1.953-1.953-5.119,0-7.071       c1.951-1.952,5.119-1.952,7.07,0l8.017,8.017c1.953,1.953,1.953,5.119,0,7.071C373.032,117.702,371.752,118.19,370.473,118.19z       " fill="#3F456B"/></g></g><g><g><path d="M343.13,90.827c-1.279,0-2.56-0.488-3.535-1.464l-8.017-8.017c-1.953-1.953-1.953-5.119,0-7.071       c1.951-1.952,5.119-1.952,7.07,0l8.017,8.017c1.953,1.953,1.953,5.119,0,7.071C345.689,90.339,344.409,90.827,343.13,90.827z" fill="#3F456B"/></g></g></g></g><g><g><rect fill="#F4B78E" height="47" width="481" x="16" y="448"/></g></g><g opacity="0.15"><g><rect fill="#3F456B" height="16" width="481" x="16" y="479"/></g></g><g opacity="0.15"><g><rect fill="#FFFFFF" height="16" width="481" x="16" y="448"/></g></g><g><g><circle cx="256" cy="127" fill="#DAE1EA" r="49"/></g></g><g opacity="0.3"><g><path d="M210,126c0,0,8,32,46,32s49-31,49-31s-3,49-49,49S210,126,210,126z" fill="#3F456B"/></g></g><g opacity="0.5"><g><circle cx="256" cy="102.5" fill="#FFFFFF" r="23.5"/></g></g><g><g><rect fill="#99A4CE" height="64" width="128" x="192" y="162"/></g></g><g opacity="0.3"><g><rect fill="#FFFFFF" height="15.673" width="126.4" x="192.8" y="162"/></g></g><g opacity="0.15"><g><rect fill="#3F456B" height="15.673" width="126.4" x="192.8" y="210"/></g></g><g><g><rect fill="#8BD0F7" height="95" transform="matrix(0.929 0.3701 -0.3701 0.929 97.2956 -16.3977)" width="112" x="35.377" y="197.837"/></g></g><g opacity="0.3"><g><rect fill="#FFFFFF" height="110.6" transform="matrix(0.3701 -0.929 0.929 0.3701 -126.8811 229.8484)" width="15.673" x="98.221" y="153.191"/></g></g><g opacity="0.15"><g><rect fill="#3F456B" height="110.6" transform="matrix(0.3701 -0.929 0.929 0.3701 -213.4761 248.9109)" width="15.673" x="68.981" y="226.58"/></g></g><g><g><rect fill="#FFD2A6" height="64" transform="matrix(0.9941 -0.108 0.108 0.9941 -25.7456 46.2227)" width="128" x="349.673" y="228.693"/></g></g><g opacity="0.3"><g><rect fill="#FFFFFF" height="15.673" transform="matrix(0.9941 -0.108 0.108 0.9941 -23.1653 45.8)" width="126.4" x="347.862" y="228.834"/></g></g><g opacity="0.15"><g><rect fill="#3F456B" height="15.673" transform="matrix(0.9941 -0.108 0.108 0.9941 -28.2909 46.6397)" width="126.4" x="353.048" y="276.553"/></g></g><g><g><polyline fill="#9398AA" points="221.5,226 227.52,351 284.98,351 291,226    "/></g></g><g opacity="0.3"><g><polyline fill="#3F456B" points="264.732,226 264.732,351 284.433,351 291,227 264.732,226    "/></g></g><g><g><polyline fill="#9398AA" points="41.006,278.552 17.358,354.17 70.738,375.438 105.57,304.276    "/></g></g><g opacity="0.3"><g><polyline fill="#3F456B" points="81.168,294.554 51.928,367.943 70.23,375.235 105.336,304.863 81.168,294.554    "/></g></g><g opacity="0.3"><g><rect fill="#3F456B" height="15" width="64" x="224" y="227"/></g></g><g opacity="0.3"><g><rect fill="#3F456B" height="15" transform="matrix(0.929 0.3701 -0.3701 0.929 114.8627 -5.3931)" width="69" x="36.985" y="289.116"/></g></g><g opacity="0.3"><g><rect fill="#3F456B" height="15" transform="matrix(0.929 0.3701 -0.3701 0.929 135.5038 7.7999)" width="61" x="16.927" y="349.5"/></g></g><g opacity="0.3"><g><rect fill="#3F456B" height="15" width="61" x="227" y="336"/></g></g><g><g><polyline fill="#9398AA" points="388.312,297.119 404.606,385.803 456.724,379.483 451.35,289.475    "/></g></g><g opacity="0.3"><g><polyline fill="#3F456B" points="427.525,292.364 438.359,381.71 456.228,379.543 451.437,290.19 427.525,292.364    "/></g></g><g opacity="0.3"><g><rect fill="#3F456B" height="15" transform="matrix(0.9927 -0.1204 0.1204 0.9927 -33.2673 52.8261)" width="64" x="388.606" y="294.265"/></g></g><g><g><path d="M208.496,453c-1.036,0-2.08-0.321-2.976-0.985c-2.218-1.646-2.682-4.778-1.035-6.995L251,382.347V351.5     c0-2.761,2.238-5,5-5s5,2.239,5,5V384c0,1.073-0.346,2.118-0.985,2.98l-47.5,64C211.534,452.302,210.024,453,208.496,453z" fill="#3F456B"/></g></g><g><g><path d="M303.504,451.5c-1.51,0-3.001-0.681-3.984-1.975L261,398.842V446c0,2.761-2.238,5-5,5s-5-2.239-5-5v-62     c0-2.146,1.37-4.053,3.403-4.738c2.034-0.686,4.278,0.005,5.577,1.713l47.5,62.5c1.671,2.199,1.243,5.335-0.955,7.006     C305.621,451.168,304.558,451.5,303.504,451.5z" fill="#3F456B"/></g></g><g><g><path d="M384.496,453c-1.036,0-2.08-0.321-2.976-0.985c-2.218-1.646-2.682-4.778-1.035-6.995l47.5-64     c1.646-2.218,4.778-2.68,6.994-1.035c2.218,1.646,2.682,4.778,1.035,6.995l-47.5,64C387.534,452.302,386.024,453,384.496,453z" fill="#3F456B"/></g></g><g><g><path d="M479.504,451.5c-1.51,0-3.001-0.681-3.984-1.975L437,398.842V446c0,2.761-2.238,5-5,5s-5-2.239-5-5v-62     c0-2.146,1.37-4.053,3.403-4.738c2.035-0.686,4.278,0.005,5.577,1.713l47.5,62.5c1.671,2.199,1.243,5.335-0.955,7.006     C481.621,451.168,480.558,451.5,479.504,451.5z" fill="#3F456B"/></g></g><g><g><path d="M49.496,453c-1.036,0-2.08-0.321-2.976-0.985c-2.218-1.646-2.682-4.778-1.035-6.995l47.5-64     c1.646-2.218,4.778-2.68,6.994-1.035c2.218,1.646,2.682,4.778,1.035,6.995l-47.5,64C52.534,452.302,51.024,453,49.496,453z" fill="#3F456B"/></g></g><g><g><path d="M97,451c-2.762,0-5-2.239-5-5V322c0-2.761,2.238-5,5-5s5,2.239,5,5v124C102,448.761,99.762,451,97,451z" fill="#3F456B"/></g></g><g><g><path d="M144.504,451.5c-1.51,0-3.001-0.681-3.984-1.975l-47.5-62.5c-1.671-2.199-1.243-5.335,0.955-7.006     c2.201-1.671,5.337-1.242,7.006,0.956l47.5,62.5c1.671,2.199,1.243,5.335-0.955,7.006     C146.621,451.168,145.558,451.5,144.504,451.5z" fill="#3F456B"/></g></g><g><g><path d="M450.985,224.449l-81.54,8.862c-26.463-12.201-29.7-54.384-9.453-77.725     c20.248-23.33,58.86-26.422,83.647-7.987C468.427,166.046,474.09,205.756,450.985,224.449z" fill="#BAC2D3"/></g></g><g opacity="0.1"><g><path d="M438.946,224.751l-57.679,6.269c-18.734-8.767-21.065-38.991-6.764-55.693     c14.302-16.694,41.616-18.871,59.17-5.639C451.228,182.928,455.274,211.383,438.946,224.751z" fill="#3F456B"/></g></g><g><g><path d="M395.729,285.749c-2.52,0-4.687-1.898-4.965-4.46l-3.565-32.807c-0.209-1.92,0.707-3.789,2.353-4.8     c1.646-1.012,3.728-0.985,5.346,0.069L413.719,256l14.62-15.466c1.34-1.417,3.378-1.926,5.229-1.305     c1.848,0.622,3.165,2.261,3.376,4.199l3.527,32.458c0.299,2.745-1.686,5.212-4.431,5.511c-2.764,0.295-5.213-1.686-5.511-4.431     l-2.358-21.698l-10.05,10.632c-1.659,1.756-4.337,2.073-6.361,0.756l-13.48-8.773l2.426,22.325     c0.299,2.745-1.686,5.212-4.431,5.511C396.091,285.739,395.908,285.749,395.729,285.749z" fill="#3F456B"/></g></g><g opacity="0.2"><g><circle cx="392.5" cy="161.5" fill="#FFFFFF" r="23.5"/></g></g><g opacity="0.7"><g><path d="M352.506,451.501c-0.265,0-0.532-0.021-0.802-0.065c-2.727-0.439-4.58-3.006-4.141-5.732     c0.027-0.175,2.801-18.787-7.4-31.789c-5.905-7.526-15.187-11.878-27.587-12.933c-16.342-1.391-28.583-7.146-36.383-17.108     c-11.484-14.665-8.754-32.888-8.632-33.657c0.433-2.728,2.986-4.591,5.722-4.156c2.722,0.432,4.581,2.985,4.157,5.707     c-0.033,0.225-2.104,14.87,6.686,26.017c6.023,7.639,15.881,12.091,29.298,13.233c15.315,1.303,26.978,6.955,34.664,16.797     c12.878,16.491,9.498,38.55,9.349,39.481C357.04,449.752,354.917,451.5,352.506,451.501z" fill="#3F456B"/></g></g><g><g><path d="M80.115,189.719l34.81-90.931c6.347-15.93,24.406-23.699,40.336-17.352s23.699,24.406,17.352,40.336     l-34.81,90.931" fill="#767C93"/></g></g><g opacity="0.3"><g><path d="M155.261,81.435c0,0,10.045,12.614,0.421,36.767s-33.718,88.19-33.718,88.19l16.949,3.523l33.718-88.19     C172.631,121.726,182.201,92.169,155.261,81.435" fill="#3F456B"/></g></g><g opacity="0.2"><g><circle cx="135.88" cy="99.01" fill="#FFFFFF" r="17.5"/></g></g><g opacity="0.5"><g><path d="M149.599,187.958c-0.615,0-1.241-0.115-1.849-0.356l-57.597-22.948c-2.565-1.022-3.816-3.93-2.794-6.496     c1.021-2.565,3.925-3.816,6.495-2.794l57.597,22.948c2.565,1.022,3.816,3.93,2.794,6.496     C153.465,186.766,151.586,187.958,149.599,187.958z" fill="#3F456B"/></g></g><g><g><g><path d="M69.551,259.402c-1.938,0-3.78-1.133-4.595-3.025c-1.092-2.537,0.08-5.478,2.617-6.569l45.749-19.681      c2.533-1.092,5.477,0.08,6.568,2.617s-0.08,5.478-2.617,6.569l-45.749,19.681C70.881,259.271,70.21,259.402,69.551,259.402z" fill="#3F456B"/></g></g><g><g><path d="M102.266,272.437c-1.938,0-3.781-1.133-4.595-3.025l-19.681-45.75c-1.092-2.537,0.08-5.478,2.617-6.569      c2.534-1.091,5.477,0.081,6.568,2.617l19.681,45.75c1.092,2.537-0.08,5.478-2.617,6.569      C103.596,272.305,102.925,272.437,102.266,272.437z" fill="#3F456B"/></g></g></g><g opacity="0.3"><g><rect fill="#3F456B" height="15" transform="matrix(0.9927 -0.1204 0.1204 0.9927 -42.0003 54.4382)" width="55.123" x="402.021" y="367.354"/></g></g><g opacity="0.7"><g><path d="M209.006,451.001c-0.318,0-0.64-0.03-0.964-0.094c-2.71-0.529-4.479-3.155-3.949-5.865     c2.066-10.592-0.158-21.594-5.807-28.715c-4.366-5.505-10.356-8.436-17.802-8.71c-11.365-0.424-22.729,4.507-33.673,9.273     c-2.25,0.979-4.482,1.952-6.699,2.873c-17.129,7.12-43.182,13.946-70.04,6.032c-15.943-4.698-26.769-12.984-32.176-24.63     c-8.533-18.38-0.058-38.055,0.307-38.884c1.114-2.526,4.064-3.675,6.592-2.56c2.523,1.111,3.67,4.056,2.565,6.58     c-0.086,0.197-7.007,16.504-0.362,30.719c4.154,8.889,12.869,15.343,25.9,19.182c24.049,7.087,47.737,0.825,63.376-5.674     c2.166-0.9,4.347-1.85,6.544-2.807c11.969-5.213,24.33-10.598,38.035-10.098c10.352,0.382,19.089,4.7,25.268,12.489     c7.526,9.488,10.437,23.261,7.786,36.844C213.441,449.345,211.35,451.001,209.006,451.001z" fill="#3F456B"/></g></g><g><g><path d="M375.223,451.5c-2.49,0-4.646-1.857-4.957-4.391l-9.966-81.105c-0.337-2.741,1.612-5.236,4.354-5.573     c2.736-0.333,5.235,1.613,5.572,4.353l9.966,81.105c0.337,2.741-1.612,5.236-4.354,5.573     C375.632,451.488,375.426,451.5,375.223,451.5z" fill="#3F456B"/></g></g><g><g><g opacity="0.5"><g><path d="M68.056,116.243c-2.762,0-5-2.238-5-5c-0.001-17.377,6.767-33.714,19.054-46.002       s28.624-19.055,46-19.055c0.001,0,0.001,0,0.002,0c2.762,0,5,2.239,5,5s-2.239,5-5,5l0,0c-14.706,0-28.532,5.727-38.931,16.125       s-16.125,24.225-16.125,38.931C73.056,114.004,70.817,116.243,68.056,116.243z" fill="#3F456B"/></g></g><g opacity="0.3"><g><path d="M33.033,116.243c-2.762,0-5-2.238-5-5C28.032,84.512,38.442,59.38,57.345,40.478       c18.901-18.902,44.035-29.312,70.765-29.312c0.002,0,0,0,0.002,0c2.762,0,5,2.239,5,5s-2.239,5-5,5l0,0       c-24.061,0-46.682,9.369-63.695,26.383s-26.384,39.635-26.383,63.695C38.033,114.004,35.795,116.243,33.033,116.243z" fill="#3F456B"/></g></g></g></g><g><g><g opacity="0.5"><g><path d="M445.089,116.243L445.089,116.243c-2.762,0-5-2.239-5-5c0-14.706-5.727-28.532-16.125-38.931       s-24.225-16.126-38.931-16.125c-2.762,0-5-2.238-5-5c0-2.761,2.238-5,5-5c17.377,0,33.714,6.767,46.002,19.055       c12.287,12.288,19.055,28.625,19.054,46.002C450.089,114.004,447.85,116.243,445.089,116.243z" fill="#3F456B"/></g></g><g opacity="0.3"><g><path d="M480.111,116.243L480.111,116.243c-2.762,0-5-2.239-5-5c0.001-24.06-9.369-46.681-26.383-63.695       s-39.635-26.384-63.695-26.383c-2.762,0-5-2.238-5-5c0-2.761,2.238-5,5-5c26.731,0,51.863,10.41,70.767,29.312       c18.902,18.903,29.312,44.035,29.312,70.766C485.111,114.004,482.872,116.243,480.111,116.243z" fill="#3F456B"/></g></g></g></g></g><g id="Lines"><g><path d="M497,500H16c-2.762,0-5-2.239-5-5v-47c0-2.761,2.238-5,5-5h481c2.762,0,5,2.239,5,5v47    C502,497.761,499.762,500,497,500z M21,490h471v-37H21V490z" fill="#3F456B"/></g><g><path d="M290.648,166.648c-1.279,0-2.56-0.488-3.535-1.464c-1.953-1.953-1.953-5.119,0-7.071    c17.155-17.156,17.155-45.07,0-62.226c-17.155-17.155-45.069-17.156-62.227,0c-17.155,17.156-17.155,45.07,0,62.226    c1.953,1.953,1.953,5.119,0,7.071c-1.951,1.952-5.119,1.952-7.07,0c-21.055-21.055-21.055-55.313,0-76.368    c21.055-21.054,55.312-21.054,76.367,0c21.055,21.055,21.055,55.313,0,76.368C293.208,166.16,291.928,166.648,290.648,166.648z" fill="#3F456B"/></g><g><path d="M320,231H192c-2.762,0-5-2.239-5-5v-64c0-2.761,2.238-5,5-5h128c2.762,0,5,2.239,5,5v64    C325,228.761,322.762,231,320,231z M197,221h118v-54H197V221z" fill="#3F456B"/></g><g><path d="M125.817,315.192c-0.615,0-1.241-0.115-1.849-0.356L19.923,273.382c-1.232-0.491-2.219-1.451-2.742-2.669    c-0.524-1.218-0.543-2.595-0.052-3.827l35.162-88.253c0.49-1.232,1.45-2.218,2.669-2.743c1.217-0.524,2.594-0.542,3.826-0.052    l104.046,41.455c2.565,1.022,3.816,3.93,2.794,6.496l-35.162,88.253C129.684,314,127.805,315.192,125.817,315.192z     M28.269,265.942l94.757,37.753l31.461-78.963l-94.757-37.753L28.269,265.942z" fill="#3F456B"/></g><g><path d="M353.499,304.421c-2.52,0-4.687-1.898-4.965-4.46l-6.915-63.625c-0.299-2.745,1.686-5.212,4.431-5.511    l127.25-13.83c2.753-0.303,5.212,1.686,5.511,4.43l6.916,63.625c0.144,1.318-0.243,2.64-1.074,3.673    c-0.83,1.034-2.038,1.695-3.356,1.838l-127.251,13.83C353.861,304.411,353.679,304.421,353.499,304.421z M352.101,240.226    l5.835,53.684l117.31-12.75l-5.836-53.684L352.101,240.226z" fill="#3F456B"/></g><g opacity="0.5"><path d="M305,132h-98c-2.762,0-5-2.239-5-5s2.238-5,5-5h98c2.762,0,5,2.239,5,5S307.762,132,305,132z" fill="#3F456B"/></g><g><path d="M284.98,356H227.52c-2.668,0-4.866-2.095-4.994-4.759l-6.02-125c-0.133-2.758,1.995-5.102,4.754-5.235    c2.778-0.135,5.101,1.995,5.234,4.753L232.284,346h47.932l5.79-120.241c0.133-2.758,2.483-4.879,5.234-4.753    c2.759,0.133,4.887,2.477,4.754,5.235l-6.02,125C289.847,353.905,287.648,356,284.98,356z" fill="#3F456B"/></g><g><path d="M70.736,380.439c-0.617,0-1.243-0.115-1.849-0.356l-53.38-21.268c-2.429-0.968-3.702-3.643-2.922-6.137    l23.647-75.618c0.824-2.636,3.627-4.102,6.265-3.28c2.636,0.824,4.104,3.629,3.28,6.264L23.514,351.24l44.771,17.838l32.795-67    c1.214-2.48,4.208-3.508,6.689-2.292c2.48,1.214,3.507,4.208,2.293,6.689l-34.832,71.162    C74.366,379.398,72.594,380.439,70.736,380.439z" fill="#3F456B"/></g><g><path d="M404.602,390.803c-2.381,0-4.473-1.699-4.913-4.097l-16.294-88.684c-0.499-2.716,1.299-5.322,4.015-5.821    c2.709-0.5,5.322,1.298,5.821,4.014l15.443,84.057l42.779-5.188l-5.094-85.312c-0.164-2.756,1.937-5.125,4.693-5.289    c2.758-0.158,5.124,1.936,5.289,4.693l5.374,90.008c0.157,2.638-1.766,4.943-4.39,5.262l-52.118,6.32    C405.005,390.791,404.802,390.803,404.602,390.803z" fill="#3F456B"/></g><g opacity="0.7"><g><path d="M262.379,193.662c0,3.575-2.897,6.473-6.473,6.473c-3.574,0-6.473-2.898-6.473-6.473     c0-3.575,2.898-6.474,6.473-6.474C259.482,187.189,262.379,190.087,262.379,193.662z" fill="#3F456B"/></g><g><path d="M237.379,193.662c0,3.575-2.896,6.473-6.473,6.473c-3.574,0-6.473-2.898-6.473-6.473     c0-3.575,2.898-6.474,6.473-6.474C234.482,187.189,237.379,190.087,237.379,193.662z" fill="#3F456B"/></g><g><path d="M286.379,193.662c0,3.575-2.897,6.473-6.473,6.473c-3.574,0-6.473-2.898-6.473-6.473     c0-3.575,2.898-6.474,6.473-6.474C283.482,187.189,286.379,190.087,286.379,193.662z" fill="#3F456B"/></g></g><g><g><path d="M348.063,226.554c-1.828,0-3.589-1.006-4.469-2.75c-1.243-2.465-0.252-5.472,2.214-6.715     c0.329-0.166,8.134-4.085,14.386-5.839c2.66-0.744,5.419,0.805,6.165,3.464c0.745,2.659-0.806,5.418-3.464,6.165     c-5.328,1.494-12.513,5.103-12.585,5.139C349.589,226.381,348.82,226.554,348.063,226.554z" fill="#3F456B"/></g><g><path d="M340.15,209.308c-2.035,0-3.947-1.251-4.692-3.272c-0.955-2.591,0.371-5.466,2.962-6.421     c0.34-0.125,8.423-3.077,17.874-4.104c2.754-0.303,5.212,1.686,5.511,4.43c0.299,2.746-1.686,5.213-4.431,5.511     c-8.24,0.896-15.424,3.52-15.495,3.546C341.309,209.208,340.725,209.308,340.15,209.308z" fill="#3F456B"/></g><g><path d="M356.991,188.365c-0.184,0-0.369-0.01-0.557-0.031c-8.771-0.972-17.593-1.007-17.681-1.007     c-2.762-0.007-4.994-2.251-4.987-5.013c0.008-2.757,2.244-4.987,5-4.987c0.004,0,0.008,0,0.012,0     c0.381,0.001,9.434,0.035,18.758,1.068c2.745,0.304,4.723,2.776,4.419,5.521C361.672,186.473,359.506,188.365,356.991,188.365z" fill="#3F456B"/></g><g><path d="M361.327,172.804c-1.1,0-2.206-0.36-3.13-1.103c-4.99-4.011-12.97-7.894-13.05-7.933     c-2.485-1.204-3.524-4.193-2.322-6.679s4.192-3.524,6.677-2.324c0.367,0.178,9.073,4.409,14.961,9.141     c2.152,1.73,2.494,4.877,0.765,7.029C364.239,172.166,362.79,172.804,361.327,172.804z" fill="#3F456B"/></g><g><path d="M370.974,159.687c-1.644,0-3.253-0.809-4.209-2.294c-1.822-2.831-7.85-9.881-10.019-12.359     c-1.818-2.078-1.608-5.237,0.47-7.055c2.077-1.819,5.235-1.609,7.056,0.469c0.848,0.968,8.354,9.576,10.901,13.532     c1.495,2.322,0.824,5.416-1.497,6.911C372.838,159.429,371.9,159.687,370.974,159.687z" fill="#3F456B"/></g><g><path d="M385.127,151.108c-1.974,0-3.843-1.176-4.633-3.116c-2.672-6.562-6.575-15.082-6.614-15.167     c-1.151-2.51-0.05-5.478,2.461-6.629c2.509-1.151,5.478-0.05,6.629,2.46c0.163,0.356,4.032,8.799,6.786,15.565     c1.041,2.558-0.188,5.475-2.746,6.516C386.393,150.989,385.755,151.108,385.127,151.108z" fill="#3F456B"/></g><g><path d="M470.442,214.258c-0.827,0-1.666-0.206-2.439-0.639l0,0c-1.818-1.016-7.412-3.703-11.412-3.931     c-2.757-0.157-4.864-2.519-4.708-5.276s2.515-4.874,5.276-4.708c7.026,0.4,14.867,4.704,15.738,5.193     c2.407,1.353,3.262,4.401,1.908,6.809C473.889,213.34,472.19,214.258,470.442,214.258z" fill="#3F456B"/></g><g><path d="M457.239,194.569c-2.265,0-4.316-1.549-4.861-3.849c-0.637-2.687,1.025-5.381,3.713-6.018     c8.354-1.979,16.789-1.867,17.139-1.863c2.762,0.044,4.964,2.319,4.919,5.08c-0.044,2.733-2.273,4.919-4.997,4.919     c-0.026,0-0.053,0-0.078,0l0,0c-0.079,0-7.571-0.089-14.678,1.594C458.009,194.525,457.62,194.569,457.239,194.569z" fill="#3F456B"/></g><g><path d="M453.422,177.885c-1.789,0-3.52-0.963-4.418-2.653c-1.297-2.438-0.372-5.465,2.066-6.762     c10.068-5.354,15.681-6.087,16.287-6.153c2.754-0.307,5.212,1.686,5.511,4.431c0.296,2.726-1.657,5.177-4.372,5.504     c-0.206,0.031-4.603,0.726-12.73,5.048C455.018,177.697,454.214,177.885,453.422,177.885z" fill="#3F456B"/></g><g><path d="M444.727,162.734c-1.1,0-2.206-0.361-3.13-1.103c-2.152-1.73-2.494-4.877-0.764-7.03     c4.732-5.887,12.327-11.89,12.647-12.142c2.172-1.707,5.312-1.333,7.021,0.835c1.708,2.169,1.334,5.312-0.834,7.021     c-0.069,0.055-7.029,5.562-11.041,10.551C447.639,162.096,446.188,162.734,444.727,162.734z" fill="#3F456B"/></g><g><path d="M432.604,152.989c-0.578,0-1.166-0.101-1.739-0.314c-2.589-0.961-3.908-3.839-2.947-6.428     c1.628-4.384,7.291-15.871,7.531-16.357c1.222-2.476,4.217-3.494,6.696-2.271c2.477,1.222,3.493,4.221,2.271,6.697     c-1.573,3.188-5.921,12.172-7.123,15.412C436.545,151.743,434.636,152.989,432.604,152.989z" fill="#3F456B"/></g><g><path d="M416.057,148.752c-0.281,0-0.565-0.024-0.853-0.073c-2.722-0.467-4.549-3.053-4.081-5.774     c1.224-7.125,3.126-17.402,3.146-17.505c0.502-2.716,3.113-4.51,5.826-4.006c2.716,0.503,4.509,3.112,4.006,5.827     c-0.019,0.103-1.909,10.316-3.122,17.376C420.561,147.032,418.446,148.752,416.057,148.752z" fill="#3F456B"/></g><g><path d="M400.809,147.39c-2.52,0-4.687-1.899-4.965-4.461l-1.944-17.894l9.941-1.081l1.944,17.896     c0.298,2.745-1.686,5.212-4.431,5.51C401.171,147.38,400.988,147.39,400.809,147.39z" fill="#3F456B"/></g></g><g><path d="M429.589,321.604c-2.551,2.505-6.648,2.468-9.153-0.083c-2.504-2.55-2.467-6.649,0.083-9.153    c2.551-2.505,6.65-2.468,9.154,0.083C432.179,315.002,432.14,319.1,429.589,321.604z" fill="#3F456B"/></g><g><g opacity="0.4"><circle cx="255.473" cy="275.714" fill="#384169" r="18"/></g><g><circle cx="256.127" cy="263.732" fill="#767C93" r="18"/></g><g opacity="0.2"><path d="M270.995,266.546c0,0-3.449-10.203-14.433-10.803c-10.984-0.599-15.577,10.166-15.577,10.166     s-3.848-21.241,16.122-20.151S270.995,266.546,270.995,266.546z" fill="#FFFFFF"/></g><g opacity="0.4"><path d="M241.258,260.918c0,0,3.449,10.203,14.433,10.803c10.984,0.599,15.577-10.166,15.577-10.166     s3.848,21.241-16.122,20.151S241.258,260.918,241.258,260.918z" fill="#384169"/></g><g><path d="M256.155,286.733c-0.426,0-0.854-0.012-1.282-0.035c-6.134-0.335-11.771-3.039-15.872-7.613     c-4.101-4.575-6.175-10.472-5.84-16.606s3.038-11.771,7.612-15.872s10.477-6.175,16.606-5.84     c6.135,0.335,11.771,3.039,15.872,7.613c4.102,4.575,6.175,10.472,5.84,16.606c-0.334,6.134-3.037,11.771-7.612,15.872     C267.226,284.672,261.825,286.733,256.155,286.733z M256.11,250.731c-3.205,0-6.257,1.165-8.661,3.321     c-2.586,2.318-4.114,5.504-4.304,8.971c-0.188,3.467,0.983,6.801,3.302,9.386c2.317,2.585,5.504,4.114,8.971,4.303     c3.479,0.191,6.801-0.983,9.387-3.301c2.585-2.318,4.113-5.504,4.303-8.971c0.188-3.468-0.983-6.801-3.301-9.387     c-2.318-2.585-5.504-4.114-8.972-4.303C256.593,250.738,256.351,250.731,256.11,250.731z" fill="#3F456B"/></g></g><g><path d="M137.802,217.704c-0.595,0-1.198-0.107-1.786-0.332c-2.579-0.987-3.87-3.878-2.883-6.457l34.81-90.931    c2.601-6.527,2.505-13.606-0.245-19.998c-2.749-6.392-7.823-11.33-14.287-13.905c-6.467-2.577-13.543-2.48-19.936,0.27    c-6.392,2.75-11.33,7.823-13.905,14.287l-34.785,90.869c-0.987,2.58-3.881,3.869-6.457,2.882c-2.579-0.987-3.87-3.878-2.883-6.457    L110.255,97c3.589-9.008,10.423-16.03,19.269-19.835c8.845-3.805,18.643-3.937,27.588-0.374    c8.945,3.564,15.967,10.398,19.772,19.243c3.805,8.846,3.938,18.644,0.373,27.588l-34.784,90.868    C141.71,216.481,139.813,217.704,137.802,217.704z" fill="#3F456B"/></g><g><path d="M55.288,340.915c-0.615,0-1.241-0.115-1.849-0.356c-2.565-1.022-3.816-3.93-2.794-6.496l9.253-23.225    c1.021-2.565,3.925-3.817,6.495-2.794c2.565,1.022,3.816,3.93,2.794,6.496l-9.253,23.225    C59.154,339.722,57.275,340.915,55.288,340.915z" fill="#3F456B"/></g></g></svg>