<?xml version="1.0" ?><svg viewBox="0 0 32 32" xmlns="http://www.w3.org/2000/svg"><title/><g data-name="Layer 2" id="Layer_2"><path d="M10.5,16a.5.5,0,0,1-.5-.5v-9a.5.5,0,0,1,1,0v9A.5.5,0,0,1,10.5,16Z"/><path d="M8,18c-1.68,0-3-.88-3-2s1.32-2,3-2,3,.88,3,2S9.68,18,8,18Zm0-3c-1.14,0-2,.53-2,1s.86,1,2,1,2-.53,2-1S9.14,15,8,15Z"/><path d="M10.5,9.48a.5.5,0,0,1-.29-.09A.51.51,0,0,1,10,9V6a.51.51,0,0,1,.34-.47l6-2A.5.5,0,0,1,17,4V7a.51.51,0,0,1-.34.47l-6,2A.47.47,0,0,1,10.5,9.48ZM11,6.35V8.29l5-1.64V4.71ZM16.5,7h0Z"/><path d="M16.5,25a.5.5,0,0,1-.5-.5v-9a.5.5,0,0,1,1,0v9A.5.5,0,0,1,16.5,25Z"/><path d="M14,27c-1.68,0-3-.88-3-2s1.32-2,3-2,3,.88,3,2S15.68,27,14,27Zm0-3c-1.14,0-2,.53-2,1s.86,1,2,1,2-.53,2-1S15.14,24,14,24Z"/><path d="M24.5,24a.5.5,0,0,1-.5-.5v-9a.5.5,0,0,1,1,0v9A.5.5,0,0,1,24.5,24Z"/><path d="M22,26c-1.68,0-3-.88-3-2s1.32-2,3-2,3,.88,3,2S23.68,26,22,26Zm0-3c-1.14,0-2,.53-2,1s.86,1,2,1,2-.53,2-1S23.14,23,22,23Z"/><path d="M16.5,18.48a.5.5,0,0,1-.31-.1A.51.51,0,0,1,16,18V15a.49.49,0,0,1,.38-.48l8-2a.51.51,0,0,1,.43.09A.51.51,0,0,1,25,13v3a.49.49,0,0,1-.38.48l-8,2Zm.5-3.1v2l7-1.73v-2Zm7.5.64h0Z"/><path d="M8.5,10h-6A.5.5,0,0,1,2,9.5v-2A.5.5,0,0,1,2.5,7h6a.5.5,0,0,1,0,1H3V9H8.5a.5.5,0,0,1,0,1Z"/><path d="M29.5,10h-11a.5.5,0,0,1,0-1H29V8H18.5a.5.5,0,0,1,0-1h11a.5.5,0,0,1,.5.5v2A.5.5,0,0,1,29.5,10Z"/><path d="M29.5,22h-3a.5.5,0,0,1,0-1H29V20H26.5a.5.5,0,0,1,0-1h3a.5.5,0,0,1,.5.5v2A.5.5,0,0,1,29.5,22Z"/><path d="M14.5,22H2.5a.5.5,0,0,1-.5-.5v-2a.5.5,0,0,1,.5-.5h12a.5.5,0,0,1,0,1H3v1H14.5a.5.5,0,0,1,0,1Z"/></g></svg>