<?xml version="1.0" ?><!DOCTYPE svg  PUBLIC '-//W3C//DTD SVG 1.1//EN'  'http://www.w3.org/Graphics/SVG/1.1/DTD/svg11.dtd'><svg height="6.82666in" style="shape-rendering:geometricPrecision; text-rendering:geometricPrecision; image-rendering:optimizeQuality; fill-rule:evenodd; clip-rule:evenodd" viewBox="0 0 6.82666 6.82666" width="6.82666in" xml:space="preserve" xmlns="http://www.w3.org/2000/svg" xmlns:xlink="http://www.w3.org/1999/xlink"><defs><style type="text/css">
   <![CDATA[
    .fil0 {fill:none}
    .fil1 {fill:#212121;fill-rule:nonzero}
   ]]>
  </style></defs><g id="Layer_x0020_1"><g id="_466584592"><rect class="fil0" height="6.82666" id="_466584256" width="6.82666"/><rect class="fil0" height="5.12" id="_466584712" width="5.12" x="0.853331" y="0.853331"/></g><polygon class="fil1" points="0.853331,2.61333 5.97333,2.61333 5.97333,2.72 0.853331,2.72 "/><polygon class="fil1" points="0.853331,3.14667 5.97333,3.14667 5.97333,3.25334 0.853331,3.25334 "/><polygon class="fil1" points="0.853331,3.68001 5.97333,3.68001 5.97333,3.78668 0.853331,3.78668 "/><polygon class="fil1" points="0.853331,4.21335 5.97333,4.21335 5.97333,4.32002 0.853331,4.32002 "/><path class="fil1" d="M1.61243 3.33511c0.0810157,0.00856299 0.152996,0.0402205 0.203846,0.0844685 0.0611024,0.0531654 0.0947992,0.124799 0.0866142,0.202264 -0.00819685,0.0775354 -0.0563031,0.140657 -0.127449,0.180028 -0.0592795,0.0328031 -0.135945,0.0488701 -0.215913,0.0404173 -0.0810157,-0.00856299 -0.152992,-0.0402205 -0.203846,-0.0844685 -0.0610984,-0.0531614 -0.0947953,-0.124787 -0.0866142,-0.202248l0 -1.9685e-005c0.00818898,-0.0775276 0.0563031,-0.140654 0.127445,-0.180024 0.0592638,-0.0327953 0.135909,-0.0488622 0.21585,-0.0404213l6.69291e-005 3.93701e-006zm0.0638465 0.245303c-0.0198701,-0.0172874 -0.0499409,-0.0298701 -0.0854764,-0.0336299l-5.51181e-005 -3.93701e-006c-0.0365906,-0.00386614 -0.0689724,0.00198819 -0.0917283,0.0145827 -0.0108858,0.00602362 -0.0178425,0.0117835 -0.0182795,0.0158504l0 1.1811e-005c-0.000433071,0.00412205 0.00530709,0.011374 0.0149449,0.0197598 0.019878,0.0172953 0.0499606,0.029878 0.0855157,0.0336339 0.0365984,0.00386614 0.0689843,-0.00199213 0.0917402,-0.0145827 0.0108976,-0.00602756 0.0178543,-0.0117992 0.0182835,-0.0158622 0.000433071,-0.00412205 -0.00530709,-0.011374 -0.0149449,-0.0197598zm-0.407209 -0.0248425l0 -1.5748e-005m0.211669 0.0216575l0 7.87402e-006"/><path class="fil1" d="M1.68872 3.60185c-0.00598031,0.0584488 0.0365512,0.110689 0.095,0.116669 0.0584488,0.00598031 0.110689,-0.0365512 0.116669,-0.095l0.0972362 -0.919941c0.0952205,0.0236299 0.19361,0.0402441 0.29489,0.0504843 0.105122,0.010626 0.212906,0.014311 0.323067,0.0117835l-0.0852126 0.806205c-0.00598031,0.0584488 0.0365512,0.110689 0.095,0.116669 0.0584488,0.00598031 0.110689,-0.0365512 0.116669,-0.095l0.0972913 -0.920492c0.00151181,-0.00834646 0.00205512,-0.0170039 0.00149213,-0.0258504 -0.00373228,-0.0587913 -0.0544213,-0.103425 -0.113213,-0.0996929l1.1811e-005 0.000204724c-0.143677,0.00911811 -0.282075,0.00786614 -0.414272,-0.00549606 -0.12822,-0.0129606 -0.251461,-0.0374567 -0.368984,-0.0751142 -0.00877953,-0.0034685 -0.0181732,-0.00582283 -0.0280197,-0.0068622 -0.0585827,-0.00618898 -0.111098,0.0362795 -0.117287,0.0948622l0.106075 0.0112126 -0.105835 -0.0108346 -0.110579 1.04619z"/><path class="fil1" d="M2.49122 3.37979l4.72441e-005 3.93701e-006c0.0697913,0.00737008 0.131949,0.0347795 0.176,0.0731024 0.0542953,0.0472402 0.0842087,0.11128 0.0768465,0.180902 -0.00736614,0.0696811 -0.0501811,0.126177 -0.113429,0.161181 -0.051374,0.0284291 -0.117539,0.0423898 -0.186287,0.0351299l-3.14961e-005 -3.93701e-006c-0.0697953,-0.00737795 -0.131949,-0.0347835 -0.176,-0.0731063 -0.0542874,-0.0472362 -0.0841929,-0.111264 -0.0768425,-0.18087l3.93701e-006 -3.54331e-005c0.00736614,-0.0696693 0.0501732,-0.126177 0.113425,-0.161173 0.051374,-0.0284331 0.117531,-0.0423898 0.186268,-0.0351299zm0.0329291 0.231394c-0.0130669,-0.0100551 -0.0320551,-0.0173425 -0.0545236,-0.0197165l-3.93701e-005 -3.93701e-006c-0.0231693,-0.00244882 -0.0434331,0.000464567 -0.0580984,0.00725197 0.0130669,0.0100551 0.032063,0.0173386 0.0545276,0.0197165l2.75591e-005 3.93701e-006c0.0231772,0.00244882 0.0434409,-0.000464567 0.0581063,-0.00725197zm0.00829528 0.000944882c0.000165354,-0.00156693 -0.000224409,-0.00109843 -0.000940945,-0.000208661 0.0005,0.00116929 0.00076378,0.00187795 0.000940945,0.000208661zm-0.129248 -0.0143583c-0.000165354,0.00156693 0.000224409,0.00109449 0.000940945,0.000204724 -0.0005,-0.00116535 -0.00076378,-0.00187795 -0.000940945,-0.000228346l0 2.3622e-005zm0 -2.3622e-005l0 1.5748e-005"/><path class="fil1" d="M3.32819 3.92775c-0.015878,0.0566063 0.0171417,0.115374 0.073748,0.131252 0.0566063,0.015878 0.115374,-0.0171417 0.131252,-0.073748l0.280335 -0.988366 0.00124016 0.00201969c0.102134,0.166508 0.19624,0.319898 0.456799,0.307717 0.0586811,-0.00252756 0.104197,-0.0521535 0.101669,-0.110835 -0.00252756,-0.0586811 -0.0521535,-0.104197 -0.110835,-0.101669 -0.135677,0.00634252 -0.198154,-0.0954961 -0.265965,-0.206047 -0.0409606,-0.0667677 -0.0833701,-0.135898 -0.14315,-0.199075 -0.013315,-0.016189 -0.0315236,-0.0286378 -0.0532165,-0.0347913 -0.0566732,-0.0160748 -0.11565,0.0168386 -0.131724,0.0735118l0.102618 0.0291063 -0.1025 -0.028752 -0.340272 1.19968z"/><path class="fil1" d="M4.72364 3.47182l-1.9685e-005 3.93701e-006c-0.0419291,0.00843701 -0.0764134,0.0268465 -0.0982756,0.0497756 -0.0125945,0.0132126 -0.0195157,0.0257244 -0.0177756,0.0343858 0.0017126,0.00852362 0.0128425,0.0172795 0.0294331,0.0245315 0.029126,0.0127323 0.0682165,0.0163661 0.11035,0.00788976l1.9685e-005 -3.93701e-006c0.0419213,-0.00843701 0.0764055,-0.0268465 0.0982677,-0.0497756 0.0125945,-0.0132126 0.0195118,-0.0257244 0.0177717,-0.0343819l-3.93701e-006 -1.5748e-005c-0.00172047,-0.00851969 -0.0128465,-0.0172717 -0.0294252,-0.0245197 -0.029126,-0.0127283 -0.0682126,-0.0163661 -0.110343,-0.00788976zm-0.0416575 -0.208335c0.0860315,-0.017311 0.170307,-0.00792913 0.237,0.0212244 0.0792402,0.0346417 0.136425,0.0966772 0.15276,0.177858l3.93701e-006 1.9685e-005c0.0163031,0.0810551 -0.0123819,0.160232 -0.0719409,0.222709 -0.0502992,0.0527638 -0.124535,0.0940827 -0.210776,0.111441l-1.9685e-005 3.93701e-006c-0.0860276,0.0173071 -0.170311,0.00793701 -0.237008,-0.0212244 -0.0792362,-0.0346339 -0.136421,-0.0966693 -0.152764,-0.177862 -0.016311,-0.0810591 0.012378,-0.160244 0.0719409,-0.222724 0.0502992,-0.0527638 0.124543,-0.0940866 0.210783,-0.111441l1.9685e-005 -3.93701e-006z"/><path class="fil1" d="M4.86277 3.53605c0.00644094,0.0584488 0.0590512,0.10061 0.1175,0.0941693 0.0584488,-0.00644094 0.10061,-0.0590512 0.0941693,-0.1175l-0.11637 -1.02173 0.00239764 0.00175197c0.157583,0.115083 0.302752,0.221094 0.539382,0.110705 0.0531575,-0.0248504 0.0761024,-0.0880945 0.051252,-0.141252 -0.0248504,-0.0531575 -0.0880945,-0.0761024 -0.141252,-0.051252 -0.122846,0.0573071 -0.219484,-0.0132638 -0.324382,-0.0898701 -0.0634606,-0.0463465 -0.129161,-0.0943307 -0.2075,-0.129642 -0.0184921,-0.00995669 -0.0401024,-0.0145669 -0.0625472,-0.0120118 -0.0585276,0.00666535 -0.100575,0.0595236 -0.0939094,0.118051l0.000188976 -1.9685e-005 0.141071 1.2386z"/><path class="fil1" d="M3.16366 3.9342l-1.9685e-005 -3.93701e-006c-0.0423819,-0.00574409 -0.0809882,0.000366142 -0.10915,0.0148819 -0.0162244,0.0083622 -0.0268622,0.0179213 -0.0280512,0.0266732 -0.00116929,0.00861811 0.00648425,0.0205315 0.0197874,0.032815 0.0233543,0.0215591 0.0591063,0.0377835 0.101693,0.043563l1.9685e-005 0c0.042374,0.00574803 0.0809843,-0.000366142 0.109146,-0.014878 0.0162244,-0.00836614 0.0268543,-0.0179252 0.0280433,-0.0266732l0 -1.9685e-005c0.00116535,-0.00861024 -0.00648425,-0.0205236 -0.0197795,-0.0327953 -0.0233583,-0.0215591 -0.0591024,-0.0377874 -0.101689,-0.043563zm0.0288071 -0.210496c0.0869606,0.0117913 0.163528,0.0482362 0.217008,0.0976063 0.0635433,0.0586614 0.0972835,0.135996 0.0861535,0.218051l-3.93701e-006 1.9685e-005c-0.0111142,0.0819291 -0.0641299,0.147362 -0.140854,0.186909 -0.0647953,0.0334016 -0.148465,0.0481535 -0.235638,0.0363386l-1.9685e-005 -3.93701e-006c-0.0869528,-0.0117953 -0.163531,-0.0482283 -0.217016,-0.0976102 -0.0635394,-0.0586535 -0.0972795,-0.135984 -0.0861535,-0.218055 0.0111102,-0.0819331 0.0641299,-0.147374 0.140858,-0.186925 0.0647953,-0.0333976 0.148476,-0.0481535 0.235646,-0.0363346l1.9685e-005 3.93701e-006z"/></g></svg>