<?xml version="1.0" ?><svg id="Layer_1_1_" style="enable-background:new 0 0 64 64;" version="1.1" viewBox="0 0 64 64" xml:space="preserve" xmlns="http://www.w3.org/2000/svg" xmlns:xlink="http://www.w3.org/1999/xlink"><g><path d="M4,6h56c1.105,0,2,0.895,2,2v10H2V8C2,6.895,2.895,6,4,6z" style="fill:#FF6E6E;"/><path d="M60,6h-7v12h9V8C62,6.895,61.105,6,60,6z" style="fill:#E56565;"/><rect height="40" style="fill:#A8A8A8;" width="60" x="2" y="18"/><rect height="40" style="fill:#9B9B9B;" width="9" x="53" y="18"/><rect height="4" style="fill:#6D6E71;" width="6" x="4" y="58"/><rect height="4" style="fill:#6D6E71;" width="6" x="54" y="58"/><rect height="4" style="fill:#575759;" width="6" x="4" y="58"/><path d="M47,6h-2V5c0-1.103-0.897-2-2-2H21c-1.103,0-2,0.897-2,2v1h-2V5c0-2.206,1.794-4,4-4h22   c2.206,0,4,1.794,4,4V6z" style="fill:#575759;"/><circle cx="10" cy="12" r="2" style="fill:#FFCB57;"/><path d="M10,10c-0.366,0-0.705,0.106-1,0.277c0.595,0.346,1,0.984,1,1.723c0,0.738-0.405,1.376-1,1.723   C9.295,13.894,9.634,14,10,14c1.105,0,2-0.895,2-2C12,10.895,11.105,10,10,10z" style="fill:#F2BE55;"/><path d="M10,15c-1.654,0-3-1.346-3-3s1.346-3,3-3s3,1.346,3,3S11.654,15,10,15z M10,11c-0.552,0-1,0.448-1,1   s0.448,1,1,1s1-0.448,1-1S10.552,11,10,11z" style="fill:#575759;"/><circle cx="18" cy="12" r="2" style="fill:#FFCB57;"/><path d="M18,10c-0.366,0-0.705,0.106-1,0.277c0.595,0.346,1,0.984,1,1.723c0,0.738-0.405,1.376-1,1.723   C17.295,13.894,17.634,14,18,14c1.105,0,2-0.895,2-2C20,10.895,19.105,10,18,10z" style="fill:#F2BE55;"/><path d="M18,15c-1.654,0-3-1.346-3-3s1.346-3,3-3s3,1.346,3,3S19.654,15,18,15z M18,11c-0.552,0-1,0.448-1,1   s0.448,1,1,1s1-0.448,1-1S18.552,11,18,11z" style="fill:#575759;"/><circle cx="26" cy="12" r="2" style="fill:#FFCB57;"/><path d="M26,10c-0.366,0-0.705,0.106-1,0.277c0.595,0.346,1,0.984,1,1.723c0,0.738-0.405,1.376-1,1.723   C25.295,13.894,25.634,14,26,14c1.105,0,2-0.895,2-2C28,10.895,27.105,10,26,10z" style="fill:#F2BE55;"/><path d="M26,15c-1.654,0-3-1.346-3-3s1.346-3,3-3s3,1.346,3,3S27.654,15,26,15z M26,11c-0.552,0-1,0.448-1,1   s0.448,1,1,1s1-0.448,1-1S26.552,11,26,11z" style="fill:#575759;"/><circle cx="34" cy="12" r="2" style="fill:#FFCB57;"/><path d="M34,10c-0.366,0-0.705,0.106-1,0.277c0.595,0.346,1,0.984,1,1.723c0,0.738-0.405,1.376-1,1.723   C33.295,13.894,33.634,14,34,14c1.105,0,2-0.895,2-2C36,10.895,35.105,10,34,10z" style="fill:#F2BE55;"/><path d="M34,15c-1.654,0-3-1.346-3-3s1.346-3,3-3s3,1.346,3,3S35.654,15,34,15z M34,11c-0.552,0-1,0.448-1,1   s0.448,1,1,1s1-0.448,1-1S34.552,11,34,11z" style="fill:#575759;"/><circle cx="42" cy="12" r="2" style="fill:#FFCB57;"/><path d="M42,10c-0.366,0-0.705,0.106-1,0.277c0.595,0.346,1,0.984,1,1.723c0,0.738-0.405,1.376-1,1.723   C41.295,13.894,41.634,14,42,14c1.105,0,2-0.895,2-2C44,10.895,43.105,10,42,10z" style="fill:#F2BE55;"/><path d="M42,15c-1.654,0-3-1.346-3-3s1.346-3,3-3s3,1.346,3,3S43.654,15,42,15z M42,11c-0.552,0-1,0.448-1,1   s0.448,1,1,1s1-0.448,1-1S42.552,11,42,11z" style="fill:#575759;"/><rect height="2" style="fill:#575759;" width="2" x="47" y="11"/><rect height="2" style="fill:#575759;" width="2" x="51" y="11"/><rect height="2" style="fill:#575759;" width="2" x="55" y="11"/><rect height="2" style="fill:#575759;" width="2" x="5" y="53"/><rect height="2" style="fill:#575759;" width="2" x="9" y="53"/><rect height="2" style="fill:#575759;" width="2" x="13" y="53"/><rect height="2" style="fill:#575759;" width="2" x="17" y="53"/><rect height="2" style="fill:#575759;" width="2" x="21" y="53"/><rect height="2" style="fill:#575759;" width="2" x="25" y="53"/><rect height="2" style="fill:#575759;" width="2" x="29" y="53"/><rect height="2" style="fill:#575759;" width="2" x="33" y="53"/><rect height="2" style="fill:#575759;" width="2" x="37" y="53"/><rect height="2" style="fill:#575759;" width="2" x="41" y="53"/><rect height="2" style="fill:#575759;" width="2" x="45" y="53"/><rect height="2" style="fill:#575759;" width="2" x="49" y="53"/><rect height="2" style="fill:#575759;" width="2" x="53" y="53"/><rect height="2" style="fill:#575759;" width="2" x="57" y="53"/><rect height="2" style="fill:#575759;" width="2" x="7" y="49"/><rect height="2" style="fill:#575759;" width="2" x="11" y="49"/><rect height="2" style="fill:#575759;" width="2" x="15" y="49"/><rect height="2" style="fill:#575759;" width="2" x="19" y="49"/><rect height="2" style="fill:#575759;" width="2" x="23" y="49"/><rect height="2" style="fill:#575759;" width="2" x="27" y="49"/><rect height="2" style="fill:#575759;" width="2" x="31" y="49"/><rect height="2" style="fill:#575759;" width="2" x="35" y="49"/><rect height="2" style="fill:#575759;" width="2" x="39" y="49"/><rect height="2" style="fill:#575759;" width="2" x="43" y="49"/><rect height="2" style="fill:#575759;" width="2" x="47" y="49"/><rect height="2" style="fill:#575759;" width="2" x="51" y="49"/><rect height="2" style="fill:#575759;" width="2" x="55" y="49"/><rect height="2" style="fill:#575759;" width="2" x="59" y="49"/><rect height="2" style="fill:#575759;" width="2" x="3" y="49"/><rect height="2" style="fill:#575759;" width="2" x="5" y="45"/><rect height="2" style="fill:#575759;" width="2" x="9" y="45"/><rect height="2" style="fill:#575759;" width="2" x="13" y="45"/><rect height="2" style="fill:#575759;" width="2" x="17" y="45"/><rect height="2" style="fill:#575759;" width="2" x="21" y="45"/><rect height="2" style="fill:#575759;" width="2" x="25" y="45"/><rect height="2" style="fill:#575759;" width="2" x="29" y="45"/><rect height="2" style="fill:#575759;" width="2" x="33" y="45"/><rect height="2" style="fill:#575759;" width="2" x="37" y="45"/><rect height="2" style="fill:#575759;" width="2" x="41" y="45"/><rect height="2" style="fill:#575759;" width="2" x="45" y="45"/><rect height="2" style="fill:#575759;" width="2" x="49" y="45"/><rect height="2" style="fill:#575759;" width="2" x="53" y="45"/><rect height="2" style="fill:#575759;" width="2" x="57" y="45"/><rect height="2" style="fill:#575759;" width="2" x="7" y="41"/><rect height="2" style="fill:#575759;" width="2" x="11" y="41"/><rect height="2" style="fill:#575759;" width="2" x="15" y="41"/><rect height="2" style="fill:#575759;" width="2" x="19" y="41"/><rect height="2" style="fill:#575759;" width="2" x="23" y="41"/><rect height="2" style="fill:#575759;" width="2" x="27" y="41"/><rect height="2" style="fill:#575759;" width="2" x="31" y="41"/><rect height="2" style="fill:#575759;" width="2" x="35" y="41"/><rect height="2" style="fill:#575759;" width="2" x="39" y="41"/><rect height="2" style="fill:#575759;" width="2" x="43" y="41"/><rect height="2" style="fill:#575759;" width="2" x="47" y="41"/><rect height="2" style="fill:#575759;" width="2" x="51" y="41"/><rect height="2" style="fill:#575759;" width="2" x="55" y="41"/><rect height="2" style="fill:#575759;" width="2" x="59" y="41"/><rect height="2" style="fill:#575759;" width="2" x="3" y="41"/><rect height="2" style="fill:#575759;" width="2" x="5" y="37"/><rect height="2" style="fill:#575759;" width="2" x="9" y="37"/><rect height="2" style="fill:#575759;" width="2" x="13" y="37"/><rect height="2" style="fill:#575759;" width="2" x="17" y="37"/><rect height="2" style="fill:#575759;" width="2" x="21" y="37"/><rect height="2" style="fill:#575759;" width="2" x="25" y="37"/><rect height="2" style="fill:#575759;" width="2" x="29" y="37"/><rect height="2" style="fill:#575759;" width="2" x="33" y="37"/><rect height="2" style="fill:#575759;" width="2" x="37" y="37"/><rect height="2" style="fill:#575759;" width="2" x="41" y="37"/><rect height="2" style="fill:#575759;" width="2" x="45" y="37"/><rect height="2" style="fill:#575759;" width="2" x="49" y="37"/><rect height="2" style="fill:#575759;" width="2" x="53" y="37"/><rect height="2" style="fill:#575759;" width="2" x="57" y="37"/><rect height="2" style="fill:#575759;" width="2" x="7" y="33"/><rect height="2" style="fill:#575759;" width="2" x="11" y="33"/><rect height="2" style="fill:#575759;" width="2" x="15" y="33"/><rect height="2" style="fill:#575759;" width="2" x="19" y="33"/><rect height="2" style="fill:#575759;" width="2" x="23" y="33"/><rect height="2" style="fill:#575759;" width="2" x="27" y="33"/><rect height="2" style="fill:#575759;" width="2" x="31" y="33"/><rect height="2" style="fill:#575759;" width="2" x="35" y="33"/><rect height="2" style="fill:#575759;" width="2" x="39" y="33"/><rect height="2" style="fill:#575759;" width="2" x="43" y="33"/><rect height="2" style="fill:#575759;" width="2" x="47" y="33"/><rect height="2" style="fill:#575759;" width="2" x="51" y="33"/><rect height="2" style="fill:#575759;" width="2" x="55" y="33"/><rect height="2" style="fill:#575759;" width="2" x="59" y="33"/><rect height="2" style="fill:#575759;" width="2" x="3" y="33"/><rect height="2" style="fill:#575759;" width="2" x="5" y="29"/><rect height="2" style="fill:#575759;" width="2" x="9" y="29"/><rect height="2" style="fill:#575759;" width="2" x="13" y="29"/><rect height="2" style="fill:#575759;" width="2" x="17" y="29"/><rect height="2" style="fill:#575759;" width="2" x="21" y="29"/><rect height="2" style="fill:#575759;" width="2" x="25" y="29"/><rect height="2" style="fill:#575759;" width="2" x="29" y="29"/><rect height="2" style="fill:#575759;" width="2" x="33" y="29"/><rect height="2" style="fill:#575759;" width="2" x="37" y="29"/><rect height="2" style="fill:#575759;" width="2" x="41" y="29"/><rect height="2" style="fill:#575759;" width="2" x="45" y="29"/><rect height="2" style="fill:#575759;" width="2" x="49" y="29"/><rect height="2" style="fill:#575759;" width="2" x="53" y="29"/><rect height="2" style="fill:#575759;" width="2" x="57" y="29"/><rect height="2" style="fill:#575759;" width="2" x="7" y="25"/><rect height="2" style="fill:#575759;" width="2" x="11" y="25"/><rect height="2" style="fill:#575759;" width="2" x="15" y="25"/><rect height="2" style="fill:#575759;" width="2" x="19" y="25"/><rect height="2" style="fill:#575759;" width="2" x="23" y="25"/><rect height="2" style="fill:#575759;" width="2" x="27" y="25"/><rect height="2" style="fill:#575759;" width="2" x="31" y="25"/><rect height="2" style="fill:#575759;" width="2" x="35" y="25"/><rect height="2" style="fill:#575759;" width="2" x="39" y="25"/><rect height="2" style="fill:#575759;" width="2" x="43" y="25"/><rect height="2" style="fill:#575759;" width="2" x="47" y="25"/><rect height="2" style="fill:#575759;" width="2" x="51" y="25"/><rect height="2" style="fill:#575759;" width="2" x="55" y="25"/><rect height="2" style="fill:#575759;" width="2" x="59" y="25"/><rect height="2" style="fill:#575759;" width="2" x="3" y="25"/><rect height="2" style="fill:#575759;" width="2" x="5" y="21"/><rect height="2" style="fill:#575759;" width="2" x="9" y="21"/><rect height="2" style="fill:#575759;" width="2" x="13" y="21"/><rect height="2" style="fill:#575759;" width="2" x="17" y="21"/><rect height="2" style="fill:#575759;" width="2" x="21" y="21"/><rect height="2" style="fill:#575759;" width="2" x="25" y="21"/><rect height="2" style="fill:#575759;" width="2" x="29" y="21"/><rect height="2" style="fill:#575759;" width="2" x="33" y="21"/><rect height="2" style="fill:#575759;" width="2" x="37" y="21"/><rect height="2" style="fill:#575759;" width="2" x="41" y="21"/><rect height="2" style="fill:#575759;" width="2" x="45" y="21"/><rect height="2" style="fill:#575759;" width="2" x="49" y="21"/><rect height="2" style="fill:#575759;" width="2" x="53" y="21"/><rect height="2" style="fill:#575759;" width="2" x="57" y="21"/></g></svg>