<?xml version="1.0" ?><!DOCTYPE svg  PUBLIC '-//W3C//DTD SVG 1.1//EN'  'http://www.w3.org/Graphics/SVG/1.1/DTD/svg11.dtd'><svg height="512px" style="enable-background:new 0 0 512 512;" version="1.1" viewBox="0 0 512 512" width="512px" xml:space="preserve" xmlns="http://www.w3.org/2000/svg" xmlns:xlink="http://www.w3.org/1999/xlink"><g id="old_telephone_call_communication"><path d="M508.559,105.111c5.341,1.632-118.852-77.316-247.169-75.636C134.185,29.922-0.631,99.983,0.338,99.313   c-1.314-0.445,1.625,95.088,1.625,95.088c34.512,9.214,145.023-2.836,145.023-2.836s1.36-61.536-2.471-59.669   c67.683-19.052,157.924-20.477,224.998,0.988c1.754-2.827,1.275,61.842-3.434,64.289c33.566,4.994,116.215-7.323,145.92-0.118   C510.654,192.325,506.8,107.992,508.559,105.111z M385.803,180.389c-0.111-0.837,7.031-59.606,2.941-59.727   c-25.311-19.983-207.018-32.68-260.152-3.568c0,0-1.111,63.475-6.961,59.184c6.951,3.375-97.246,1.396-96.352,0.659l-3.688-68.296   c36.854-22.68,168.888-56.885,234.925-58.169c86.008-0.684,160.453,32.852,238.285,63.855c1.074-1.184,0.504,58.794,1.143,61.727   C488.503,176.151,384.934,177.103,385.803,180.389z M340.296,216.864c0,0-0.732-52.743,0.284-56.671   c-6.007-3.427-61.682-3.344-61.682-3.344l-0.371,32.327l-43.555,0.78l-2.149-30.863l-60.591,0.124   c3.708,6.298,0.402,53.294,1.332,58.306c-9.557,2.705-37.402,0.418-84.067,7.908c0,12.792-60.132,235.379-35.596,253.783   c20.133,0.852,391.825,6.172,392.915,1.323c31.215-4.232-11.928-185.02-31.551-262.379L340.296,216.864z M445.641,456.756   c-0.984-0.741-379.968,9.992-379.313,2.947c-5.391,0.199,40.745-229.311,41.456-222.123c-0.088-1.764,80.324-4.965,82.688-5.653   c0.979,1.084,2.223-52.411,2.223-52.411l24.152,0.371l1.719,24.565l81.338-0.579l0.92-28.816c0,0,18.143,2.278,21.367-0.012   c-0.348,9.208,0.518,60.736,0.518,60.736s83.289-3.366,83.869-0.571C407.99,235.951,444.916,457.868,445.641,456.756z    M258.643,255.563c-53.352-0.342-94.516,43.277-96.864,88.843c2.792,56.829,44.115,96.123,96.345,95.039   c49.861,4.072,92.811-43.199,94.891-92.939C350.146,297.36,307.626,254.711,258.643,255.563z M258.635,418.997   c-40.23-10.234-77.102-32.026-76.824-69.19c-0.035-41.96,35-79.064,74.692-79.203c37.08,6.26,73.422,37.479,76.313,74.609   C331.197,389.877,299.369,422.746,258.635,418.997z"/></g><g id="Layer_1"/></svg>